<?xml version="1.0" encoding="UTF-8" standalone="no"?>
<!-- Created with Inkscape (http://www.inkscape.org/) -->

<svg
   width="845.65564mm"
   height="700.78186mm"
   viewBox="0 0 845.65564 700.78186"
   version="1.1"
   id="svg5"
   inkscape:version="1.1.2 (0a00cf5339, 2022-02-04)"
   sodipodi:docname="unpool2.svg"
   xmlns:inkscape="http://www.inkscape.org/namespaces/inkscape"
   xmlns:sodipodi="http://sodipodi.sourceforge.net/DTD/sodipodi-0.dtd"
   xmlns="http://www.w3.org/2000/svg"
   xmlns:svg="http://www.w3.org/2000/svg">
  <sodipodi:namedview
     id="namedview7"
     pagecolor="#ffffff"
     bordercolor="#111111"
     borderopacity="1"
     inkscape:pageshadow="0"
     inkscape:pageopacity="0"
     inkscape:pagecheckerboard="1"
     inkscape:document-units="mm"
     showgrid="false"
     inkscape:snap-bbox="true"
     inkscape:bbox-nodes="true"
     inkscape:zoom="0.22627417"
     inkscape:cx="1442.9398"
     inkscape:cy="1400.9553"
     inkscape:window-width="1912"
     inkscape:window-height="1107"
     inkscape:window-x="1298"
     inkscape:window-y="89"
     inkscape:window-maximized="0"
     inkscape:current-layer="layer1"
     inkscape:snap-bbox-edge-midpoints="true"
     inkscape:object-nodes="true"
     inkscape:snap-nodes="true"
     inkscape:snap-others="true"
     inkscape:snap-global="true"
     fit-margin-top="10"
     lock-margins="true"
     fit-margin-left="10"
     fit-margin-right="10"
     fit-margin-bottom="10"
     inkscape:bbox-paths="true"
     inkscape:snap-bbox-midpoints="true"
     inkscape:object-paths="true"
     inkscape:snap-intersection-paths="true"
     inkscape:snap-smooth-nodes="true"
     inkscape:snap-midpoints="true"
     inkscape:snap-object-midpoints="true"
     inkscape:snap-center="true">
    <inkscape:grid
       type="xygrid"
       id="grid8681"
       spacingx="2.6458333"
       spacingy="2.6458333"
       originx="383.89529"
       originy="64.29948" />
  </sodipodi:namedview>
  <defs
     id="defs2" />
  <g
     inkscape:label="Layer 1"
     inkscape:groupmode="layer"
     id="layer1"
     transform="translate(383.89528,64.299478)">
    <path
       id="path15152"
       style="fill:#37abc8;fill-opacity:1;stroke-width:0.227227"
       d="m -488.7128,330.97838 a 40.295507,40.362146 0 0 1 -33.5795,18.08098 v 26.9081 h 201.47764 201.47756 v -26.90809 a 40.295507,40.362146 0 0 1 -33.5796,-18.08099 40.295507,40.362146 0 0 1 -33.57958,18.08099 40.295507,40.362146 0 0 1 -33.57959,-18.08099 40.295507,40.362146 0 0 1 -33.57959,18.08099 40.295507,40.362146 0 0 1 -33.57959,-18.08099 40.295507,40.362146 0 0 1 -33.57961,18.08099 40.295507,40.362146 0 0 1 -33.5796,-18.08099 40.295507,40.362146 0 0 1 -33.57954,18.08098 40.295507,40.362146 0 0 1 -33.5797,-18.08098 40.295507,40.362146 0 0 1 -33.5796,18.08098 40.295507,40.362146 0 0 1 -33.5797,-18.08098 z" />
    <path
       id="path46346"
       style="fill:#000000;stroke-width:0.223614"
       d="m 87.958255,-54.299478 a 39.687497,39.687497 0 0 1 -33.07292,17.778754 v 26.458333 h 198.437495 198.4375 v -26.458333 a 39.687497,39.687497 0 0 1 -33.07292,-17.778754 39.687497,39.687497 0 0 1 -33.07292,17.778754 39.687497,39.687497 0 0 1 -33.07291,-17.778754 39.687497,39.687497 0 0 1 -33.07292,17.778754 39.687497,39.687497 0 0 1 -33.07291,-17.778754 39.687497,39.687497 0 0 1 -33.07292,17.778754 39.687497,39.687497 0 0 1 -33.07292,-17.778754 39.687497,39.687497 0 0 1 -33.07291,17.778754 39.687497,39.687497 0 0 1 -33.07291,-17.778754 39.687497,39.687497 0 0 1 -33.07292,17.778754 39.687497,39.687497 0 0 1 -33.072915,-17.778754 z" />
    <g
       aria-label="U"
       id="text1419"
       style="font-size:103.736px;line-height:1.25;stroke-width:2.5934" />
    <g
       aria-label="U"
       id="text10732"
       style="font-size:103.736px;line-height:1.25;stroke-width:2.5934" />
    <path
       id="path10889"
       style="fill:#37c8ab;fill-opacity:1;stroke-width:0.223614"
       d="m -197.23265,83.753325 a 39.687497,39.687497 0 0 1 -33.07291,17.778755 v 26.45833 h 198.437495 v -26.45833 a 39.687497,39.687497 0 0 1 -33.07292,-17.778755 39.687497,39.687497 0 0 1 -33.072909,17.778755 39.687497,39.687497 0 0 1 -33.072916,-17.778755 39.687497,39.687497 0 0 1 -33.07292,17.778755 39.687497,39.687497 0 0 1 -33.07292,-17.778755 z" />
    <g
       aria-label="U"
       id="g10893"
       style="font-size:103.736px;line-height:1.25;stroke-width:2.5934"
       transform="translate(-203.84723,-4.3012494)">
      <path
         d="m 72.501084,124.35417 q -7.572728,0 -13.070736,-2.07472 -5.498008,-2.17846 -9.128768,-5.91295 -3.527024,-3.83824 -5.290536,-9.02504 -1.659776,-5.29053 -1.659776,-11.618429 V 51.012815 h 16.182816 v 43.361648 q 0,4.356912 0.933624,7.468997 1.03736,3.00834 2.697136,4.97932 1.763512,1.86725 4.14944,2.69714 2.489664,0.82989 5.394272,0.82989 5.912952,0 9.543712,-3.63076 3.734496,-3.63076 3.734496,-12.344587 V 51.012815 h 16.182816 v 44.710216 q 0,6.327899 -1.76351,11.618429 -1.763514,5.29054 -5.394274,9.12877 -3.63076,3.7345 -9.232504,5.80922 -5.601744,2.07472 -13.278208,2.07472 z"
         style="font-weight:bold;font-family:Ubuntu;-inkscape-font-specification:'Ubuntu Bold'"
         id="path10891" />
    </g>
    <path
       id="path13900"
       style="fill:#000000;stroke-width:0.223614"
       d="M 38.416977,87.669494 A 39.687497,39.687497 0 0 1 5.3440675,105.44825 v 26.45833 H 203.78157 V 105.44825 A 39.687497,39.687497 0 0 1 170.70865,87.669494 39.687497,39.687497 0 0 1 137.63574,105.44825 39.687497,39.687497 0 0 1 104.56282,87.669494 39.687497,39.687497 0 0 1 71.489897,105.44825 39.687497,39.687497 0 0 1 38.416977,87.669494 Z" />
    <path
       id="path13902"
       style="fill:#ffffff;fill-opacity:1;stroke-width:0.223614"
       d="m 117.29281,99.654294 c -0.57626,2.911286 -1.6542,5.139846 -3.23805,6.679696 -2.4205,2.4205 -5.60163,3.63078 -9.5436,3.63078 -1.93641,0 -3.73473,-0.27666 -5.394503,-0.82992 -1.59063,-0.55326 -2.97395,-1.45216 -4.14962,-2.697 -1.10652,-1.31398 -2.00542,-2.97398 -2.697,-4.97954 -0.17063,-0.56877 -0.31539,-1.17185 -0.43924,-1.802986 a 39.687497,39.687497 0 0 1 -15.57166,5.319056 c 0.16613,0.67236 0.35089,1.33284 0.55448,1.98179 1.17568,3.45787 2.93877,6.46646 5.29012,9.02529 2.42051,2.48966 5.46382,4.46051 9.12916,5.91282 3.66534,1.38314 8.02203,2.07481 13.070523,2.07481 5.11764,0 9.54377,-0.69167 13.27826,-2.07481 3.7345,-1.38315 6.812,-3.31928 9.23251,-5.80895 2.42051,-2.55882 4.21883,-5.60213 5.3945,-9.12916 0.21704,-0.65111 0.41318,-1.31383 0.59015,-1.98851 a 39.687497,39.687497 0 0 1 -15.50603,-5.313366 z" />
    <path
       style="fill:#000000;stroke-width:0.223614"
       d="m 117.27316,99.758684 a 39.687497,39.687497 0 0 0 15.48743,5.350056 c 0.80666,-3.01986 1.2113,-6.276612 1.2113,-9.77098 V 50.627829 h -16.18248 v 43.361694 c 0,2.157135 -0.17296,4.079277 -0.51625,5.769161 z"
       id="path13904" />
    <path
       style="fill:#000000;stroke-width:0.223614"
       d="M 75.153767,50.627829 V 95.33776 c 0,3.498377 0.38162,6.75853 1.14257,9.78131 a 39.687497,39.687497 0 0 0 15.55357,-5.358836 c -0.34161,-1.696382 -0.51366,-3.618857 -0.51366,-5.770711 V 50.627829 Z"
       id="path13906" />
    <path
       id="path32208"
       style="fill:#37c8ab;fill-opacity:1;stroke-width:0.223614"
       d="m -340.82237,-52.3124 a 39.687497,39.687497 0 0 1 -33.07291,17.778759 v 26.458333 h 198.4375 198.437493 V -34.533641 A 39.687497,39.687497 0 0 1 -10.093204,-52.3124 39.687497,39.687497 0 0 1 -43.16612,-34.533641 39.687497,39.687497 0 0 1 -76.239036,-52.3124 a 39.687497,39.687497 0 0 1 -33.072914,17.778759 39.687497,39.687497 0 0 1 -33.07292,-17.778759 39.687497,39.687497 0 0 1 -33.07291,17.778759 39.687497,39.687497 0 0 1 -33.07292,-17.778759 39.687497,39.687497 0 0 1 -33.07292,17.778759 39.687497,39.687497 0 0 1 -33.07291,-17.778759 39.687497,39.687497 0 0 1 -33.07292,17.778759 39.687497,39.687497 0 0 1 -33.07292,-17.778759 z" />
    <text
       xml:space="preserve"
       style="font-size:105.833px;line-height:1.25;font-family:Ubuntu;-inkscape-font-specification:Ubuntu;letter-spacing:2.64583px;stroke-width:0.292779"
       x="-189.31039"
       y="251.20541"
       id="text123717"><tspan
         sodipodi:role="line"
         id="tspan123715"
         style="font-style:normal;font-variant:normal;font-weight:bold;font-stretch:normal;font-size:105.833px;font-family:Ubuntu;-inkscape-font-specification:'Ubuntu Bold';stroke-width:0.292779"
         x="-189.31039"
         y="251.20541"><tspan
           style="letter-spacing:5.29167px"
           id="tspan142964">U</tspan><tspan
           style="font-style:normal;font-variant:normal;font-weight:600;font-stretch:normal;font-size:92.6042px;font-family:Barlow;-inkscape-font-specification:'Barlow Semi-Bold'"
           id="tspan123713">npool<tspan
   style="font-size:66.1458px;fill:#37c8ab;fill-opacity:1"
   id="tspan123711">.fi</tspan></tspan></tspan></text>
    <path
       id="path123719"
       style="fill:#37c8ab;fill-opacity:1;stroke-width:0.164914"
       d="m -151.89841,216.05334 a 40.362231,40.362231 0 0 1 -33.6352,18.08096 40.362231,40.362231 0 0 1 -5.38163,-0.40833 v 27.31645 h 78.03365 v -27.31645 a 40.362231,40.362231 0 0 1 -5.38163,0.40833 40.362231,40.362231 0 0 1 -33.63519,-18.08096 z" />
    <g
       aria-label="U"
       id="text123809"
       style="font-size:105.833px;line-height:1.25;font-family:Ubuntu;-inkscape-font-specification:Ubuntu;stroke-width:0.292779"
       transform="translate(-365.14319,-241.78992)">
      <path
         id="path125361"
         style="font-weight:bold;-inkscape-font-specification:'Ubuntu Bold';fill:#ffffff;stroke-width:1.10657"
         d="m 554.66211,1776.9531 c -2.30163,10.3346 -6.32594,18.3242 -12.09766,23.9356 -9.33329,9.3333 -21.60083,14 -36.80078,14 -7.46666,0 -14.39885,-1.0659 -20.79883,-3.1992 -6.13331,-2.1334 -11.46668,-5.6005 -16,-10.4004 -4.26665,-5.0667 -7.73373,-11.4659 -10.40039,-19.1993 -0.49103,-1.6367 -0.91802,-3.3581 -1.30859,-5.1289 a 152.55016,152.55016 0 0 1 -59.92774,20.6309 c 0.50671,1.9237 1.04909,3.8242 1.63672,5.6973 4.53332,13.3333 11.33376,24.9341 20.40039,34.8007 9.33332,9.6 21.06596,17.1989 35.19922,22.7989 14.13329,5.3333 30.93379,8 50.40039,8 19.73327,0 36.79925,-2.6667 51.19922,-8 14.39995,-5.3333 26.26632,-12.7985 35.59961,-22.3985 9.33332,-9.8666 16.26747,-21.6012 20.80078,-35.2011 0.62736,-1.8821 1.20751,-3.7915 1.74805,-5.7246 a 152.55016,152.55016 0 0 1 -59.65039,-20.6114 z"
         transform="matrix(0.26458333,0,0,0.26458333,79.375004,0)" />
    </g>
    <g
       id="g144733">
      <text
         xml:space="preserve"
         style="font-size:105.832px;line-height:1.25;font-family:Ubuntu;-inkscape-font-specification:Ubuntu;letter-spacing:2.64582px;stroke-width:0.292778"
         x="-190.32866"
         y="366.1301"
         id="text130726"
         inkscape:export-filename="/home/dgleason/unpool_blue.png"
         inkscape:export-xdpi="200.02299"
         inkscape:export-ydpi="200.02299"><tspan
           sodipodi:role="line"
           id="tspan130724"
           style="font-style:normal;font-variant:normal;font-weight:bold;font-stretch:normal;font-size:105.832px;font-family:Ubuntu;-inkscape-font-specification:'Ubuntu Bold';stroke-width:0.292778"
           x="-190.32866"
           y="366.1301"><tspan
             style="letter-spacing:5.29164px;stroke-width:0.292778"
             id="tspan141886">U</tspan><tspan
             style="font-style:normal;font-variant:normal;font-weight:600;font-stretch:normal;font-size:92.6037px;font-family:Barlow;-inkscape-font-specification:'Barlow Semi-Bold';stroke-width:0.292778"
             id="tspan130722">npool<tspan
   style="font-size:66.1455px;fill:#37abc8;fill-opacity:1;stroke-width:0.292778"
   id="tspan130720">.fi</tspan></tspan></tspan></text>
      <path
         id="path130728"
         style="fill:#37abc8;fill-opacity:1;stroke-width:0.164914"
         d="m -152.9167,330.97838 a 40.362231,40.362231 0 0 1 -33.6352,18.08096 40.362231,40.362231 0 0 1 -5.38163,-0.40833 v 27.31645 h 78.03365 v -27.31645 a 40.362231,40.362231 0 0 1 -5.38163,0.40833 40.362231,40.362231 0 0 1 -33.63519,-18.08096 z"
         inkscape:export-filename="/home/dgleason/unpool_blue.png"
         inkscape:export-xdpi="200.02299"
         inkscape:export-ydpi="200.02299" />
      <g
         aria-label="U"
         id="g130732"
         style="font-size:105.833px;line-height:1.25;font-family:Ubuntu;-inkscape-font-specification:Ubuntu;stroke-width:0.292779"
         transform="translate(-366.16149,-126.86489)"
         inkscape:export-filename="/home/dgleason/unpool_blue.png"
         inkscape:export-xdpi="200.02299"
         inkscape:export-ydpi="200.02299">
        <path
           id="path130730"
           style="font-weight:bold;-inkscape-font-specification:'Ubuntu Bold';fill:#ffffff;stroke-width:1.10657"
           d="m 554.66211,1776.9531 c -2.30163,10.3346 -6.32594,18.3242 -12.09766,23.9356 -9.33329,9.3333 -21.60083,14 -36.80078,14 -7.46666,0 -14.39885,-1.0659 -20.79883,-3.1992 -6.13331,-2.1334 -11.46668,-5.6005 -16,-10.4004 -4.26665,-5.0667 -7.73373,-11.4659 -10.40039,-19.1993 -0.49103,-1.6367 -0.91802,-3.3581 -1.30859,-5.1289 a 152.55016,152.55016 0 0 1 -59.92774,20.6309 c 0.50671,1.9237 1.04909,3.8242 1.63672,5.6973 4.53332,13.3333 11.33376,24.9341 20.40039,34.8007 9.33332,9.6 21.06596,17.1989 35.19922,22.7989 14.13329,5.3333 30.93379,8 50.40039,8 19.73327,0 36.79925,-2.6667 51.19922,-8 14.39995,-5.3333 26.26632,-12.7985 35.59961,-22.3985 9.33332,-9.8666 16.26747,-21.6012 20.80078,-35.2011 0.62736,-1.8821 1.20751,-3.7915 1.74805,-5.7246 a 152.55016,152.55016 0 0 1 -59.65039,-20.6114 z"
           transform="matrix(0.26458333,0,0,0.26458333,79.375004,0)" />
      </g>
    </g>
    <text
       xml:space="preserve"
       style="font-size:105.833px;line-height:1.25;font-family:Ubuntu;-inkscape-font-specification:Ubuntu;letter-spacing:2.64583px;stroke-width:0.292779"
       x="-189.8134"
       y="488.12103"
       id="text132680"><tspan
         sodipodi:role="line"
         id="tspan132678"
         style="font-style:normal;font-variant:normal;font-weight:bold;font-stretch:normal;font-size:105.833px;font-family:Ubuntu;-inkscape-font-specification:'Ubuntu Bold';stroke-width:0.292779"
         x="-189.8134"
         y="488.12103"><tspan
           style="letter-spacing:5.29167px"
           id="tspan139652">U</tspan><tspan
           style="font-style:normal;font-variant:normal;font-weight:600;font-stretch:normal;font-size:92.6042px;font-family:Barlow;-inkscape-font-specification:'Barlow Semi-Bold'"
           id="tspan132676">npool<tspan
   style="font-size:66.1458px;fill:#808080;fill-opacity:1"
   id="tspan132674">.fi</tspan></tspan></tspan></text>
    <path
       id="path132682"
       style="fill:#808080;fill-opacity:1;stroke-width:0.164914"
       d="m -152.40141,452.96892 a 40.362231,40.362231 0 0 1 -33.6352,18.08096 40.362231,40.362231 0 0 1 -5.38163,-0.40833 V 497.958 h 78.03365 v -27.31645 a 40.362231,40.362231 0 0 1 -5.38163,0.40833 40.362231,40.362231 0 0 1 -33.63519,-18.08096 z" />
    <g
       aria-label="U"
       id="g132686"
       style="font-size:105.833px;line-height:1.25;font-family:Ubuntu;-inkscape-font-specification:Ubuntu;stroke-width:0.292779"
       transform="translate(-365.64619,-4.8743432)">
      <path
         id="path132684"
         style="font-weight:bold;-inkscape-font-specification:'Ubuntu Bold';fill:#ffffff;stroke-width:1.10657"
         d="m 554.66211,1776.9531 c -2.30163,10.3346 -6.32594,18.3242 -12.09766,23.9356 -9.33329,9.3333 -21.60083,14 -36.80078,14 -7.46666,0 -14.39885,-1.0659 -20.79883,-3.1992 -6.13331,-2.1334 -11.46668,-5.6005 -16,-10.4004 -4.26665,-5.0667 -7.73373,-11.4659 -10.40039,-19.1993 -0.49103,-1.6367 -0.91802,-3.3581 -1.30859,-5.1289 a 152.55016,152.55016 0 0 1 -59.92774,20.6309 c 0.50671,1.9237 1.04909,3.8242 1.63672,5.6973 4.53332,13.3333 11.33376,24.9341 20.40039,34.8007 9.33332,9.6 21.06596,17.1989 35.19922,22.7989 14.13329,5.3333 30.93379,8 50.40039,8 19.73327,0 36.79925,-2.6667 51.19922,-8 14.39995,-5.3333 26.26632,-12.7985 35.59961,-22.3985 9.33332,-9.8666 16.26747,-21.6012 20.80078,-35.2011 0.62736,-1.8821 1.20751,-3.7915 1.74805,-5.7246 a 152.55016,152.55016 0 0 1 -59.65039,-20.6114 z"
         transform="matrix(0.26458333,0,0,0.26458333,79.375004,0)" />
    </g>
    <text
       xml:space="preserve"
       style="font-size:105.833px;line-height:1.25;font-family:Ubuntu;-inkscape-font-specification:Ubuntu;letter-spacing:2.64583px;fill:#000000;stroke-width:0.292779"
       x="-191.22472"
       y="608.98016"
       id="text134122"><tspan
         sodipodi:role="line"
         id="tspan134120"
         style="font-style:normal;font-variant:normal;font-weight:bold;font-stretch:normal;font-size:105.833px;font-family:Ubuntu;-inkscape-font-specification:'Ubuntu Bold';fill:#000000;stroke-width:0.292779"
         x="-191.22472"
         y="608.98016"><tspan
           style="letter-spacing:5.29167px"
           id="tspan140760">U</tspan><tspan
           style="font-style:normal;font-variant:normal;font-weight:600;font-stretch:normal;font-size:92.6042px;font-family:Barlow;-inkscape-font-specification:'Barlow Semi-Bold';fill:#000000"
           id="tspan134118">npool<tspan
   style="font-size:66.1458px;fill:#000000;fill-opacity:1"
   id="tspan134116">.fi</tspan></tspan></tspan></text>
    <path
       id="path134124"
       style="fill:#000000;fill-opacity:1;stroke-width:0.164914"
       d="m -153.81274,573.82802 a 40.362231,40.362231 0 0 1 -33.6352,18.08096 40.362231,40.362231 0 0 1 -5.38163,-0.40833 v 27.31645 h 78.03365 v -27.31645 a 40.362231,40.362231 0 0 1 -5.38163,0.40833 40.362231,40.362231 0 0 1 -33.63519,-18.08096 z" />
    <g
       aria-label="U"
       id="g134128"
       style="font-size:105.833px;line-height:1.25;font-family:Ubuntu;-inkscape-font-specification:Ubuntu;stroke-width:0.292779"
       transform="translate(-367.05752,115.98477)">
      <path
         id="path134126"
         style="font-weight:bold;-inkscape-font-specification:'Ubuntu Bold';fill:#ffffff;stroke-width:1.10657"
         d="m 554.66211,1776.9531 c -2.30163,10.3346 -6.32594,18.3242 -12.09766,23.9356 -9.33329,9.3333 -21.60083,14 -36.80078,14 -7.46666,0 -14.39885,-1.0659 -20.79883,-3.1992 -6.13331,-2.1334 -11.46668,-5.6005 -16,-10.4004 -4.26665,-5.0667 -7.73373,-11.4659 -10.40039,-19.1993 -0.49103,-1.6367 -0.91802,-3.3581 -1.30859,-5.1289 a 152.55016,152.55016 0 0 1 -59.92774,20.6309 c 0.50671,1.9237 1.04909,3.8242 1.63672,5.6973 4.53332,13.3333 11.33376,24.9341 20.40039,34.8007 9.33332,9.6 21.06596,17.1989 35.19922,22.7989 14.13329,5.3333 30.93379,8 50.40039,8 19.73327,0 36.79925,-2.6667 51.19922,-8 14.39995,-5.3333 26.26632,-12.7985 35.59961,-22.3985 9.33332,-9.8666 16.26747,-21.6012 20.80078,-35.2011 0.62736,-1.8821 1.20751,-3.7915 1.74805,-5.7246 a 152.55016,152.55016 0 0 1 -59.65039,-20.6114 z"
         transform="matrix(0.26458333,0,0,0.26458333,79.375004,0)" />
    </g>
    <path
       id="path134291"
       style="fill:#37c8ab;fill-opacity:1;stroke-width:0.164914"
       d="m -151.89841,216.05334 a 40.362231,40.362231 0 0 1 -33.6352,18.08096 40.362231,40.362231 0 0 1 -5.38163,-0.40833 v 27.31645 h 78.03365 v -27.31645 a 40.362231,40.362231 0 0 1 -5.38163,0.40833 40.362231,40.362231 0 0 1 -33.63519,-18.08096 z" />
    <g
       aria-label="U"
       id="g134295"
       style="font-size:105.833px;line-height:1.25;font-family:Ubuntu;-inkscape-font-specification:Ubuntu;stroke-width:0.292779"
       transform="translate(-365.14319,-241.78992)">
      <path
         id="path134293"
         style="font-weight:bold;-inkscape-font-specification:'Ubuntu Bold';fill:#ffffff;stroke-width:1.10657"
         d="m 554.66211,1776.9531 c -2.30163,10.3346 -6.32594,18.3242 -12.09766,23.9356 -9.33329,9.3333 -21.60083,14 -36.80078,14 -7.46666,0 -14.39885,-1.0659 -20.79883,-3.1992 -6.13331,-2.1334 -11.46668,-5.6005 -16,-10.4004 -4.26665,-5.0667 -7.73373,-11.4659 -10.40039,-19.1993 -0.49103,-1.6367 -0.91802,-3.3581 -1.30859,-5.1289 a 152.55016,152.55016 0 0 1 -59.92774,20.6309 c 0.50671,1.9237 1.04909,3.8242 1.63672,5.6973 4.53332,13.3333 11.33376,24.9341 20.40039,34.8007 9.33332,9.6 21.06596,17.1989 35.19922,22.7989 14.13329,5.3333 30.93379,8 50.40039,8 19.73327,0 36.79925,-2.6667 51.19922,-8 14.39995,-5.3333 26.26632,-12.7985 35.59961,-22.3985 9.33332,-9.8666 16.26747,-21.6012 20.80078,-35.2011 0.62736,-1.8821 1.20751,-3.7915 1.74805,-5.7246 a 152.55016,152.55016 0 0 1 -59.65039,-20.6114 z"
         transform="matrix(0.26458333,0,0,0.26458333,79.375004,0)" />
    </g>
    <path
       id="rect144735"
       style="fill:#ffffff;stroke-width:1.34298;stroke-linecap:round;stroke-linejoin:round"
       d="M 218.43426,270.82601 H 632.43103 V 387.10414 H 218.43426 Z"
       inkscape:export-filename="/home/dgleason/unpool_blue.png"
       inkscape:export-xdpi="100.04632"
       inkscape:export-ydpi="100.04632" />
    <text
       xml:space="preserve"
       style="font-size:105.832px;line-height:1.25;font-family:Ubuntu;-inkscape-font-specification:Ubuntu;letter-spacing:2.64582px;stroke-width:0.292778"
       x="236.36639"
       y="360.71719"
       id="text144745"
       inkscape:export-filename="/home/dgleason/unpool_blue.png"
       inkscape:export-xdpi="100.04632"
       inkscape:export-ydpi="100.04632"><tspan
         sodipodi:role="line"
         id="tspan144743"
         style="font-style:normal;font-variant:normal;font-weight:bold;font-stretch:normal;font-size:105.832px;font-family:Ubuntu;-inkscape-font-specification:'Ubuntu Bold';stroke-width:0.292778"
         x="236.36639"
         y="360.71719"><tspan
           style="letter-spacing:5.29164px;stroke-width:0.292778"
           id="tspan144737">U</tspan><tspan
           style="font-style:normal;font-variant:normal;font-weight:600;font-stretch:normal;font-size:92.6037px;font-family:Barlow;-inkscape-font-specification:'Barlow Semi-Bold';stroke-width:0.292778"
           id="tspan144741">npool<tspan
   style="font-size:66.1455px;fill:#37abc8;fill-opacity:1;stroke-width:0.292778"
   id="tspan144739">.fi</tspan></tspan></tspan></text>
    <path
       id="path144747"
       style="fill:#37abc8;fill-opacity:1;stroke-width:0.164914"
       d="m 273.77837,325.56546 a 40.362231,40.362231 0 0 1 -33.6352,18.08096 40.362231,40.362231 0 0 1 -5.38163,-0.40833 v 27.31645 h 78.03365 v -27.31645 a 40.362231,40.362231 0 0 1 -5.38163,0.40833 40.362231,40.362231 0 0 1 -33.63519,-18.08096 z"
       inkscape:export-filename="/home/dgleason/unpool_blue.png"
       inkscape:export-xdpi="100.04632"
       inkscape:export-ydpi="100.04632" />
    <g
       aria-label="U"
       id="g144751"
       style="font-size:105.833px;line-height:1.25;font-family:Ubuntu;-inkscape-font-specification:Ubuntu;stroke-width:0.292779"
       transform="translate(60.533572,-132.27781)"
       inkscape:export-filename="/home/dgleason/unpool_blue.png"
       inkscape:export-xdpi="100.04632"
       inkscape:export-ydpi="100.04632">
      <path
         id="path144749"
         style="font-weight:bold;-inkscape-font-specification:'Ubuntu Bold';fill:#ffffff;stroke-width:1.10657"
         d="m 554.66211,1776.9531 c -2.30163,10.3346 -6.32594,18.3242 -12.09766,23.9356 -9.33329,9.3333 -21.60083,14 -36.80078,14 -7.46666,0 -14.39885,-1.0659 -20.79883,-3.1992 -6.13331,-2.1334 -11.46668,-5.6005 -16,-10.4004 -4.26665,-5.0667 -7.73373,-11.4659 -10.40039,-19.1993 -0.49103,-1.6367 -0.91802,-3.3581 -1.30859,-5.1289 a 152.55016,152.55016 0 0 1 -59.92774,20.6309 c 0.50671,1.9237 1.04909,3.8242 1.63672,5.6973 4.53332,13.3333 11.33376,24.9341 20.40039,34.8007 9.33332,9.6 21.06596,17.1989 35.19922,22.7989 14.13329,5.3333 30.93379,8 50.40039,8 19.73327,0 36.79925,-2.6667 51.19922,-8 14.39995,-5.3333 26.26632,-12.7985 35.59961,-22.3985 9.33332,-9.8666 16.26747,-21.6012 20.80078,-35.2011 0.62736,-1.8821 1.20751,-3.7915 1.74805,-5.7246 a 152.55016,152.55016 0 0 1 -59.65039,-20.6114 z"
         transform="matrix(0.26458333,0,0,0.26458333,79.375004,0)" />
    </g>
    <rect
       style="fill:#404040;fill-opacity:1;stroke:none;stroke-width:0.520879;stroke-linecap:round;stroke-linejoin:round"
       id="rect145164"
       width="16.549999"
       height="16.549999"
       x="334.35785"
       y="97.03389" />
    <path
       id="path889"
       style="fill:#37abc8;fill-opacity:1;stroke-width:0.164914"
       d="m 273.77837,325.56546 a 40.362231,40.362231 0 0 1 -33.6352,18.08096 40.362231,40.362231 0 0 1 -5.38163,-0.40833 v 27.31645 h 78.03365 v -27.31645 a 40.362231,40.362231 0 0 1 -5.38163,0.40833 40.362231,40.362231 0 0 1 -33.63519,-18.08096 z"
       inkscape:export-filename="/home/dgleason/unpool_blue.png"
       inkscape:export-xdpi="100.04632"
       inkscape:export-ydpi="100.04632" />
    <g
       aria-label="U"
       id="g893"
       style="font-size:105.833px;line-height:1.25;font-family:Ubuntu;-inkscape-font-specification:Ubuntu;stroke-width:0.292779"
       transform="translate(60.533572,-132.27781)"
       inkscape:export-filename="/home/dgleason/unpool_blue.png"
       inkscape:export-xdpi="100.04632"
       inkscape:export-ydpi="100.04632">
      <path
         id="path891"
         style="font-weight:bold;-inkscape-font-specification:'Ubuntu Bold';fill:#ffffff;stroke-width:1.10657"
         d="m 554.66211,1776.9531 c -2.30163,10.3346 -6.32594,18.3242 -12.09766,23.9356 -9.33329,9.3333 -21.60083,14 -36.80078,14 -7.46666,0 -14.39885,-1.0659 -20.79883,-3.1992 -6.13331,-2.1334 -11.46668,-5.6005 -16,-10.4004 -4.26665,-5.0667 -7.73373,-11.4659 -10.40039,-19.1993 -0.49103,-1.6367 -0.91802,-3.3581 -1.30859,-5.1289 a 152.55016,152.55016 0 0 1 -59.92774,20.6309 c 0.50671,1.9237 1.04909,3.8242 1.63672,5.6973 4.53332,13.3333 11.33376,24.9341 20.40039,34.8007 9.33332,9.6 21.06596,17.1989 35.19922,22.7989 14.13329,5.3333 30.93379,8 50.40039,8 19.73327,0 36.79925,-2.6667 51.19922,-8 14.39995,-5.3333 26.26632,-12.7985 35.59961,-22.3985 9.33332,-9.8666 16.26747,-21.6012 20.80078,-35.2011 0.62736,-1.8821 1.20751,-3.7915 1.74805,-5.7246 a 152.55016,152.55016 0 0 1 -59.65039,-20.6114 z"
         transform="matrix(0.26458333,0,0,0.26458333,79.375004,0)" />
    </g>
    <path
       id="path895"
       style="fill:#ffffff;stroke-width:1.34298;stroke-linecap:round;stroke-linejoin:round"
       d="M 216.61885,395.4367 H 630.61562 V 511.71483 H 216.61885 Z"
       inkscape:export-filename="/home/dgleason/unpool_blue.png"
       inkscape:export-xdpi="200.02299"
       inkscape:export-ydpi="200.02299" />
    <text
       xml:space="preserve"
       style="font-size:105.832px;line-height:1.25;font-family:Ubuntu;-inkscape-font-specification:Ubuntu;letter-spacing:2.64582px;stroke-width:0.292778"
       x="234.55099"
       y="485.32788"
       id="text905"
       inkscape:export-filename="/home/dgleason/unpool_blue.png"
       inkscape:export-xdpi="200.02299"
       inkscape:export-ydpi="200.02299"><tspan
         sodipodi:role="line"
         id="tspan903"
         style="font-style:normal;font-variant:normal;font-weight:bold;font-stretch:normal;font-size:105.832px;font-family:Ubuntu;-inkscape-font-specification:'Ubuntu Bold';stroke-width:0.292778"
         x="234.55099"
         y="485.32788"><tspan
           style="letter-spacing:5.29164px;stroke-width:0.292778"
           id="tspan897">U</tspan><tspan
           style="font-style:normal;font-variant:normal;font-weight:600;font-stretch:normal;font-size:92.6037px;font-family:Barlow;-inkscape-font-specification:'Barlow Semi-Bold';stroke-width:0.292778"
           id="tspan901">npool<tspan
   style="font-size:66.1455px;fill:#37abc8;fill-opacity:1;stroke-width:0.292778"
   id="tspan899">.fi</tspan></tspan></tspan></text>
    <path
       id="path907"
       style="fill:#37abc8;fill-opacity:1;stroke-width:0.164914"
       d="m 271.96296,450.17615 a 40.362231,40.362231 0 0 1 -33.6352,18.08096 40.362231,40.362231 0 0 1 -5.38163,-0.40833 v 27.31645 h 78.03365 v -27.31645 a 40.362231,40.362231 0 0 1 -5.38163,0.40833 40.362231,40.362231 0 0 1 -33.63519,-18.08096 z"
       inkscape:export-filename="/home/dgleason/unpool_blue.png"
       inkscape:export-xdpi="200.02299"
       inkscape:export-ydpi="200.02299" />
    <g
       aria-label="U"
       id="g911"
       style="font-size:105.833px;line-height:1.25;font-family:Ubuntu;-inkscape-font-specification:Ubuntu;stroke-width:0.292779"
       transform="translate(58.718169,-7.6671167)"
       inkscape:export-filename="/home/dgleason/unpool_blue.png"
       inkscape:export-xdpi="200.02299"
       inkscape:export-ydpi="200.02299">
      <path
         id="path909"
         style="font-weight:bold;-inkscape-font-specification:'Ubuntu Bold';fill:#ffffff;stroke-width:1.10657"
         d="m 554.66211,1776.9531 c -2.30163,10.3346 -6.32594,18.3242 -12.09766,23.9356 -9.33329,9.3333 -21.60083,14 -36.80078,14 -7.46666,0 -14.39885,-1.0659 -20.79883,-3.1992 -6.13331,-2.1334 -11.46668,-5.6005 -16,-10.4004 -4.26665,-5.0667 -7.73373,-11.4659 -10.40039,-19.1993 -0.49103,-1.6367 -0.91802,-3.3581 -1.30859,-5.1289 a 152.55016,152.55016 0 0 1 -59.92774,20.6309 c 0.50671,1.9237 1.04909,3.8242 1.63672,5.6973 4.53332,13.3333 11.33376,24.9341 20.40039,34.8007 9.33332,9.6 21.06596,17.1989 35.19922,22.7989 14.13329,5.3333 30.93379,8 50.40039,8 19.73327,0 36.79925,-2.6667 51.19922,-8 14.39995,-5.3333 26.26632,-12.7985 35.59961,-22.3985 9.33332,-9.8666 16.26747,-21.6012 20.80078,-35.2011 0.62736,-1.8821 1.20751,-3.7915 1.74805,-5.7246 a 152.55016,152.55016 0 0 1 -59.65039,-20.6114 z"
         transform="matrix(0.26458333,0,0,0.26458333,79.375004,0)" />
    </g>
    <path
       id="path923"
       style="fill:#808080;fill-opacity:1;stroke-width:0.164914"
       d="m 271.96296,450.17615 a 40.362231,40.362231 0 0 1 -33.6352,18.08096 40.362231,40.362231 0 0 1 -5.38163,-0.40833 v 27.31645 h 78.03365 v -27.31645 a 40.362231,40.362231 0 0 1 -5.38163,0.40833 40.362231,40.362231 0 0 1 -33.63519,-18.08096 z"
       inkscape:export-filename="/home/dgleason/unpool_blue.png"
       inkscape:export-xdpi="200.02299"
       inkscape:export-ydpi="200.02299" />
    <g
       aria-label="U"
       id="g927"
       style="font-size:105.833px;line-height:1.25;font-family:Ubuntu;-inkscape-font-specification:Ubuntu;stroke-width:0.292779"
       transform="translate(58.718169,-7.6671167)"
       inkscape:export-filename="/home/dgleason/unpool_blue.png"
       inkscape:export-xdpi="200.02299"
       inkscape:export-ydpi="200.02299">
      <path
         id="path925"
         style="font-weight:bold;-inkscape-font-specification:'Ubuntu Bold';fill:#ffffff;stroke-width:1.10657"
         d="m 554.66211,1776.9531 c -2.30163,10.3346 -6.32594,18.3242 -12.09766,23.9356 -9.33329,9.3333 -21.60083,14 -36.80078,14 -7.46666,0 -14.39885,-1.0659 -20.79883,-3.1992 -6.13331,-2.1334 -11.46668,-5.6005 -16,-10.4004 -4.26665,-5.0667 -7.73373,-11.4659 -10.40039,-19.1993 -0.49103,-1.6367 -0.91802,-3.3581 -1.30859,-5.1289 a 152.55016,152.55016 0 0 1 -59.92774,20.6309 c 0.50671,1.9237 1.04909,3.8242 1.63672,5.6973 4.53332,13.3333 11.33376,24.9341 20.40039,34.8007 9.33332,9.6 21.06596,17.1989 35.19922,22.7989 14.13329,5.3333 30.93379,8 50.40039,8 19.73327,0 36.79925,-2.6667 51.19922,-8 14.39995,-5.3333 26.26632,-12.7985 35.59961,-22.3985 9.33332,-9.8666 16.26747,-21.6012 20.80078,-35.2011 0.62736,-1.8821 1.20751,-3.7915 1.74805,-5.7246 a 152.55016,152.55016 0 0 1 -59.65039,-20.6114 z"
         transform="matrix(0.26458333,0,0,0.26458333,79.375004,0)" />
    </g>
    <path
       id="path929"
       style="fill:#ffffff;stroke-width:1.34298;stroke-linecap:round;stroke-linejoin:round"
       d="M 216.67608,519.55203 H 630.67285 V 635.83016 H 216.67608 Z"
       inkscape:export-filename="/home/dgleason/unpool_blue.png"
       inkscape:export-xdpi="200.02299"
       inkscape:export-ydpi="200.02299" />
    <text
       xml:space="preserve"
       style="font-size:105.832px;line-height:1.25;font-family:Ubuntu;-inkscape-font-specification:Ubuntu;letter-spacing:2.64582px;stroke-width:0.292778"
       x="234.60822"
       y="609.44324"
       id="text939"
       inkscape:export-filename="/home/dgleason/unpool_blue.png"
       inkscape:export-xdpi="200.02299"
       inkscape:export-ydpi="200.02299"><tspan
         sodipodi:role="line"
         id="tspan937"
         style="font-style:normal;font-variant:normal;font-weight:bold;font-stretch:normal;font-size:105.832px;font-family:Ubuntu;-inkscape-font-specification:'Ubuntu Bold';stroke-width:0.292778"
         x="234.60822"
         y="609.44324"><tspan
           style="letter-spacing:5.29164px;stroke-width:0.292778"
           id="tspan931">U</tspan><tspan
           style="font-style:normal;font-variant:normal;font-weight:600;font-stretch:normal;font-size:92.6037px;font-family:Barlow;-inkscape-font-specification:'Barlow Semi-Bold';stroke-width:0.292778"
           id="tspan935">npool<tspan
   style="font-size:66.1455px;fill:#37abc8;fill-opacity:1;stroke-width:0.292778"
   id="tspan933">.fi</tspan></tspan></tspan></text>
    <path
       id="path941"
       style="fill:#37abc8;fill-opacity:1;stroke-width:0.164914"
       d="m 272.02019,574.29148 a 40.362231,40.362231 0 0 1 -33.6352,18.08096 40.362231,40.362231 0 0 1 -5.38163,-0.40833 v 27.31645 h 78.03365 v -27.31645 a 40.362231,40.362231 0 0 1 -5.38163,0.40833 40.362231,40.362231 0 0 1 -33.63519,-18.08096 z"
       inkscape:export-filename="/home/dgleason/unpool_blue.png"
       inkscape:export-xdpi="200.02299"
       inkscape:export-ydpi="200.02299" />
    <g
       aria-label="U"
       id="g945"
       style="font-size:105.833px;line-height:1.25;font-family:Ubuntu;-inkscape-font-specification:Ubuntu;stroke-width:0.292779"
       transform="translate(58.775396,116.44822)"
       inkscape:export-filename="/home/dgleason/unpool_blue.png"
       inkscape:export-xdpi="200.02299"
       inkscape:export-ydpi="200.02299">
      <path
         id="path943"
         style="font-weight:bold;-inkscape-font-specification:'Ubuntu Bold';fill:#ffffff;stroke-width:1.10657"
         d="m 554.66211,1776.9531 c -2.30163,10.3346 -6.32594,18.3242 -12.09766,23.9356 -9.33329,9.3333 -21.60083,14 -36.80078,14 -7.46666,0 -14.39885,-1.0659 -20.79883,-3.1992 -6.13331,-2.1334 -11.46668,-5.6005 -16,-10.4004 -4.26665,-5.0667 -7.73373,-11.4659 -10.40039,-19.1993 -0.49103,-1.6367 -0.91802,-3.3581 -1.30859,-5.1289 a 152.55016,152.55016 0 0 1 -59.92774,20.6309 c 0.50671,1.9237 1.04909,3.8242 1.63672,5.6973 4.53332,13.3333 11.33376,24.9341 20.40039,34.8007 9.33332,9.6 21.06596,17.1989 35.19922,22.7989 14.13329,5.3333 30.93379,8 50.40039,8 19.73327,0 36.79925,-2.6667 51.19922,-8 14.39995,-5.3333 26.26632,-12.7985 35.59961,-22.3985 9.33332,-9.8666 16.26747,-21.6012 20.80078,-35.2011 0.62736,-1.8821 1.20751,-3.7915 1.74805,-5.7246 a 152.55016,152.55016 0 0 1 -59.65039,-20.6114 z"
         transform="matrix(0.26458333,0,0,0.26458333,79.375004,0)" />
    </g>
    <path
       id="path957"
       style="fill:#000000;fill-opacity:1;stroke-width:0.164914"
       d="m 272.02019,574.29148 a 40.362231,40.362231 0 0 1 -33.6352,18.08096 40.362231,40.362231 0 0 1 -5.38163,-0.40833 v 27.31645 h 78.03365 v -27.31645 a 40.362231,40.362231 0 0 1 -5.38163,0.40833 40.362231,40.362231 0 0 1 -33.63519,-18.08096 z"
       inkscape:export-filename="/home/dgleason/unpool_blue.png"
       inkscape:export-xdpi="200.02299"
       inkscape:export-ydpi="200.02299" />
    <g
       aria-label="U"
       id="g961"
       style="font-size:105.833px;line-height:1.25;font-family:Ubuntu;-inkscape-font-specification:Ubuntu;stroke-width:0.292779"
       transform="translate(58.775396,116.44822)"
       inkscape:export-filename="/home/dgleason/unpool_blue.png"
       inkscape:export-xdpi="200.02299"
       inkscape:export-ydpi="200.02299">
      <path
         id="path959"
         style="font-weight:bold;-inkscape-font-specification:'Ubuntu Bold';fill:#ffffff;stroke-width:1.10657"
         d="m 554.66211,1776.9531 c -2.30163,10.3346 -6.32594,18.3242 -12.09766,23.9356 -9.33329,9.3333 -21.60083,14 -36.80078,14 -7.46666,0 -14.39885,-1.0659 -20.79883,-3.1992 -6.13331,-2.1334 -11.46668,-5.6005 -16,-10.4004 -4.26665,-5.0667 -7.73373,-11.4659 -10.40039,-19.1993 -0.49103,-1.6367 -0.91802,-3.3581 -1.30859,-5.1289 a 152.55016,152.55016 0 0 1 -59.92774,20.6309 c 0.50671,1.9237 1.04909,3.8242 1.63672,5.6973 4.53332,13.3333 11.33376,24.9341 20.40039,34.8007 9.33332,9.6 21.06596,17.1989 35.19922,22.7989 14.13329,5.3333 30.93379,8 50.40039,8 19.73327,0 36.79925,-2.6667 51.19922,-8 14.39995,-5.3333 26.26632,-12.7985 35.59961,-22.3985 9.33332,-9.8666 16.26747,-21.6012 20.80078,-35.2011 0.62736,-1.8821 1.20751,-3.7915 1.74805,-5.7246 a 152.55016,152.55016 0 0 1 -59.65039,-20.6114 z"
         transform="matrix(0.26458333,0,0,0.26458333,79.375004,0)" />
    </g>
  </g>
</svg>
