<?xml version="1.0" encoding="UTF-8" standalone="no"?>
<!-- Created with Inkscape (http://www.inkscape.org/) -->

<svg
   width="357.20673mm"
   height="117.17291mm"
   viewBox="0 0 357.20673 117.17291"
   version="1.1"
   id="svg25743"
   xmlns="http://www.w3.org/2000/svg"
   xmlns:svg="http://www.w3.org/2000/svg">
  <defs
     id="defs25740" />
  <g
     id="layer1"
     transform="translate(-36.086297,-64.689425)">
    <path
       d="m 73.203341,135.42522 q -7.200442,0 -12.428161,-1.97273 -5.227719,-2.07136 -8.679986,-5.62226 -3.35363,-3.64954 -5.030446,-8.58135 -1.578179,-5.03044 -1.578179,-11.04725 V 65.689425 h 15.387247 v 41.229935 q 0,4.14272 0.887726,7.1018 0.986362,2.86045 2.564541,4.73454 1.676816,1.77545 3.945448,2.56454 2.367269,0.78909 5.129083,0.78909 5.622263,0 9.07453,-3.45227 3.550903,-3.45226 3.550903,-11.7377 V 65.689425 h 15.387243 v 42.512205 q 0,6.01681 -1.676811,11.04725 -1.676815,5.03045 -5.129082,8.67999 -3.452267,3.5509 -8.778622,5.52362 -5.326355,1.97273 -12.625434,1.97273 z"
       style="font-size:98.6362px;line-height:1.25;font-family:Ubuntu;-inkscape-font-specification:Ubuntu;letter-spacing:4.93185px;stroke-width:0.272871"
       id="path25942" />
    <path
       d="m 139.74593,89.250769 q 7.07721,0 11.21997,4.142755 4.22906,4.142756 4.22906,11.306266 v 27.9636 q 0,1.38092 -1.38092,1.38092 h -7.24982 q -1.38092,0 -1.38092,-1.38092 v -25.89222 q 0,-3.97014 -2.3303,-6.38675 -2.24399,-2.502911 -5.95521,-2.502911 -3.71122,0 -6.04152,2.416611 -2.24399,2.4166 -2.24399,6.38674 v 25.97853 q 0,1.38092 -1.38092,1.38092 h -7.24982 q -1.38092,0 -1.38092,-1.38092 V 91.322147 q 0,-1.380919 1.38092,-1.380919 h 7.24982 q 1.38092,0 1.38092,1.380919 v 2.3303 q 0,0.345229 0.17261,0.431537 0.17262,0.08631 0.34523,-0.172615 3.62491,-4.6606 10.61581,-4.6606 z"
       style="font-weight:600;font-size:86.3074px;line-height:1.25;font-family:Barlow;-inkscape-font-specification:'Barlow Semi-Bold';letter-spacing:2.46592px;stroke-width:0.272871"
       id="path25944" />
    <path
       d="m 205.47507,101.33381 q 1.55353,4.7469 1.55353,10.78842 0,6.12783 -1.46722,10.5295 -1.89876,5.69629 -6.12783,8.88967 -4.22906,3.19337 -10.5295,3.19337 -6.04152,0 -9.83904,-4.22906 -0.17262,-0.25892 -0.43154,-0.17262 -0.17262,0 -0.17262,0.34523 v 18.29717 q 0,1.38092 -1.38091,1.38092 h -7.24983 q -1.38091,0 -1.38091,-1.38092 V 91.322147 q 0,-1.380919 1.38091,-1.380919 h 7.24983 q 1.38091,0 1.38091,1.380919 v 2.243992 q 0,0.34523 0.17262,0.431537 0.25892,0.08631 0.43154,-0.258922 3.71121,-4.487985 9.83904,-4.487985 6.04152,0 10.35689,3.279681 4.31537,3.193374 6.21413,8.80336 z m -11.30627,21.14531 q 2.50292,-3.79753 2.50292,-10.5295 0,-6.21414 -2.07138,-9.83905 -2.24399,-4.142753 -7.24982,-4.142753 -4.31537,0 -6.73198,4.056443 -1.98507,3.36599 -1.98507,10.01166 0,6.73198 2.15768,10.27058 2.3303,3.79753 6.47306,3.79753 4.48798,0 6.90459,-3.62491 z"
       style="font-weight:600;font-size:86.3074px;line-height:1.25;font-family:Barlow;-inkscape-font-specification:'Barlow Semi-Bold';letter-spacing:2.46592px;stroke-width:0.272871"
       id="path25946" />
    <path
       d="m 237.19907,134.73477 q -6.81829,0 -11.73781,-3.4523 -4.91952,-3.45229 -6.81829,-9.58012 -1.46722,-4.22906 -1.46722,-9.83904 0,-5.52368 1.38092,-9.83905 1.98507,-6.041513 6.90459,-9.407502 4.91952,-3.365989 11.82411,-3.365989 6.55937,0 11.30627,3.365989 4.83322,3.365989 6.81829,9.321202 1.55353,4.14275 1.55353,9.83904 0,5.43737 -1.46722,9.83905 -1.98507,6.12782 -6.81829,9.66642 -4.83321,3.4523 -11.47888,3.4523 z m 0,-8.63074 q 3.19337,0 5.43736,-1.81246 2.3303,-1.81245 3.27968,-5.09213 0.94939,-2.76184 0.94939,-7.24982 0,-4.22907 -0.86308,-7.24983 -0.94938,-3.27968 -3.36599,-5.005825 -2.3303,-1.812456 -5.60998,-1.812456 -3.27968,0 -5.60998,1.812456 -2.3303,1.726145 -3.27968,5.005825 -0.86308,3.02076 -0.86308,7.24983 0,4.22906 0.86308,7.24982 0.94938,3.27968 3.27968,5.09213 2.41661,1.81246 5.7826,1.81246 z"
       style="font-weight:600;font-size:86.3074px;line-height:1.25;font-family:Barlow;-inkscape-font-specification:'Barlow Semi-Bold';letter-spacing:2.46592px;stroke-width:0.272871"
       id="path25948" />
    <path
       d="m 287.73814,134.73477 q -6.81828,0 -11.7378,-3.4523 -4.91952,-3.45229 -6.81829,-9.58012 -1.46722,-4.22906 -1.46722,-9.83904 0,-5.52368 1.38091,-9.83905 1.98508,-6.041513 6.9046,-9.407502 4.91952,-3.365989 11.82411,-3.365989 6.55936,0 11.30627,3.365989 4.83322,3.365989 6.81829,9.321202 1.55353,4.14275 1.55353,9.83904 0,5.43737 -1.46723,9.83905 -1.98507,6.12782 -6.81828,9.66642 -4.83322,3.4523 -11.47889,3.4523 z m 0,-8.63074 q 3.19338,0 5.43737,-1.81246 2.3303,-1.81245 3.27968,-5.09213 0.94938,-2.76184 0.94938,-7.24982 0,-4.22907 -0.86307,-7.24983 -0.94938,-3.27968 -3.36599,-5.005825 -2.3303,-1.812456 -5.60998,-1.812456 -3.27968,0 -5.60998,1.812456 -2.3303,1.726145 -3.27968,5.005825 -0.86308,3.02076 -0.86308,7.24983 0,4.22906 0.86308,7.24982 0.94938,3.27968 3.27968,5.09213 2.41661,1.81246 5.78259,1.81246 z"
       style="font-weight:600;font-size:86.3074px;line-height:1.25;font-family:Barlow;-inkscape-font-specification:'Barlow Semi-Bold';letter-spacing:2.46592px;stroke-width:0.272871"
       id="path25950" />
    <path
       d="m 320.92943,134.04431 q -1.38091,0 -1.38091,-1.38092 V 75.010047 q 0,-1.380918 1.38091,-1.380918 h 7.24983 q 1.38091,0 1.38091,1.380918 v 57.653343 q 0,1.38092 -1.38091,1.38092 z"
       style="font-weight:600;font-size:86.3074px;line-height:1.25;font-family:Barlow;-inkscape-font-specification:'Barlow Semi-Bold';letter-spacing:2.46592px;stroke-width:0.272871"
       id="path25952" />
    <path
       d="m 345.74879,134.10596 q -2.15768,0 -3.57559,-1.35626 -1.35626,-1.35626 -1.35626,-3.39064 0,-1.9111 1.47956,-3.26735 1.5412,-1.41791 3.45229,-1.41791 1.97274,0 3.51394,1.41791 1.54121,1.35625 1.54121,3.26735 0,1.97274 -1.47956,3.39064 -1.4179,1.35626 -3.57559,1.35626 z"
       style="font-size:61.6481px;line-height:1.25;font-family:Ubuntu;-inkscape-font-specification:Ubuntu;letter-spacing:2.46592px;fill:#37abc8;stroke-width:0.272871"
       id="path25954" />
    <path
       d="m 376.63439,102.48048 q 0.98637,0 0.98637,0.98637 v 4.37702 q 0,0.98637 -0.98637,0.98637 h -5.79492 q -0.36989,0 -0.36989,0.36989 v 23.85781 q 0,0.98637 -0.98637,0.98637 h -5.17844 q -0.98637,0 -0.98637,-0.98637 v -23.85781 q 0,-0.36989 -0.36989,-0.36989 h -3.51394 q -0.98637,0 -0.98637,-0.98637 v -4.37702 q 0,-0.98637 0.98637,-0.98637 h 3.51394 q 0.36989,0 0.36989,-0.36989 v -1.04801 q 0,-4.00713 1.04802,-6.164813 1.04801,-2.219332 3.45229,-3.144053 2.40428,-0.924722 6.78129,-0.863074 h 1.91109 q 0.98637,0 0.98637,0.98637 v 3.822182 q 0,0.98637 -0.98637,0.98637 h -1.35626 q -2.65086,0 -3.69888,1.048018 -0.98637,1.048017 -0.98637,3.82218 v 0.55483 q 0,0.36989 0.36989,0.36989 z m 11.09666,-3.883827 q -2.03439,0 -3.329,-1.232962 -1.29461,-1.29461 -1.29461,-3.267349 0,-1.97274 1.29461,-3.205702 1.29461,-1.232962 3.329,-1.232962 2.03438,0 3.26735,1.232962 1.29461,1.232962 1.29461,3.205702 0,1.972739 -1.29461,3.267349 -1.23297,1.232962 -3.26735,1.232962 z m -2.58922,35.447657 q -0.98637,0 -0.98637,-0.98637 V 103.5285 q 0,-0.98637 0.98637,-0.98637 h 5.17844 q 0.98637,0 0.98637,0.98637 v 29.52944 q 0,0.98637 -0.98637,0.98637 z"
       style="font-size:61.6481px;line-height:1.25;font-family:Ubuntu;-inkscape-font-specification:Ubuntu;letter-spacing:2.46592px;fill:#37abc8;stroke-width:0.272871"
       id="path25956" />
    <path
       id="path144747-9"
       style="fill:#37abc8;fill-opacity:1;stroke-width:0.153701"
       d="m 73.450277,101.28263 a 37.617908,37.617908 0 0 1 -31.34826,16.85159 37.617908,37.617908 0 0 1 -5.01572,-0.38056 v 25.45914 h 72.727953 v -25.45914 a 37.617908,37.617908 0 0 1 -5.01572,0.38056 37.617908,37.617908 0 0 1 -31.348253,-16.85159 z" />
    <path
       id="path144749-3"
       style="font-weight:bold;font-size:105.833px;line-height:1.25;font-family:Ubuntu;-inkscape-font-specification:'Ubuntu Bold';fill:#ffffff;stroke-width:0.272873"
       d="m 85.458781,112.7546 c -0.567568,2.54845 -1.559937,4.51864 -2.983207,5.90237 -2.30153,2.30153 -5.326628,3.45231 -9.074839,3.45231 -1.841232,0 -3.550666,-0.26284 -5.12886,-0.7889 -1.512436,-0.52608 -2.827611,-1.38105 -3.945499,-2.56467 -1.052129,-1.24942 -1.907089,-2.82742 -2.564671,-4.73443 -0.121085,-0.4036 -0.226378,-0.82808 -0.32269,-1.26475 a 37.617905,37.617905 0 0 1 -14.777802,5.08745 c 0.124952,0.47437 0.258699,0.94302 0.403605,1.40492 1.117888,3.2879 2.794834,6.14859 5.030607,8.58163 2.301538,2.3673 5.194733,4.24114 8.679906,5.62206 3.48518,1.31516 7.628077,1.97275 12.428417,1.97275 4.8661,0 9.074463,-0.65759 12.625404,-1.97275 3.550937,-1.31516 6.477109,-3.15603 8.778639,-5.52333 2.301538,-2.43304 4.011455,-5.32672 5.129341,-8.68036 0.154703,-0.46412 0.297768,-0.93496 0.431058,-1.41165 A 37.617905,37.617905 0 0 1 85.458781,112.7546 Z" />
    <path
       id="path889-6"
       style="fill:#37abc8;fill-opacity:1;stroke-width:0.153701"
       d="m 73.450277,101.28263 a 37.617908,37.617908 0 0 1 -31.34826,16.85159 37.617908,37.617908 0 0 1 -5.01572,-0.38056 v 25.45914 h 72.727953 v -25.45914 a 37.617908,37.617908 0 0 1 -5.01572,0.38056 37.617908,37.617908 0 0 1 -31.348253,-16.85159 z" />
    <path
       id="path891-2"
       style="font-weight:bold;font-size:105.833px;line-height:1.25;font-family:Ubuntu;-inkscape-font-specification:'Ubuntu Bold';fill:#ffffff;stroke-width:0.272873"
       d="m 85.458781,112.7546 c -0.567568,2.54845 -1.559937,4.51864 -2.983207,5.90237 -2.30153,2.30153 -5.326628,3.45231 -9.074839,3.45231 -1.841232,0 -3.550666,-0.26284 -5.12886,-0.7889 -1.512436,-0.52608 -2.827611,-1.38105 -3.945499,-2.56467 -1.052129,-1.24942 -1.907089,-2.82742 -2.564671,-4.73443 -0.121085,-0.4036 -0.226378,-0.82808 -0.32269,-1.26475 a 37.617905,37.617905 0 0 1 -14.777802,5.08745 c 0.124952,0.47437 0.258699,0.94302 0.403605,1.40492 1.117888,3.2879 2.794834,6.14859 5.030607,8.58163 2.301538,2.3673 5.194733,4.24114 8.679906,5.62206 3.48518,1.31516 7.628077,1.97275 12.428417,1.97275 4.8661,0 9.074463,-0.65759 12.625404,-1.97275 3.550937,-1.31516 6.477109,-3.15603 8.778639,-5.52333 2.301538,-2.43304 4.011455,-5.32672 5.129341,-8.68036 0.154703,-0.46412 0.297768,-0.93496 0.431058,-1.41165 A 37.617905,37.617905 0 0 1 85.458781,112.7546 Z" />
    <path
       d="m 42.163485,176.30662 q -0.385307,0 -0.385307,-0.38531 v -5.59828 l -0.04533,-0.18132 -4.57835,-9.22469 q -0.06799,-0.11333 -0.06799,-0.20399 0,-0.11332 0.09066,-0.18132 0.09066,-0.068 0.249316,-0.068 h 2.629152 q 0.317311,0 0.453302,0.29465 l 2.765142,5.89293 q 0.04533,0.068 0.09066,0.068 0.068,0 0.09066,-0.068 l 2.765142,-5.89293 q 0.158656,-0.29465 0.453302,-0.29465 h 2.651817 q 0.339976,0 0.339976,0.27199 0,0.11332 -0.04533,0.18132 l -4.623681,9.22469 -0.04533,0.18132 v 5.59828 q 0,0.38531 -0.385306,0.38531 z"
       style="font-weight:bold;font-size:22.6651px;line-height:1.25;font-family:Barlow;-inkscape-font-specification:Barlow;stroke-width:0.566628"
       id="path25877" />
    <path
       d="m 54.923895,176.51061 q -1.926533,0 -3.286439,-0.99727 -1.359906,-0.99726 -1.858538,-2.71981 -0.317312,-1.06526 -0.317312,-2.31184 0,-1.38257 0.339977,-2.4025 0.521297,-1.67722 1.858538,-2.62915 1.359906,-0.95194 3.286439,-0.95194 1.858539,0 3.173114,0.95194 1.337241,0.95193 1.858539,2.60648 0.339976,1.0426 0.339976,2.37984 0,1.17858 -0.294646,2.28917 -0.521298,1.76788 -1.881204,2.78781 -1.33724,0.99727 -3.218444,0.99727 z m 0,-2.74248 q 0.725283,0 1.246581,-0.4533 0.521297,-0.45331 0.747948,-1.24658 0.181321,-0.61196 0.181321,-1.58656 0,-0.95194 -0.181321,-1.60922 -0.226651,-0.77062 -0.747948,-1.20125 -0.521298,-0.43064 -1.291911,-0.43064 -0.747948,0 -1.269246,0.43064 -0.521297,0.43063 -0.747948,1.20125 -0.181321,0.65728 -0.181321,1.60922 0,0.92927 0.181321,1.58656 0.226651,0.79327 0.747948,1.24658 0.543963,0.4533 1.314576,0.4533 z"
       style="font-weight:bold;font-size:22.6651px;line-height:1.25;font-family:Barlow;-inkscape-font-specification:Barlow;stroke-width:0.566628"
       id="path25879" />
    <path
       d="m 69.180226,165.06473 q 0,-0.38531 0.385306,-0.38531 h 2.425166 q 0.385307,0 0.385307,0.38531 v 10.87925 q 0,0.3853 -0.385307,0.3853 h -2.425166 q -0.385306,0 -0.385306,-0.3853 v -0.61196 q 0,-0.0907 -0.068,-0.0907 -0.04533,-0.0227 -0.09066,0.0453 -0.883939,1.20125 -2.787807,1.20125 -1.722548,0 -2.833138,-1.04259 -1.11059,-1.0426 -1.11059,-2.9238 v -7.45682 q 0,-0.38531 0.385307,-0.38531 h 2.4025 q 0.385307,0 0.385307,0.38531 v 6.66354 q 0,0.9066 0.475967,1.47323 0.498632,0.56663 1.359906,0.56663 0.770614,0 1.269246,-0.4533 0.498632,-0.47597 0.611958,-1.22392 z"
       style="font-weight:bold;font-size:22.6651px;line-height:1.25;font-family:Barlow;-inkscape-font-specification:Barlow;stroke-width:0.566628"
       id="path25881" />
    <path
       d="m 80.535397,164.52077 q 0.725283,0 1.20125,0.27198 0.271982,0.13599 0.203986,0.47597 l -0.430637,2.37983 q -0.02267,0.20399 -0.13599,0.24932 -0.09066,0.0453 -0.317312,0 -0.362641,-0.0907 -0.657287,-0.0907 -0.158656,0 -0.521298,0.0453 -0.815943,0.068 -1.382571,0.61195 -0.566627,0.5213 -0.566627,1.40524 v 6.07425 q 0,0.3853 -0.385307,0.3853 h -2.425166 q -0.385306,0 -0.385306,-0.3853 v -10.87925 q 0,-0.38531 0.385306,-0.38531 h 2.425166 q 0.385307,0 0.385307,0.38531 v 0.70262 q 0,0.0907 0.04533,0.11332 0.04533,0.0227 0.113325,-0.0453 0.906604,-1.31457 2.447831,-1.31457 z"
       style="font-weight:bold;font-size:22.6651px;line-height:1.25;font-family:Barlow;-inkscape-font-specification:Barlow;stroke-width:0.566628"
       id="path25883" />
    <path
       d="m 88.876115,176.32928 q -0.294646,0 -0.294646,-0.29464 v -15.27628 q 0,-0.29465 0.294646,-0.29465 h 1.01993 q 0.294646,0 0.294646,0.29465 v 9.1567 q 0,0.068 0.04533,0.11333 0.04533,0.0227 0.09066,-0.0453 l 4.737006,-4.96366 q 0.13599,-0.15866 0.362641,-0.15866 h 1.20125 q 0.249317,0 0.249317,0.18132 0,0.068 -0.068,0.18133 l -2.810472,3.10511 q -0.068,0.068 -0.02267,0.15866 l 3.399765,7.50215 q 0.04533,0.0907 0.04533,0.13599 0,0.20398 -0.271981,0.20398 h -1.06526 q -0.226651,0 -0.339976,-0.22665 l -2.878468,-6.55021 q -0.02267,-0.0453 -0.06799,-0.0453 -0.04533,-0.0227 -0.09066,0.0227 l -2.470496,2.58383 q -0.04533,0.0907 -0.04533,0.15865 v 3.76241 q 0,0.29464 -0.294646,0.29464 z"
       id="path25885"
       style="font-size:22.6651px;line-height:1.25;font-family:Barlow;-inkscape-font-specification:Barlow;stroke-width:0.566628" />
    <path
       d="m 103.97104,175.12803 q 1.01993,-0.0227 1.74521,-0.4533 0.74795,-0.4533 1.15592,-1.24658 0.0453,-0.11332 0.15866,-0.15865 0.11332,-0.0453 0.22665,0.0227 l 0.65729,0.36264 q 0.27198,0.15866 0.13599,0.38531 -0.54397,1.13325 -1.63189,1.81321 -1.08793,0.65729 -2.58382,0.65729 -1.58656,0 -2.67448,-0.74795 -1.08793,-0.74795 -1.563895,-2.08519 -0.430637,-1.13326 -0.430637,-3.12779 0,-0.9746 0.02267,-1.54122 0.04533,-0.5893 0.181321,-1.08793 0.385306,-1.47323 1.541221,-2.35717 1.17859,-0.88394 2.83314,-0.88394 1.97187,0 3.08245,1.01993 1.13327,1.01993 1.45057,2.87847 0.13599,0.72528 0.13599,2.26651 0,0.29465 -0.29465,0.29465 h -7.25283 q -0.11333,0 -0.11333,0.11332 0,1.13326 0.136,1.65455 0.24931,1.01993 1.04259,1.63189 0.81594,0.58929 2.03986,0.58929 z m -0.22665,-9.04337 q -1.13326,0 -1.85854,0.58929 -0.72528,0.56663 -0.95193,1.54123 -0.136,0.4533 -0.18133,1.54123 0,0.11332 0.11333,0.11332 h 5.82493 q 0.11333,0 0.11333,-0.11332 -0.0453,-0.99727 -0.13599,-1.45057 -0.24932,-1.01993 -1.01993,-1.60922 -0.74795,-0.61196 -1.90387,-0.61196 z"
       id="path25887"
       style="font-size:22.6651px;line-height:1.25;font-family:Barlow;-inkscape-font-specification:Barlow;stroke-width:0.566628" />
    <path
       d="m 110.79319,180.8623 q -0.15866,0 -0.15866,-0.29464 v -0.79328 q 0,-0.29465 0.15866,-0.29465 h 0.15865 q 0.88394,0 1.35991,-0.24931 0.49863,-0.24932 0.83861,-0.88394 0.36264,-0.63462 0.77061,-1.9492 0.0227,-0.0453 0,-0.13599 l -3.80773,-11.06057 q -0.0227,-0.0453 -0.0227,-0.11332 0,-0.0907 0.068,-0.15866 0.0907,-0.068 0.20398,-0.068 h 1.06526 q 0.27198,0 0.33998,0.24932 l 2.9238,8.88472 q 0.0227,0.0907 0.068,0.0907 0.0453,0 0.068,-0.0907 l 2.8558,-8.88472 q 0.068,-0.24932 0.31731,-0.24932 h 1.08793 q 0.15865,0 0.22665,0.0907 0.068,0.0907 0.0227,0.24932 l -4.17038,12.12583 q -0.54396,1.51856 -1.01993,2.24384 -0.47596,0.72529 -1.20125,0.99727 -0.70261,0.29464 -1.99453,0.29464 z"
       id="path25889"
       style="font-size:22.6651px;line-height:1.25;font-family:Barlow;-inkscape-font-specification:Barlow;stroke-width:0.566628" />
    <path
       d="m 124.82285,176.44261 q -1.26925,0 -2.26651,-0.40797 -0.9746,-0.40797 -1.51856,-1.08793 -0.5213,-0.67995 -0.5213,-1.51856 v -0.20398 q 0,-0.29465 0.29465,-0.29465 h 0.9746 q 0.13599,0 0.20398,0.068 0.0907,0.0453 0.0907,0.136 v 0.20398 q 0,0.74795 0.77062,1.31458 0.77061,0.54396 1.94919,0.54396 1.17859,0 1.90387,-0.5213 0.72529,-0.54396 0.72529,-1.3599 0,-0.56663 -0.36265,-0.92927 -0.36264,-0.36264 -0.88394,-0.56663 -0.52129,-0.20399 -1.56389,-0.5213 -1.26924,-0.36264 -2.08519,-0.72528 -0.81594,-0.36264 -1.38257,-0.99727 -0.56662,-0.65728 -0.56662,-1.65455 0,-1.45056 1.13325,-2.31184 1.15592,-0.86127 3.01446,-0.86127 1.24658,0 2.19851,0.40797 0.9746,0.40797 1.4959,1.13326 0.5213,0.70261 0.5213,1.58655 0,0.29465 -0.29465,0.29465 h -0.92927 q -0.29464,0 -0.29464,-0.15866 v -0.13599 q 0,-0.77061 -0.74795,-1.29191 -0.72529,-0.5213 -1.97187,-0.5213 -1.15592,0 -1.85853,0.47597 -0.70262,0.4533 -0.70262,1.26925 0,0.77061 0.65729,1.17858 0.67995,0.40797 2.10785,0.81595 1.31458,0.36264 2.13052,0.70261 0.81594,0.33998 1.40523,0.99727 0.5893,0.65729 0.5893,1.69988 0,1.47323 -1.15592,2.35717 -1.13326,0.88394 -3.05979,0.88394 z"
       id="path25891"
       style="font-size:22.6651px;line-height:1.25;font-family:Barlow;-inkscape-font-specification:Barlow;stroke-width:0.566628" />
    <path
       d="m 133.23157,176.26129 q -0.61196,0 -1.01993,-0.38531 -0.38531,-0.3853 -0.38531,-0.95193 0,-0.54396 0.40797,-0.92927 0.43064,-0.40797 0.99727,-0.40797 0.54396,0 0.9746,0.40797 0.43063,0.38531 0.43063,0.92927 0,0.56663 -0.40797,0.95193 -0.40797,0.38531 -0.99726,0.38531 z"
       id="path25893"
       style="font-size:22.6651px;line-height:1.25;font-family:Barlow;-inkscape-font-specification:Barlow;stroke-width:0.566628" />
    <path
       d="m 146.69457,176.30662 q -0.38531,0 -0.38531,-0.38531 v -5.59828 l -0.0453,-0.18132 -4.57835,-9.22469 q -0.068,-0.11333 -0.068,-0.20399 0,-0.11332 0.0907,-0.18132 0.0907,-0.068 0.24931,-0.068 h 2.62915 q 0.31731,0 0.4533,0.29465 l 2.76515,5.89293 q 0.0453,0.068 0.0907,0.068 0.068,0 0.0907,-0.068 l 2.76514,-5.89293 q 0.15866,-0.29465 0.4533,-0.29465 h 2.65182 q 0.33998,0 0.33998,0.27199 0,0.11332 -0.0453,0.18132 l -4.62369,9.22469 -0.0453,0.18132 v 5.59828 q 0,0.38531 -0.3853,0.38531 z"
       style="font-weight:bold;font-size:22.6651px;line-height:1.25;font-family:Barlow;-inkscape-font-specification:Barlow;stroke-width:0.566628"
       id="path25895" />
    <path
       d="m 159.45498,176.51061 q -1.92653,0 -3.28644,-0.99727 -1.3599,-0.99726 -1.85854,-2.71981 -0.31731,-1.06526 -0.31731,-2.31184 0,-1.38257 0.33998,-2.4025 0.5213,-1.67722 1.85854,-2.62915 1.3599,-0.95194 3.28644,-0.95194 1.85853,0 3.17311,0.95194 1.33724,0.95193 1.85854,2.60648 0.33998,1.0426 0.33998,2.37984 0,1.17858 -0.29465,2.28917 -0.5213,1.76788 -1.8812,2.78781 -1.33725,0.99727 -3.21845,0.99727 z m 0,-2.74248 q 0.72528,0 1.24658,-0.4533 0.5213,-0.45331 0.74795,-1.24658 0.18132,-0.61196 0.18132,-1.58656 0,-0.95194 -0.18132,-1.60922 -0.22665,-0.77062 -0.74795,-1.20125 -0.5213,-0.43064 -1.29191,-0.43064 -0.74795,0 -1.26924,0.43064 -0.5213,0.43063 -0.74795,1.20125 -0.18132,0.65728 -0.18132,1.60922 0,0.92927 0.18132,1.58656 0.22665,0.79327 0.74795,1.24658 0.54396,0.4533 1.31457,0.4533 z"
       style="font-weight:bold;font-size:22.6651px;line-height:1.25;font-family:Barlow;-inkscape-font-specification:Barlow;stroke-width:0.566628"
       id="path25897" />
    <path
       d="m 173.7113,165.06473 q 0,-0.38531 0.38531,-0.38531 h 2.42517 q 0.3853,0 0.3853,0.38531 v 10.87925 q 0,0.3853 -0.3853,0.3853 h -2.42517 q -0.38531,0 -0.38531,-0.3853 v -0.61196 q 0,-0.0907 -0.068,-0.0907 -0.0453,-0.0227 -0.0907,0.0453 -0.88394,1.20125 -2.78781,1.20125 -1.72255,0 -2.83314,-1.04259 -1.11059,-1.0426 -1.11059,-2.9238 v -7.45682 q 0,-0.38531 0.38531,-0.38531 h 2.4025 q 0.38531,0 0.38531,0.38531 v 6.66354 q 0,0.9066 0.47596,1.47323 0.49864,0.56663 1.35991,0.56663 0.77061,0 1.26925,-0.4533 0.49863,-0.47597 0.61195,-1.22392 z"
       style="font-weight:bold;font-size:22.6651px;line-height:1.25;font-family:Barlow;-inkscape-font-specification:Barlow;stroke-width:0.566628"
       id="path25899" />
    <path
       d="m 185.06649,164.52077 q 0.72528,0 1.20125,0.27198 0.27198,0.13599 0.20398,0.47597 l -0.43063,2.37983 q -0.0227,0.20399 -0.13599,0.24932 -0.0907,0.0453 -0.31732,0 -0.36264,-0.0907 -0.65728,-0.0907 -0.15866,0 -0.5213,0.0453 -0.81594,0.068 -1.38257,0.61195 -0.56663,0.5213 -0.56663,1.40524 v 6.07425 q 0,0.3853 -0.38531,0.3853 h -2.42516 q -0.38531,0 -0.38531,-0.3853 v -10.87925 q 0,-0.38531 0.38531,-0.38531 h 2.42516 q 0.38531,0 0.38531,0.38531 v 0.70262 q 0,0.0907 0.0453,0.11332 0.0453,0.0227 0.11333,-0.0453 0.9066,-1.31457 2.44783,-1.31457 z"
       style="font-weight:bold;font-size:22.6651px;line-height:1.25;font-family:Barlow;-inkscape-font-specification:Barlow;stroke-width:0.566628"
       id="path25901" />
    <path
       d="m 197.44159,176.51061 q -1.63188,0 -2.81047,-0.83861 -1.15592,-0.86128 -1.58656,-2.31184 -0.29464,-0.99727 -0.29464,-2.81048 0,-1.63188 0.29464,-2.76514 0.40798,-1.40523 1.58656,-2.24384 1.17859,-0.86128 2.81047,-0.86128 1.65456,0 2.85581,0.83861 1.22391,0.83861 1.58655,2.08519 0.0907,0.31731 0.13599,0.61196 v 0.0453 q 0,0.24932 -0.27198,0.29465 l -0.99726,0.11332 h -0.068 q -0.20398,0 -0.27198,-0.24932 0,-0.0907 -0.0453,-0.27198 -0.20399,-0.86127 -0.99726,-1.45056 -0.79328,-0.61196 -1.92654,-0.61196 -1.13325,0 -1.90387,0.61196 -0.74794,0.58929 -0.97459,1.58655 -0.20399,0.86128 -0.20399,2.28918 0,1.4959 0.20399,2.31184 0.22665,1.01993 0.97459,1.63189 0.77062,0.58929 1.90387,0.58929 1.11059,0 1.90387,-0.56663 0.81594,-0.58929 0.99727,-1.47323 0.0227,-0.0453 0.0227,-0.11333 l 0.0227,-0.0227 q 0.0227,-0.29465 0.33997,-0.24932 l 0.9746,0.15866 q 0.29465,0.0453 0.27198,0.33998 l -0.0907,0.3853 q -0.33997,1.31458 -1.56389,2.13052 -1.22391,0.81595 -2.87847,0.81595 z"
       id="path25903"
       style="font-size:22.6651px;line-height:1.25;font-family:Barlow;-inkscape-font-specification:Barlow;stroke-width:0.566628" />
    <path
       d="m 209.52205,164.74742 q 0.74795,0 1.24658,0.27198 0.22665,0.0907 0.15866,0.36264 l -0.22665,0.99727 q -0.068,0.27198 -0.36264,0.18132 -0.43064,-0.13599 -1.11059,-0.11333 -1.17859,0.0453 -1.9492,0.88394 -0.77062,0.81594 -0.77062,2.08519 v 6.61821 q 0,0.29464 -0.29464,0.29464 h -1.01993 q -0.29465,0 -0.29465,-0.29464 v -10.87925 q 0,-0.29465 0.29465,-0.29465 h 1.01993 q 0.29464,0 0.29464,0.29465 v 1.26925 q 0,0.0907 0.0227,0.11332 0.0453,0 0.0907,-0.068 0.47597,-0.81595 1.20125,-1.26925 0.74795,-0.4533 1.69988,-0.4533 z"
       id="path25905"
       style="font-size:22.6651px;line-height:1.25;font-family:Barlow;-inkscape-font-specification:Barlow;stroke-width:0.566628" />
    <path
       d="m 213.26176,180.8623 q -0.15865,0 -0.15865,-0.29464 v -0.79328 q 0,-0.29465 0.15865,-0.29465 h 0.15866 q 0.88394,0 1.3599,-0.24931 0.49864,-0.24932 0.83861,-0.88394 0.36265,-0.63462 0.77062,-1.9492 0.0227,-0.0453 0,-0.13599 l -3.80774,-11.06057 q -0.0227,-0.0453 -0.0227,-0.11332 0,-0.0907 0.068,-0.15866 0.0907,-0.068 0.20399,-0.068 h 1.06526 q 0.27198,0 0.33997,0.24932 l 2.9238,8.88472 q 0.0227,0.0907 0.068,0.0907 0.0453,0 0.068,-0.0907 l 2.8558,-8.88472 q 0.068,-0.24932 0.31731,-0.24932 h 1.08793 q 0.15866,0 0.22665,0.0907 0.068,0.0907 0.0227,0.24932 l -4.17038,12.12583 q -0.54396,1.51856 -1.01993,2.24384 -0.47597,0.72529 -1.20125,0.99727 -0.70262,0.29464 -1.99453,0.29464 z"
       id="path25907"
       style="font-size:22.6651px;line-height:1.25;font-family:Barlow;-inkscape-font-specification:Barlow;stroke-width:0.566628" />
    <path
       d="m 233.13902,167.71655 q 0.31731,1.01993 0.31731,2.87846 0,1.88121 -0.27198,2.81048 -0.40797,1.45056 -1.49589,2.28917 -1.08793,0.81595 -2.69715,0.81595 -0.88394,0 -1.63189,-0.33998 -0.74795,-0.36264 -1.24658,-1.01993 -0.0453,-0.068 -0.0907,-0.0453 -0.0453,0.0227 -0.0453,0.0907 v 5.23564 q 0,0.29464 -0.29465,0.29464 h -1.01992 q -0.29465,0 -0.29465,-0.29464 v -15.27628 q 0,-0.29465 0.29465,-0.29465 h 1.01992 q 0.29465,0 0.29465,0.29465 v 0.86127 q 0,0.068 0.0453,0.0907 0.0453,0 0.0907,-0.0453 0.49863,-0.65728 1.22392,-1.01993 0.74795,-0.36264 1.65455,-0.36264 1.58656,0 2.65182,0.81595 1.08792,0.81594 1.49589,2.22118 z m -1.81321,5.73427 q 0.27199,-0.49864 0.38531,-1.11059 0.13599,-0.63463 0.13599,-1.74522 0,-1.06526 -0.0907,-1.65455 -0.0907,-0.61196 -0.31731,-1.08792 -0.27198,-0.81595 -0.9746,-1.29191 -0.67995,-0.47597 -1.63189,-0.47597 -0.9066,0 -1.51856,0.47597 -0.61196,0.47596 -0.9066,1.26924 -0.20399,0.4533 -0.29465,1.06526 -0.0907,0.61196 -0.0907,1.69988 0,1.08793 0.0907,1.72255 0.0907,0.61196 0.31731,1.08793 0.27198,0.77061 0.88394,1.24658 0.63462,0.4533 1.4959,0.4533 0.9066,0 1.56389,-0.4533 0.65729,-0.4533 0.95193,-1.20125 z"
       id="path25909"
       style="font-size:22.6651px;line-height:1.25;font-family:Barlow;-inkscape-font-specification:Barlow;stroke-width:0.566628" />
    <path
       d="m 241.70636,165.90334 q 0,0.29464 -0.29465,0.29464 h -2.47049 q -0.11333,0 -0.11333,0.11333 v 6.61821 q 0,1.08792 0.47597,1.54123 0.49863,0.43063 1.54122,0.43063 h 0.49864 q 0.29464,0 0.29464,0.29465 v 0.79328 q 0,0.29464 -0.29464,0.31731 h -0.77062 q -1.63188,0 -2.47049,-0.61196 -0.83861,-0.61196 -0.83861,-2.26651 v -7.11684 q 0,-0.11333 -0.11333,-0.11333 h -1.29191 q -0.29464,0 -0.29464,-0.29464 v -0.74795 q 0,-0.29465 0.29464,-0.29465 h 1.29191 q 0.11333,0 0.11333,-0.11332 v -2.53849 q 0,-0.29465 0.29465,-0.29465 h 0.97459 q 0.29465,0 0.29465,0.29465 v 2.53849 q 0,0.11332 0.11333,0.11332 h 2.47049 q 0.29465,0 0.29465,0.29465 z"
       id="path25911"
       style="font-size:22.6651px;line-height:1.25;font-family:Barlow;-inkscape-font-specification:Barlow;stroke-width:0.566628" />
    <path
       d="m 248.86846,176.51061 q -1.65455,0 -2.83314,-0.83861 -1.15592,-0.83861 -1.60922,-2.31184 -0.31731,-1.0426 -0.31731,-2.78781 0,-1.72255 0.29464,-2.76514 0.45331,-1.45057 1.60923,-2.28918 1.17858,-0.83861 2.8558,-0.83861 1.63189,0 2.78781,0.83861 1.17858,0.83861 1.60922,2.26651 0.31731,1.08793 0.31731,2.78781 0,1.74521 -0.31731,2.78781 -0.4533,1.47323 -1.63189,2.31184 -1.15592,0.83861 -2.76514,0.83861 z m 0,-1.40524 q 1.08792,0 1.85854,-0.58929 0.77061,-0.61196 1.04259,-1.63189 0.18132,-0.72528 0.18132,-2.28918 0,-1.63188 -0.18132,-2.28917 -0.24931,-1.01993 -1.04259,-1.60922 -0.77062,-0.61196 -1.90387,-0.61196 -1.08793,0 -1.85854,0.61196 -0.77061,0.58929 -1.04259,1.60922 -0.18132,0.65729 -0.18132,2.28917 0,1.63189 0.18132,2.28918 0.24931,1.01993 1.01993,1.63189 0.79327,0.58929 1.92653,0.58929 z"
       id="path25913"
       style="font-size:22.6651px;line-height:1.25;font-family:Barlow;-inkscape-font-specification:Barlow;stroke-width:0.566628" />
    <path
       d="m 257.88914,176.26129 q -0.61196,0 -1.01993,-0.38531 -0.38531,-0.3853 -0.38531,-0.95193 0,-0.54396 0.40797,-0.92927 0.43064,-0.40797 0.99727,-0.40797 0.54396,0 0.9746,0.40797 0.43063,0.38531 0.43063,0.92927 0,0.56663 -0.40797,0.95193 -0.40797,0.38531 -0.99726,0.38531 z"
       id="path25915"
       style="font-size:22.6651px;line-height:1.25;font-family:Barlow;-inkscape-font-specification:Barlow;stroke-width:0.566628" />
    <path
       d="m 271.35214,176.30662 q -0.3853,0 -0.3853,-0.38531 v -5.59828 l -0.0453,-0.18132 -4.57835,-9.22469 q -0.068,-0.11333 -0.068,-0.20399 0,-0.11332 0.0907,-0.18132 0.0907,-0.068 0.24932,-0.068 h 2.62915 q 0.31731,0 0.4533,0.29465 l 2.76514,5.89293 q 0.0453,0.068 0.0907,0.068 0.068,0 0.0907,-0.068 l 2.76514,-5.89293 q 0.15865,-0.29465 0.4533,-0.29465 h 2.65182 q 0.33997,0 0.33997,0.27199 0,0.11332 -0.0453,0.18132 l -4.62368,9.22469 -0.0453,0.18132 v 5.59828 q 0,0.38531 -0.3853,0.38531 z"
       style="font-weight:bold;font-size:22.6651px;line-height:1.25;font-family:Barlow;-inkscape-font-specification:Barlow;stroke-width:0.566628"
       id="path25917" />
    <path
       d="m 284.11256,176.51061 q -1.92653,0 -3.28644,-0.99727 -1.35991,-0.99726 -1.85854,-2.71981 -0.31731,-1.06526 -0.31731,-2.31184 0,-1.38257 0.33998,-2.4025 0.52129,-1.67722 1.85853,-2.62915 1.35991,-0.95194 3.28644,-0.95194 1.85854,0 3.17312,0.95194 1.33724,0.95193 1.85854,2.60648 0.33997,1.0426 0.33997,2.37984 0,1.17858 -0.29464,2.28917 -0.5213,1.76788 -1.88121,2.78781 -1.33724,0.99727 -3.21844,0.99727 z m 0,-2.74248 q 0.72528,0 1.24658,-0.4533 0.5213,-0.45331 0.74795,-1.24658 0.18132,-0.61196 0.18132,-1.58656 0,-0.95194 -0.18132,-1.60922 -0.22665,-0.77062 -0.74795,-1.20125 -0.5213,-0.43064 -1.29191,-0.43064 -0.74795,0 -1.26925,0.43064 -0.52129,0.43063 -0.74795,1.20125 -0.18132,0.65728 -0.18132,1.60922 0,0.92927 0.18132,1.58656 0.22666,0.79327 0.74795,1.24658 0.54397,0.4533 1.31458,0.4533 z"
       style="font-weight:bold;font-size:22.6651px;line-height:1.25;font-family:Barlow;-inkscape-font-specification:Barlow;stroke-width:0.566628"
       id="path25919" />
    <path
       d="m 298.36888,165.06473 q 0,-0.38531 0.38531,-0.38531 h 2.42516 q 0.38531,0 0.38531,0.38531 v 10.87925 q 0,0.3853 -0.38531,0.3853 h -2.42516 q -0.38531,0 -0.38531,-0.3853 v -0.61196 q 0,-0.0907 -0.068,-0.0907 -0.0453,-0.0227 -0.0907,0.0453 -0.88394,1.20125 -2.78781,1.20125 -1.72255,0 -2.83314,-1.04259 -1.11059,-1.0426 -1.11059,-2.9238 v -7.45682 q 0,-0.38531 0.38531,-0.38531 h 2.4025 q 0.3853,0 0.3853,0.38531 v 6.66354 q 0,0.9066 0.47597,1.47323 0.49863,0.56663 1.35991,0.56663 0.77061,0 1.26924,-0.4533 0.49864,-0.47597 0.61196,-1.22392 z"
       style="font-weight:bold;font-size:22.6651px;line-height:1.25;font-family:Barlow;-inkscape-font-specification:Barlow;stroke-width:0.566628"
       id="path25921" />
    <path
       d="m 309.72405,164.52077 q 0.72528,0 1.20125,0.27198 0.27198,0.13599 0.20399,0.47597 l -0.43064,2.37983 q -0.0227,0.20399 -0.13599,0.24932 -0.0907,0.0453 -0.31731,0 -0.36265,-0.0907 -0.65729,-0.0907 -0.15866,0 -0.5213,0.0453 -0.81594,0.068 -1.38257,0.61195 -0.56663,0.5213 -0.56663,1.40524 v 6.07425 q 0,0.3853 -0.3853,0.3853 h -2.42517 q -0.38531,0 -0.38531,-0.3853 v -10.87925 q 0,-0.38531 0.38531,-0.38531 h 2.42517 q 0.3853,0 0.3853,0.38531 v 0.70262 q 0,0.0907 0.0453,0.11332 0.0453,0.0227 0.11333,-0.0453 0.9066,-1.31457 2.44783,-1.31457 z"
       style="font-weight:bold;font-size:22.6651px;line-height:1.25;font-family:Barlow;-inkscape-font-specification:Barlow;stroke-width:0.566628"
       id="path25923" />
    <path
       d="m 322.3938,164.74742 q 0.74795,0 1.24658,0.27198 0.22665,0.0907 0.15866,0.36264 l -0.22665,0.99727 q -0.068,0.27198 -0.36264,0.18132 -0.43064,-0.13599 -1.11059,-0.11333 -1.17859,0.0453 -1.9492,0.88394 -0.77062,0.81594 -0.77062,2.08519 v 6.61821 q 0,0.29464 -0.29464,0.29464 h -1.01993 q -0.29465,0 -0.29465,-0.29464 v -10.87925 q 0,-0.29465 0.29465,-0.29465 h 1.01993 q 0.29464,0 0.29464,0.29465 v 1.26925 q 0,0.0907 0.0227,0.11332 0.0453,0 0.0907,-0.068 0.47597,-0.81595 1.20125,-1.26925 0.74795,-0.4533 1.69988,-0.4533 z"
       id="path25925"
       style="font-size:22.6651px;line-height:1.25;font-family:Barlow;-inkscape-font-specification:Barlow;stroke-width:0.566628" />
    <path
       d="m 330.37186,175.12803 q 1.01993,-0.0227 1.74522,-0.4533 0.74795,-0.4533 1.15592,-1.24658 0.0453,-0.11332 0.15865,-0.15865 0.11333,-0.0453 0.22665,0.0227 l 0.65729,0.36264 q 0.27198,0.15866 0.13599,0.38531 -0.54396,1.13325 -1.63188,1.81321 -1.08793,0.65729 -2.58383,0.65729 -1.58655,0 -2.67448,-0.74795 -1.08792,-0.74795 -1.56389,-2.08519 -0.43064,-1.13326 -0.43064,-3.12779 0,-0.9746 0.0227,-1.54122 0.0453,-0.5893 0.18132,-1.08793 0.38531,-1.47323 1.54123,-2.35717 1.17858,-0.88394 2.83313,-0.88394 1.97187,0 3.08246,1.01993 1.13325,1.01993 1.45056,2.87847 0.13599,0.72528 0.13599,2.26651 0,0.29465 -0.29464,0.29465 h -7.25283 q -0.11333,0 -0.11333,0.11332 0,1.13326 0.13599,1.65455 0.24932,1.01993 1.0426,1.63189 0.81594,0.58929 2.03985,0.58929 z m -0.22665,-9.04337 q -1.13325,0 -1.85853,0.58929 -0.72529,0.56663 -0.95194,1.54123 -0.13599,0.4533 -0.18132,1.54123 0,0.11332 0.11333,0.11332 h 5.82493 q 0.11332,0 0.11332,-0.11332 -0.0453,-0.99727 -0.13599,-1.45057 -0.24931,-1.01993 -1.01993,-1.60922 -0.74795,-0.61196 -1.90387,-0.61196 z"
       id="path25927"
       style="font-size:22.6651px;line-height:1.25;font-family:Barlow;-inkscape-font-specification:Barlow;stroke-width:0.566628" />
    <path
       d="m 342.99624,165.90334 q 0,0.29464 -0.29464,0.29464 h -2.4705 q -0.11332,0 -0.11332,0.11333 v 6.61821 q 0,1.08792 0.47596,1.54123 0.49864,0.43063 1.54123,0.43063 h 0.49863 q 0.29465,0 0.29465,0.29465 v 0.79328 q 0,0.29464 -0.29465,0.31731 h -0.77061 q -1.63189,0 -2.4705,-0.61196 -0.8386,-0.61196 -0.8386,-2.26651 v -7.11684 q 0,-0.11333 -0.11333,-0.11333 h -1.29191 q -0.29465,0 -0.29465,-0.29464 v -0.74795 q 0,-0.29465 0.29465,-0.29465 h 1.29191 q 0.11333,0 0.11333,-0.11332 v -2.53849 q 0,-0.29465 0.29464,-0.29465 h 0.9746 q 0.29465,0 0.29465,0.29465 v 2.53849 q 0,0.11332 0.11332,0.11332 h 2.4705 q 0.29464,0 0.29464,0.29465 z"
       id="path25929"
       style="font-size:22.6651px;line-height:1.25;font-family:Barlow;-inkscape-font-specification:Barlow;stroke-width:0.566628" />
    <path
       d="m 353.03685,165.15539 q 0,-0.29465 0.29465,-0.29465 h 1.01992 q 0.29465,0 0.29465,0.29465 v 10.87925 q 0,0.29464 -0.29465,0.29464 h -1.01992 q -0.29465,0 -0.29465,-0.29464 v -0.86128 q 0,-0.068 -0.0453,-0.0907 -0.0453,-0.0227 -0.0907,0.0453 -0.9746,1.35991 -2.99179,1.35991 -1.08793,0 -2.0172,-0.43064 -0.9066,-0.4533 -1.45057,-1.29191 -0.52129,-0.83861 -0.52129,-2.01719 v -7.59281 q 0,-0.29465 0.29464,-0.29465 h 1.01993 q 0.29465,0 0.29465,0.29465 v 7.11684 q 0,1.29191 0.72528,2.06253 0.72529,0.74794 1.97187,0.74794 1.29191,0 2.03986,-0.77061 0.77061,-0.77061 0.77061,-2.03986 z"
       id="path25931"
       style="font-size:22.6651px;line-height:1.25;font-family:Barlow;-inkscape-font-specification:Barlow;stroke-width:0.566628" />
    <path
       d="m 362.87351,164.74742 q 0.74795,0 1.24658,0.27198 0.22665,0.0907 0.15865,0.36264 l -0.22665,0.99727 q -0.068,0.27198 -0.36264,0.18132 -0.43064,-0.13599 -1.11059,-0.11333 -1.17858,0.0453 -1.9492,0.88394 -0.77061,0.81594 -0.77061,2.08519 v 6.61821 q 0,0.29464 -0.29465,0.29464 h -1.01993 q -0.29464,0 -0.29464,-0.29464 v -10.87925 q 0,-0.29465 0.29464,-0.29465 h 1.01993 q 0.29465,0 0.29465,0.29465 v 1.26925 q 0,0.0907 0.0227,0.11332 0.0453,0 0.0907,-0.068 0.47597,-0.81595 1.20125,-1.26925 0.74795,-0.4533 1.69989,-0.4533 z"
       id="path25933"
       style="font-size:22.6651px;line-height:1.25;font-family:Barlow;-inkscape-font-specification:Barlow;stroke-width:0.566628" />
    <path
       d="m 371.25953,164.70209 q 1.79054,0 2.8558,1.06526 1.08793,1.06526 1.08793,2.8558 v 7.41149 q 0,0.29464 -0.29465,0.29464 h -1.01993 q -0.29465,0 -0.29465,-0.29464 v -7.09418 q 0,-1.26924 -0.74794,-2.03986 -0.74795,-0.79328 -1.9492,-0.79328 -1.15592,0 -1.92654,0.65729 -0.74795,0.65729 -0.86127,1.72255 v 7.54748 q 0,0.29464 -0.29465,0.29464 h -1.01993 q -0.29464,0 -0.29464,-0.29464 v -10.87925 q 0,-0.29465 0.29464,-0.29465 h 1.01993 q 0.29465,0 0.29465,0.29465 v 0.83861 q 0,0.068 0.0453,0.11332 0.0453,0.0227 0.068,-0.0453 0.99727,-1.3599 3.03713,-1.3599 z"
       id="path25935"
       style="font-size:22.6651px;line-height:1.25;font-family:Barlow;-inkscape-font-specification:Barlow;stroke-width:0.566628" />
    <path
       d="m 382.47876,176.44261 q -1.26925,0 -2.26651,-0.40797 -0.9746,-0.40797 -1.51857,-1.08793 -0.52129,-0.67995 -0.52129,-1.51856 v -0.20398 q 0,-0.29465 0.29464,-0.29465 h 0.9746 q 0.13599,0 0.20399,0.068 0.0907,0.0453 0.0907,0.136 v 0.20398 q 0,0.74795 0.77061,1.31458 0.77062,0.54396 1.9492,0.54396 1.17859,0 1.90387,-0.5213 0.72528,-0.54396 0.72528,-1.3599 0,-0.56663 -0.36264,-0.92927 -0.36264,-0.36264 -0.88394,-0.56663 -0.5213,-0.20399 -1.56389,-0.5213 -1.26925,-0.36264 -2.08519,-0.72528 -0.81594,-0.36264 -1.38257,-0.99727 -0.56663,-0.65728 -0.56663,-1.65455 0,-1.45056 1.13326,-2.31184 1.15592,-0.86127 3.01446,-0.86127 1.24658,0 2.19851,0.40797 0.9746,0.40797 1.4959,1.13326 0.52129,0.70261 0.52129,1.58655 0,0.29465 -0.29464,0.29465 h -0.92927 q -0.29465,0 -0.29465,-0.15866 v -0.13599 q 0,-0.77061 -0.74795,-1.29191 -0.72528,-0.5213 -1.97186,-0.5213 -1.15592,0 -1.85854,0.47597 -0.70262,0.4533 -0.70262,1.26925 0,0.77061 0.65729,1.17858 0.67995,0.40797 2.10786,0.81595 1.31457,0.36264 2.13052,0.70261 0.81594,0.33998 1.40523,0.99727 0.58929,0.65729 0.58929,1.69988 0,1.47323 -1.15592,2.35717 -1.13325,0.88394 -3.05978,0.88394 z"
       id="path25937"
       style="font-size:22.6651px;line-height:1.25;font-family:Barlow;-inkscape-font-specification:Barlow;stroke-width:0.566628" />
    <path
       d="m 390.88749,176.26129 q -0.61196,0 -1.01993,-0.38531 -0.38531,-0.3853 -0.38531,-0.95193 0,-0.54396 0.40798,-0.92927 0.43063,-0.40797 0.99726,-0.40797 0.54396,0 0.9746,0.40797 0.43064,0.38531 0.43064,0.92927 0,0.56663 -0.40798,0.95193 -0.40797,0.38531 -0.99726,0.38531 z"
       id="path25939"
       style="font-size:22.6651px;line-height:1.25;font-family:Barlow;-inkscape-font-specification:Barlow;stroke-width:0.566628" />
  </g>
</svg>
