<?xml version="1.0" encoding="UTF-8" standalone="no"?>
<!-- Created with Inkscape (http://www.inkscape.org/) -->

<svg
   width="1344.5135"
   height="322.00119"
   viewBox="0 0 355.73589 85.19615"
   version="1.1"
   id="svg5"
   xmlns="http://www.w3.org/2000/svg"
   xmlns:svg="http://www.w3.org/2000/svg">
  <defs
     id="defs2" />
  <path
     id="path25942"
     style="font-size:98.6362px;line-height:1.25;font-family:Ubuntu;-inkscape-font-specification:Ubuntu;letter-spacing:4.93185px;fill:#0b090b;fill-opacity:1;stroke-width:0.27287"
     d="M 8.6651062,0.26458462 V 42.776719 c 0,3.455844 0.391589,6.666809 1.172538,9.634555 A 37.617909,37.617909 0 0 0 24.615555,47.325279 C 24.242048,45.629228 24.052281,43.688687 24.052281,41.494627 V 0.26458462 Z m 40.5391288,0 V 41.494627 c 0,2.199838 -0.1909,4.13981 -0.566375,5.828585 a 37.617909,37.617909 0 0 0 14.710215,5.080827 c 0.828392,-2.965705 1.243335,-6.174319 1.243335,-9.62732 V 0.26458462 Z" />
  <path
     d="m 102.92421,23.825927 q 7.07721,0 11.21997,4.142755 4.22906,4.142756 4.22906,11.306268 v 27.9636 q 0,1.38092 -1.38092,1.38092 h -7.24982 q -1.38092,0 -1.38092,-1.38092 V 41.34633 q 0,-3.97014 -2.3303,-6.386752 -2.24399,-2.502911 -5.95521,-2.502911 -3.711214,0 -6.041514,2.416611 -2.24399,2.416602 -2.24399,6.386742 v 25.97853 q 0,1.38092 -1.38092,1.38092 h -7.24982 q -1.38092,0 -1.38092,-1.38092 V 25.897305 q 0,-1.380919 1.38092,-1.380919 h 7.24982 q 1.38092,0 1.38092,1.380919 v 2.3303 q 0,0.345229 0.17261,0.431537 0.17262,0.08631 0.34523,-0.172615 3.62491,-4.6606 10.615804,-4.6606 z"
     style="font-weight:600;font-size:86.3074px;line-height:1.25;font-family:Barlow;-inkscape-font-specification:'Barlow Semi-Bold';letter-spacing:2.46592px;fill:#0b090b;fill-opacity:1;stroke-width:0.272871"
     id="path25944" />
  <path
     d="m 168.65335,35.90897 q 1.55353,4.7469 1.55353,10.78842 0,6.12783 -1.46722,10.5295 -1.89876,5.69629 -6.12783,8.88967 -4.22906,3.19337 -10.5295,3.19337 -6.04152,0 -9.83904,-4.22906 -0.17262,-0.25892 -0.43154,-0.17262 -0.17262,0 -0.17262,0.34523 v 18.29717 q 0,1.38092 -1.38091,1.38092 h -7.24983 q -1.38091,0 -1.38091,-1.38092 V 25.897305 q 0,-1.380919 1.38091,-1.380919 h 7.24983 q 1.38091,0 1.38091,1.380919 v 2.243992 q 0,0.34523 0.17262,0.431537 0.25892,0.08631 0.43154,-0.258922 3.71121,-4.487985 9.83904,-4.487985 6.04152,0 10.35689,3.279681 4.31537,3.193374 6.21413,8.803362 z m -11.30627,21.14531 q 2.50292,-3.79753 2.50292,-10.5295 0,-6.21414 -2.07138,-9.83905 -2.24399,-4.142755 -7.24982,-4.142755 -4.31537,0 -6.73198,4.056445 -1.98507,3.36599 -1.98507,10.01166 0,6.73198 2.15768,10.27058 2.3303,3.79753 6.47306,3.79753 4.48798,0 6.90459,-3.62491 z"
     style="font-weight:600;font-size:86.3074px;line-height:1.25;font-family:Barlow;-inkscape-font-specification:'Barlow Semi-Bold';letter-spacing:2.46592px;fill:#0b090b;fill-opacity:1;stroke-width:0.272871"
     id="path25946" />
  <path
     d="m 200.37736,69.30993 q -6.8183,0 -11.73782,-3.4523 -4.91951,-3.45229 -6.81829,-9.58012 -1.46722,-4.22906 -1.46722,-9.83904 0,-5.52368 1.38093,-9.83905 1.98507,-6.041515 6.90458,-9.407504 4.91953,-3.365989 11.82412,-3.365989 6.55937,0 11.30626,3.365989 4.83323,3.365989 6.81829,9.321204 1.55354,4.14275 1.55354,9.83904 0,5.43737 -1.46722,9.83905 -1.98508,6.12782 -6.81829,9.66642 -4.83321,3.4523 -11.47888,3.4523 z m 0,-8.63074 q 3.19336,0 5.43736,-1.81246 2.33029,-1.81245 3.27968,-5.09213 0.94939,-2.76184 0.94939,-7.24982 0,-4.22907 -0.86308,-7.24983 -0.94938,-3.27968 -3.36599,-5.005827 -2.3303,-1.812456 -5.60998,-1.812456 -3.27968,0 -5.60998,1.812456 -2.33031,1.726147 -3.27969,5.005827 -0.86308,3.02076 -0.86308,7.24983 0,4.22906 0.86308,7.24982 0.94938,3.27968 3.27969,5.09213 2.4166,1.81246 5.7826,1.81246 z"
     style="font-weight:600;font-size:86.3074px;line-height:1.25;font-family:Barlow;-inkscape-font-specification:'Barlow Semi-Bold';letter-spacing:2.46592px;fill:#0b090b;fill-opacity:1;stroke-width:0.272871"
     id="path25948" />
  <path
     d="m 250.91642,69.30993 q -6.81828,0 -11.7378,-3.4523 -4.91952,-3.45229 -6.81828,-9.58012 -1.46722,-4.22906 -1.46722,-9.83904 0,-5.52368 1.3809,-9.83905 1.98509,-6.041515 6.9046,-9.407504 4.91952,-3.365989 11.82411,-3.365989 6.55936,0 11.30628,3.365989 4.83321,3.365989 6.81828,9.321204 1.55353,4.14275 1.55353,9.83904 0,5.43737 -1.46723,9.83905 -1.98507,6.12782 -6.81828,9.66642 -4.83322,3.4523 -11.47889,3.4523 z m 0,-8.63074 q 3.19338,0 5.43737,-1.81246 2.3303,-1.81245 3.27968,-5.09213 0.94938,-2.76184 0.94938,-7.24982 0,-4.22907 -0.86307,-7.24983 -0.94938,-3.27968 -3.36599,-5.005827 -2.3303,-1.812456 -5.60998,-1.812456 -3.27968,0 -5.60998,1.812456 -2.3303,1.726147 -3.27968,5.005827 -0.86308,3.02076 -0.86308,7.24983 0,4.22906 0.86308,7.24982 0.94938,3.27968 3.27968,5.09213 2.41661,1.81246 5.78259,1.81246 z"
     style="font-weight:600;font-size:86.3074px;line-height:1.25;font-family:Barlow;-inkscape-font-specification:'Barlow Semi-Bold';letter-spacing:2.46592px;fill:#0b090b;fill-opacity:1;stroke-width:0.272871"
     id="path25950" />
  <path
     d="m 284.10771,68.61947 q -1.3809,0 -1.3809,-1.38092 V 9.585205 q 0,-1.380918 1.3809,-1.380918 h 7.24984 q 1.3809,0 1.3809,1.380918 V 67.23855 q 0,1.38092 -1.3809,1.38092 z"
     style="font-weight:600;font-size:86.3074px;line-height:1.25;font-family:Barlow;-inkscape-font-specification:'Barlow Semi-Bold';letter-spacing:2.46592px;fill:#0b090b;fill-opacity:1;stroke-width:0.272871"
     id="path25952" />
  <path
     d="m 308.92707,68.68112 q -2.15768,0 -3.57559,-1.35626 -1.35626,-1.35626 -1.35626,-3.39064 0,-1.9111 1.47956,-3.26735 1.5412,-1.41791 3.45229,-1.41791 1.97274,0 3.51394,1.41791 1.54121,1.35625 1.54121,3.26735 0,1.97274 -1.47956,3.39064 -1.4179,1.35626 -3.57559,1.35626 z"
     style="font-size:61.6481px;line-height:1.25;font-family:Ubuntu;-inkscape-font-specification:Ubuntu;letter-spacing:2.46592px;fill:#37abc8;stroke-width:0.272871"
     id="path25954" />
  <path
     d="m 339.81268,37.05564 q 0.98637,0 0.98637,0.98637 v 4.37702 q 0,0.98637 -0.98637,0.98637 h -5.79492 q -0.36989,0 -0.36989,0.36989 V 67.6331 q 0,0.98637 -0.98638,0.98637 h -5.17844 q -0.98637,0 -0.98637,-0.98637 V 43.77529 q 0,-0.36989 -0.36989,-0.36989 h -3.51394 q -0.98637,0 -0.98637,-0.98637 v -4.37702 q 0,-0.98637 0.98637,-0.98637 h 3.51394 q 0.36989,0 0.36989,-0.36989 v -1.048012 q 0,-4.00713 1.04802,-6.164813 1.04801,-2.219332 3.45229,-3.144053 2.40428,-0.924722 6.78129,-0.863074 h 1.91109 q 0.98637,0 0.98637,0.98637 v 3.822182 q 0,0.98637 -0.98637,0.98637 h -1.35626 q -2.65086,0 -3.69888,1.048018 -0.98637,1.048017 -0.98637,3.822182 v 0.55483 q 0,0.36989 0.36989,0.36989 z m 11.09665,-3.883829 q -2.03438,0 -3.329,-1.232962 -1.2946,-1.29461 -1.2946,-3.267349 0,-1.97274 1.2946,-3.205702 1.29461,-1.232962 3.329,-1.232962 2.03438,0 3.26736,1.232962 1.2946,1.232962 1.2946,3.205702 0,1.972739 -1.2946,3.267349 -1.23298,1.232962 -3.26736,1.232962 z m -2.58922,35.447659 q -0.98637,0 -0.98637,-0.98637 V 38.10366 q 0,-0.98637 0.98637,-0.98637 h 5.17844 q 0.98638,0 0.98638,0.98637 V 67.6331 q 0,0.98637 -0.98638,0.98637 z"
     style="font-size:61.6481px;line-height:1.25;font-family:Ubuntu;-inkscape-font-specification:Ubuntu;letter-spacing:2.46592px;fill:#37abc8;stroke-width:0.272871"
     id="path25956" />
  <path
     id="path926"
     style="fill:#37abc8;fill-opacity:1;stroke-width:0.153701"
     d="M 36.628774,35.85776 A 37.617909,37.617909 0 0 1 24.617106,47.331478 c 0.09631,0.436671 0.20189,0.861441 0.322977,1.265041 0.657582,1.907009 1.512572,3.485174 2.564701,4.734595 1.117889,1.183619 2.433058,2.038104 3.945496,2.564183 1.578195,0.52606 3.287654,0.789099 5.128885,0.789099 3.748211,0 6.77337,-1.150972 9.074899,-3.452501 1.42327,-1.383731 2.415196,-3.353517 2.982764,-5.901965 A 37.617909,37.617909 0 0 1 36.628774,35.85776 Z M 24.617106,47.331478 a 37.617904,37.617904 0 0 1 -1.448491,0.819589 37.617909,37.617909 0 0 0 1.448491,-0.819589 z m -1.448491,0.819589 a 37.617909,37.617909 0 0 1 -0.454237,0.243914 37.617904,37.617904 0 0 0 0.454237,-0.243914 z m -0.454237,0.243914 a 37.617904,37.617904 0 0 1 -1.422135,0.708999 37.617909,37.617909 0 0 0 1.422135,-0.708999 z m -1.422135,0.708999 a 37.617909,37.617909 0 0 1 -0.449069,0.204639 37.617904,37.617904 0 0 0 0.449069,-0.204639 z m -0.449069,0.204639 a 37.617904,37.617904 0 0 1 -4.959388,1.850533 37.617909,37.617909 0 0 0 4.959388,-1.850533 z m -4.959388,1.850533 a 37.617909,37.617909 0 0 1 -0.324011,0.09922 37.617904,37.617904 0 0 0 0.324011,-0.09922 z m -0.324011,0.09922 a 37.617904,37.617904 0 0 1 -1.474327,0.381373 37.617909,37.617909 0 0 0 1.474327,-0.381373 z m -1.474327,0.381373 a 37.617909,37.617909 0 0 1 -0.659908,0.15503 37.617904,37.617904 0 0 0 0.659908,-0.15503 z m -0.659908,0.15503 a 37.617904,37.617904 0 0 1 -1.436606,0.29197 37.617909,37.617909 0 0 0 1.436606,-0.29197 z m -1.436606,0.29197 a 37.617909,37.617909 0 0 1 -0.649573,0.108003 37.617904,37.617904 0 0 0 0.649573,-0.108003 z m -0.649573,0.108003 a 37.617904,37.617904 0 0 1 -1.4996498,0.224277 c 4.2e-5,1.61e-4 -4.3e-5,3.54e-4 0,5.16e-4 A 37.617909,37.617909 0 0 0 11.339361,52.194748 Z M 9.8397112,52.419541 A 37.617909,37.617909 0 0 1 5.2802994,52.709447 37.617909,37.617909 0 0 1 0.26458562,52.32859 V 77.788018 H 72.992448 V 52.328589 a 37.617909,37.617909 0 0 1 -5.015715,0.380857 37.617909,37.617909 0 0 1 -4.630209,-0.29714 c -0.133289,0.476689 -0.276278,0.947679 -0.430981,1.411801 -1.117886,3.353639 -2.827865,6.247051 -5.129403,8.68009 -2.30153,2.367299 -5.227856,4.208534 -8.778792,5.523693 -3.550941,1.315159 -7.75897,1.97249 -12.625071,1.97249 -4.800338,0 -8.943517,-0.657331 -12.428699,-1.97249 -3.485171,-1.380918 -6.378551,-3.255094 -8.68009,-5.622396 -2.235772,-2.433039 -3.912296,-5.293487 -5.030185,-8.581387 -0.144856,-0.461743 -0.2786768,-0.930363 -0.4035918,-1.404566 z m 53.5068128,-0.0072 a 37.617904,37.617904 0 0 1 -1.352372,-0.204639 37.617909,37.617909 0 0 0 1.352372,0.204639 z m -1.352372,-0.204639 a 37.617909,37.617909 0 0 1 -0.810286,-0.134874 37.617904,37.617904 0 0 0 0.810286,0.134874 z m -0.810286,-0.134874 a 37.617904,37.617904 0 0 1 -1.329635,-0.272852 37.617909,37.617909 0 0 0 1.329635,0.272852 z m -1.329635,-0.272852 a 37.617909,37.617909 0 0 1 -0.779797,-0.182935 37.617904,37.617904 0 0 0 0.779797,0.182935 z m -0.779797,-0.182935 a 37.617904,37.617904 0 0 1 -1.370976,-0.357085 37.617909,37.617909 0 0 0 1.370976,0.357085 z m -1.370976,-0.357085 a 37.617909,37.617909 0 0 1 -0.536918,-0.163814 37.617904,37.617904 0 0 0 0.536918,0.163814 z M 57.16654,51.096142 a 37.617904,37.617904 0 0 1 -4.74803,-1.785422 37.617909,37.617909 0 0 0 4.74803,1.785422 z M 52.41851,49.31072 a 37.617909,37.617909 0 0 1 -0.473874,-0.216005 37.617904,37.617904 0 0 0 0.473874,0.216005 z m -0.473874,-0.216005 a 37.617904,37.617904 0 0 1 -1.411283,-0.70435 37.617909,37.617909 0 0 0 1.411283,0.70435 z m -1.411283,-0.70435 a 37.617909,37.617909 0 0 1 -0.451135,-0.242364 37.617904,37.617904 0 0 0 0.451135,0.242364 z m -0.451135,-0.242364 a 37.617904,37.617904 0 0 1 -1.438672,-0.814419 37.617909,37.617909 0 0 0 1.438672,0.814419 z" />
</svg>
