<?xml version="1.0" encoding="UTF-8" standalone="no"?>
<!-- Created with Inkscape (http://www.inkscape.org/) -->

<svg
   width="1344.5135"
   height="322.00119"
   viewBox="0 0 355.73589 85.19615"
   version="1.1"
   id="svg5"
   xmlns="http://www.w3.org/2000/svg"
   xmlns:svg="http://www.w3.org/2000/svg">
  <defs
     id="defs2" />
  <g
     id="layer1"
     transform="translate(70.702085,-64.23542)">
    <path
       d="m -34.320458,134.2358 q -7.200442,0 -12.428161,-1.97273 -5.227719,-2.07136 -8.679986,-5.62226 -3.35363,-3.64954 -5.030446,-8.58135 -1.578179,-5.03044 -1.578179,-11.04725 V 64.500003 h 15.387247 v 41.229937 q 0,4.14272 0.887726,7.1018 0.986362,2.86045 2.564541,4.73454 1.676816,1.77545 3.945448,2.56454 2.367269,0.78909 5.129083,0.78909 5.622263,0 9.07453,-3.45227 3.550903,-3.45226 3.550903,-11.7377 V 64.500003 h 15.387243 v 42.512207 q 0,6.01681 -1.676811,11.04725 -1.676815,5.03045 -5.129082,8.67999 -3.452267,3.5509 -8.778622,5.52362 -5.326355,1.97273 -12.625434,1.97273 z"
       style="font-size:98.6362px;line-height:1.25;font-family:Ubuntu;-inkscape-font-specification:Ubuntu;letter-spacing:4.93185px;fill:#0b090b;fill-opacity:1;stroke-width:0.272871"
       id="path25942" />
    <path
       d="m 32.222128,88.061347 q 7.07721,0 11.21997,4.142755 4.22906,4.142756 4.22906,11.306268 v 27.9636 q 0,1.38092 -1.38092,1.38092 h -7.24982 q -1.38092,0 -1.38092,-1.38092 v -25.89222 q 0,-3.97014 -2.3303,-6.386752 -2.24399,-2.502911 -5.95521,-2.502911 -3.711217,0 -6.041517,2.416611 -2.24399,2.416602 -2.24399,6.386742 v 25.97853 q 0,1.38092 -1.38092,1.38092 h -7.24982 q -1.38092,0 -1.38092,-1.38092 V 90.132725 q 0,-1.380919 1.38092,-1.380919 h 7.24982 q 1.38092,0 1.38092,1.380919 v 2.3303 q 0,0.345229 0.17261,0.431537 0.17262,0.08631 0.34523,-0.172615 3.62491,-4.6606 10.615807,-4.6606 z"
       style="font-weight:600;font-size:86.3074px;line-height:1.25;font-family:Barlow;-inkscape-font-specification:'Barlow Semi-Bold';letter-spacing:2.46592px;fill:#0b090b;fill-opacity:1;stroke-width:0.272871"
       id="path25944" />
    <path
       d="m 97.951268,100.14439 q 1.55353,4.7469 1.55353,10.78842 0,6.12783 -1.46722,10.5295 -1.89876,5.69629 -6.12783,8.88967 -4.22906,3.19337 -10.5295,3.19337 -6.04152,0 -9.83904,-4.22906 -0.17262,-0.25892 -0.43154,-0.17262 -0.17262,0 -0.17262,0.34523 v 18.29717 q 0,1.38092 -1.38091,1.38092 h -7.24983 q -1.38091,0 -1.38091,-1.38092 V 90.132725 q 0,-1.380919 1.38091,-1.380919 h 7.24983 q 1.38091,0 1.38091,1.380919 v 2.243992 q 0,0.34523 0.17262,0.431537 0.25892,0.08631 0.43154,-0.258922 3.71121,-4.487985 9.83904,-4.487985 6.04152,0 10.35689,3.279681 4.31537,3.193374 6.21413,8.803362 z m -11.30627,21.14531 q 2.50292,-3.79753 2.50292,-10.5295 0,-6.21414 -2.07138,-9.83905 -2.24399,-4.142755 -7.24982,-4.142755 -4.31537,0 -6.73198,4.056445 -1.98507,3.36599 -1.98507,10.01166 0,6.73198 2.15768,10.27058 2.3303,3.79753 6.47306,3.79753 4.48798,0 6.90459,-3.62491 z"
       style="font-weight:600;font-size:86.3074px;line-height:1.25;font-family:Barlow;-inkscape-font-specification:'Barlow Semi-Bold';letter-spacing:2.46592px;fill:#0b090b;fill-opacity:1;stroke-width:0.272871"
       id="path25946" />
    <path
       d="m 129.67527,133.54535 q -6.81829,0 -11.73781,-3.4523 -4.91952,-3.45229 -6.81829,-9.58012 -1.46722,-4.22906 -1.46722,-9.83904 0,-5.52368 1.38092,-9.83905 1.98507,-6.041515 6.90459,-9.407504 4.91952,-3.365989 11.82411,-3.365989 6.55937,0 11.30627,3.365989 4.83322,3.365989 6.81829,9.321204 1.55353,4.14275 1.55353,9.83904 0,5.43737 -1.46722,9.83905 -1.98507,6.12782 -6.81829,9.66642 -4.83321,3.4523 -11.47888,3.4523 z m 0,-8.63074 q 3.19337,0 5.43736,-1.81246 2.3303,-1.81245 3.27968,-5.09213 0.94939,-2.76184 0.94939,-7.24982 0,-4.22907 -0.86308,-7.24983 -0.94938,-3.27968 -3.36599,-5.005827 -2.3303,-1.812456 -5.60998,-1.812456 -3.27968,0 -5.60998,1.812456 -2.3303,1.726147 -3.27968,5.005827 -0.86308,3.02076 -0.86308,7.24983 0,4.22906 0.86308,7.24982 0.94938,3.27968 3.27968,5.09213 2.41661,1.81246 5.7826,1.81246 z"
       style="font-weight:600;font-size:86.3074px;line-height:1.25;font-family:Barlow;-inkscape-font-specification:'Barlow Semi-Bold';letter-spacing:2.46592px;fill:#0b090b;fill-opacity:1;stroke-width:0.272871"
       id="path25948" />
    <path
       d="m 180.21434,133.54535 q -6.81828,0 -11.7378,-3.4523 -4.91952,-3.45229 -6.81829,-9.58012 -1.46722,-4.22906 -1.46722,-9.83904 0,-5.52368 1.38091,-9.83905 1.98508,-6.041515 6.9046,-9.407504 4.91952,-3.365989 11.82411,-3.365989 6.55936,0 11.30627,3.365989 4.83322,3.365989 6.81829,9.321204 1.55353,4.14275 1.55353,9.83904 0,5.43737 -1.46723,9.83905 -1.98507,6.12782 -6.81828,9.66642 -4.83322,3.4523 -11.47889,3.4523 z m 0,-8.63074 q 3.19338,0 5.43737,-1.81246 2.3303,-1.81245 3.27968,-5.09213 0.94938,-2.76184 0.94938,-7.24982 0,-4.22907 -0.86307,-7.24983 -0.94938,-3.27968 -3.36599,-5.005827 -2.3303,-1.812456 -5.60998,-1.812456 -3.27968,0 -5.60998,1.812456 -2.3303,1.726147 -3.27968,5.005827 -0.86308,3.02076 -0.86308,7.24983 0,4.22906 0.86308,7.24982 0.94938,3.27968 3.27968,5.09213 2.41661,1.81246 5.78259,1.81246 z"
       style="font-weight:600;font-size:86.3074px;line-height:1.25;font-family:Barlow;-inkscape-font-specification:'Barlow Semi-Bold';letter-spacing:2.46592px;fill:#0b090b;fill-opacity:1;stroke-width:0.272871"
       id="path25950" />
    <path
       d="m 213.40563,132.85489 q -1.38091,0 -1.38091,-1.38092 V 73.820625 q 0,-1.380918 1.38091,-1.380918 h 7.24983 q 1.38091,0 1.38091,1.380918 v 57.653345 q 0,1.38092 -1.38091,1.38092 z"
       style="font-weight:600;font-size:86.3074px;line-height:1.25;font-family:Barlow;-inkscape-font-specification:'Barlow Semi-Bold';letter-spacing:2.46592px;fill:#0b090b;fill-opacity:1;stroke-width:0.272871"
       id="path25952" />
    <path
       d="m 238.22499,132.91654 q -2.15768,0 -3.57559,-1.35626 -1.35626,-1.35626 -1.35626,-3.39064 0,-1.9111 1.47956,-3.26735 1.5412,-1.41791 3.45229,-1.41791 1.97274,0 3.51394,1.41791 1.54121,1.35625 1.54121,3.26735 0,1.97274 -1.47956,3.39064 -1.4179,1.35626 -3.57559,1.35626 z"
       style="font-size:61.6481px;line-height:1.25;font-family:Ubuntu;-inkscape-font-specification:Ubuntu;letter-spacing:2.46592px;fill:#37abc8;stroke-width:0.272871"
       id="path25954" />
    <path
       d="m 269.11059,101.29106 q 0.98637,0 0.98637,0.98637 v 4.37702 q 0,0.98637 -0.98637,0.98637 h -5.79492 q -0.36989,0 -0.36989,0.36989 v 23.85781 q 0,0.98637 -0.98637,0.98637 h -5.17844 q -0.98637,0 -0.98637,-0.98637 v -23.85781 q 0,-0.36989 -0.36989,-0.36989 h -3.51394 q -0.98637,0 -0.98637,-0.98637 v -4.37702 q 0,-0.98637 0.98637,-0.98637 h 3.51394 q 0.36989,0 0.36989,-0.36989 v -1.048012 q 0,-4.00713 1.04802,-6.164813 1.04801,-2.219332 3.45229,-3.144053 2.40428,-0.924722 6.78129,-0.863074 h 1.91109 q 0.98637,0 0.98637,0.98637 v 3.822182 q 0,0.98637 -0.98637,0.98637 h -1.35626 q -2.65086,0 -3.69888,1.048018 -0.98637,1.048017 -0.98637,3.822182 v 0.55483 q 0,0.36989 0.36989,0.36989 z m 11.09666,-3.883829 q -2.03439,0 -3.329,-1.232962 -1.29461,-1.29461 -1.29461,-3.267349 0,-1.97274 1.29461,-3.205702 1.29461,-1.232962 3.329,-1.232962 2.03438,0 3.26735,1.232962 1.29461,1.232962 1.29461,3.205702 0,1.972739 -1.29461,3.267349 -1.23297,1.232962 -3.26735,1.232962 z m -2.58922,35.447659 q -0.98637,0 -0.98637,-0.98637 v -29.52944 q 0,-0.98637 0.98637,-0.98637 h 5.17844 q 0.98637,0 0.98637,0.98637 v 29.52944 q 0,0.98637 -0.98637,0.98637 z"
       style="font-size:61.6481px;line-height:1.25;font-family:Ubuntu;-inkscape-font-specification:Ubuntu;letter-spacing:2.46592px;fill:#37abc8;stroke-width:0.272871"
       id="path25956" />
    <path
       id="path144747-9"
       style="fill:#37abc8;fill-opacity:1;stroke-width:0.153701"
       d="m -34.073522,100.09321 a 37.617908,37.617908 0 0 1 -31.34826,16.85159 37.617908,37.617908 0 0 1 -5.01572,-0.38056 v 25.45914 H 2.290451 v -25.45914 a 37.617908,37.617908 0 0 1 -5.01572,0.38056 37.617908,37.617908 0 0 1 -31.348253,-16.85159 z" />
    <path
       id="path144749-3"
       style="font-weight:bold;font-size:105.833px;line-height:1.25;font-family:Ubuntu;-inkscape-font-specification:'Ubuntu Bold';fill:#ffffff;stroke-width:0.272873"
       d="m -22.065018,111.56518 c -0.567568,2.54845 -1.559937,4.51864 -2.983207,5.90237 -2.30153,2.30153 -5.326628,3.45231 -9.074839,3.45231 -1.841232,0 -3.550666,-0.26284 -5.12886,-0.7889 -1.512436,-0.52608 -2.827611,-1.38105 -3.945499,-2.56467 -1.052129,-1.24942 -1.907089,-2.82742 -2.564671,-4.73443 -0.121085,-0.4036 -0.226378,-0.82808 -0.32269,-1.26475 a 37.617905,37.617905 0 0 1 -14.777802,5.08745 c 0.124952,0.47437 0.258699,0.94302 0.403605,1.40492 1.117888,3.2879 2.794834,6.14859 5.030607,8.58163 2.301538,2.3673 5.194733,4.24114 8.679906,5.62206 3.48518,1.31516 7.628077,1.97275 12.428417,1.97275 4.8661,0 9.074463,-0.65759 12.625404,-1.97275 3.550937,-1.31516 6.477109,-3.15603 8.778639,-5.52333 2.301538,-2.43304 4.011455,-5.32672 5.129341,-8.68036 0.154703,-0.46412 0.297768,-0.93496 0.431058,-1.41165 a 37.617905,37.617905 0 0 1 -14.709409,-5.08265 z" />
    <path
       id="path889-6"
       style="fill:#37abc8;fill-opacity:1;stroke-width:0.153701"
       d="m -34.073522,100.09321 a 37.617908,37.617908 0 0 1 -31.34826,16.85159 37.617908,37.617908 0 0 1 -5.01572,-0.38056 v 25.45914 H 2.290451 v -25.45914 a 37.617908,37.617908 0 0 1 -5.01572,0.38056 37.617908,37.617908 0 0 1 -31.348253,-16.85159 z" />
    <path
       id="path891-2"
       style="font-weight:bold;font-size:105.833px;line-height:1.25;font-family:Ubuntu;-inkscape-font-specification:'Ubuntu Bold';fill:#ffffff;stroke-width:0.272873"
       d="m -22.065018,111.56518 c -0.567568,2.54845 -1.559937,4.51864 -2.983207,5.90237 -2.30153,2.30153 -5.326628,3.45231 -9.074839,3.45231 -1.841232,0 -3.550666,-0.26284 -5.12886,-0.7889 -1.512436,-0.52608 -2.827611,-1.38105 -3.945499,-2.56467 -1.052129,-1.24942 -1.907089,-2.82742 -2.564671,-4.73443 -0.121085,-0.4036 -0.226378,-0.82808 -0.32269,-1.26475 a 37.617905,37.617905 0 0 1 -14.777802,5.08745 c 0.124952,0.47437 0.258699,0.94302 0.403605,1.40492 1.117888,3.2879 2.794834,6.14859 5.030607,8.58163 2.301538,2.3673 5.194733,4.24114 8.679906,5.62206 3.48518,1.31516 7.628077,1.97275 12.428417,1.97275 4.8661,0 9.074463,-0.65759 12.625404,-1.97275 3.550937,-1.31516 6.477109,-3.15603 8.778639,-5.52333 2.301538,-2.43304 4.011455,-5.32672 5.129341,-8.68036 0.154703,-0.46412 0.297768,-0.93496 0.431058,-1.41165 a 37.617905,37.617905 0 0 1 -14.709409,-5.08265 z" />
  </g>
</svg>
