<?xml version="1.0" encoding="UTF-8" standalone="no"?>
<!-- Created with Inkscape (http://www.inkscape.org/) -->

<svg
   width="237.11212mm"
   height="86.666832mm"
   viewBox="0 0 237.11212 86.666832"
   version="1.1"
   id="svg22023"
   sodipodi:docname="logo_with_tagline.svg"
   inkscape:version="1.1.2 (0a00cf5339, 2022-02-04)"
   xmlns:inkscape="http://www.inkscape.org/namespaces/inkscape"
   xmlns:sodipodi="http://sodipodi.sourceforge.net/DTD/sodipodi-0.dtd"
   xmlns="http://www.w3.org/2000/svg"
   xmlns:svg="http://www.w3.org/2000/svg">
  <sodipodi:namedview
     id="namedview38"
     pagecolor="#ffffff"
     bordercolor="#666666"
     borderopacity="1.0"
     inkscape:pageshadow="2"
     inkscape:pageopacity="0.0"
     inkscape:pagecheckerboard="0"
     inkscape:document-units="mm"
     showgrid="false"
     inkscape:zoom="0.91290816"
     inkscape:cx="587.13464"
     inkscape:cy="208.67378"
     inkscape:window-width="1311"
     inkscape:window-height="1022"
     inkscape:window-x="474"
     inkscape:window-y="206"
     inkscape:window-maximized="0"
     inkscape:current-layer="svg22023" />
  <defs
     id="defs22020" />
  <path
     d="m 95.282738,19.44829 q -0.44867,0 -0.44867,-0.44867 v -6.518923 l -0.0528,-0.21114 -5.33126,-10.741707 q -0.0792,-0.131962 -0.0792,-0.237531 0,-0.131962 0.10557,-0.211139 Q 89.581948,1 89.766698,1 h 3.06152 q 0.36949,0 0.52784,0.343102 l 3.21988,6.862024 q 0.0528,0.07918 0.10557,0.07918 0.0792,0 0.10557,-0.07918 L 100.00695,1.343102 Q 100.19169,1 100.5348,1 h 3.08791 q 0.39588,0 0.39588,0.316709 0,0.131962 -0.0528,0.211139 l -5.384052,10.741707 -0.0528,0.21114 v 6.518923 q 0,0.44867 -0.44867,0.44867 z"
     style="font-weight:bold;font-size:26.3924px;line-height:1.25;font-family:Barlow;-inkscape-font-specification:Barlow;stroke-width:0.65981;fill:#0b090b;fill-opacity:1"
     id="path22165" />
  <path
     d="m 110.14161,19.685822 q -2.24335,0 -3.8269,-1.161266 -1.58354,-1.161265 -2.16417,-3.167088 -0.3695,-1.240443 -0.3695,-2.692025 0,-1.609936 0.39589,-2.797594 0.60703,-1.953038 2.16418,-3.061519 1.58354,-1.10848 3.8269,-1.10848 2.16417,0 3.69493,1.10848 1.55715,1.108481 2.16418,3.035127 0.39588,1.21405 0.39588,2.771202 0,1.372404 -0.3431,2.665632 -0.60702,2.058607 -2.19057,3.246265 -1.55715,1.161266 -3.74772,1.161266 z m 0,-3.19348 q 0.84456,0 1.45158,-0.527848 0.60703,-0.527848 0.87095,-1.451583 0.21114,-0.712594 0.21114,-1.847468 0,-1.10848 -0.21114,-1.87386 -0.26392,-0.897342 -0.87095,-1.398797 -0.60702,-0.501456 -1.50436,-0.501456 -0.87095,0 -1.47798,0.501456 -0.60702,0.501455 -0.87095,1.398797 -0.21114,0.76538 -0.21114,1.87386 0,1.082089 0.21114,1.847468 0.26393,0.923735 0.87095,1.451583 0.63342,0.527848 1.53076,0.527848 z"
     style="font-weight:bold;font-size:26.3924px;line-height:1.25;font-family:Barlow;-inkscape-font-specification:Barlow;stroke-width:0.65981;fill:#0b090b;fill-opacity:1"
     id="path22167" />
  <path
     d="m 126.74241,6.35766 q 0,-0.448671 0.44867,-0.448671 h 2.82399 q 0.44867,0 0.44867,0.448671 v 12.668352 q 0,0.448671 -0.44867,0.448671 h -2.82399 q -0.44867,0 -0.44867,-0.448671 v -0.712595 q 0,-0.105569 -0.0792,-0.105569 -0.0528,-0.02639 -0.10557,0.05278 -1.0293,1.398798 -3.24626,1.398798 -2.00582,0 -3.29905,-1.214051 -1.29323,-1.21405 -1.29323,-3.404619 v -8.6831 q 0,-0.448671 0.44867,-0.448671 h 2.7976 q 0.44867,0 0.44867,0.448671 v 7.759365 q 0,1.055697 0.55424,1.715507 0.58063,0.65981 1.58354,0.65981 0.89734,0 1.47798,-0.527848 0.58063,-0.554241 0.71259,-1.42519 z"
     style="font-weight:bold;font-size:26.3924px;line-height:1.25;font-family:Barlow;-inkscape-font-specification:Barlow;stroke-width:0.65981;fill:#0b090b;fill-opacity:1"
     id="path22169" />
  <path
     d="m 139.96496,5.724242 q 0.84455,0 1.39879,0.316709 0.31671,0.158354 0.23754,0.55424 l -0.50146,2.771202 q -0.0264,0.237532 -0.15835,0.290317 -0.10557,0.05279 -0.3695,0 -0.42228,-0.10557 -0.76538,-0.10557 -0.18475,0 -0.60702,0.05279 -0.95013,0.07918 -1.60994,0.712595 -0.65981,0.607025 -0.65981,1.636329 v 7.073163 q 0,0.448671 -0.44867,0.448671 h -2.82399 q -0.44867,0 -0.44867,-0.448671 V 6.35766 q 0,-0.448671 0.44867,-0.448671 h 2.82399 q 0.44867,0 0.44867,0.448671 v 0.818164 q 0,0.10557 0.0528,0.131962 0.0528,0.02639 0.13197,-0.05279 1.05569,-1.530759 2.85038,-1.530759 z"
     style="font-weight:bold;font-size:26.3924px;line-height:1.25;font-family:Barlow;-inkscape-font-specification:Barlow;stroke-width:0.65981;fill:#0b090b;fill-opacity:1"
     id="path22171" />
  <path
     d="m 149.67731,19.474683 q -0.3431,0 -0.3431,-0.343101 V 1.343104 q 0,-0.343102 0.3431,-0.343102 h 1.18766 q 0.3431,0 0.3431,0.343102 v 10.662529 q 0,0.07918 0.0528,0.131962 0.0528,0.02639 0.10557,-0.05278 l 5.51601,-5.779936 q 0.15835,-0.184747 0.42228,-0.184747 h 1.39879 q 0.29032,0 0.29032,0.211139 0,0.07918 -0.0792,0.211139 l -3.27265,3.615759 q -0.0792,0.07918 -0.0264,0.184747 l 3.95886,8.735885 q 0.0528,0.105569 0.0528,0.158354 0,0.237532 -0.31671,0.237532 h -1.24044 q -0.26393,0 -0.39589,-0.263924 l -3.35183,-7.627404 q -0.0264,-0.05279 -0.0792,-0.05279 -0.0528,-0.02639 -0.10557,0.02639 l -2.87677,3.008733 q -0.0528,0.10557 -0.0528,0.184747 v 4.381139 q 0,0.343101 -0.3431,0.343101 z"
     id="path22173"
     style="font-size:26.3924px;line-height:1.25;font-family:Barlow;-inkscape-font-specification:Barlow;stroke-width:0.65981;fill:#0b090b;fill-opacity:1" />
  <path
     d="m 167.25461,18.075886 q 1.18766,-0.02639 2.03222,-0.527848 0.87095,-0.527848 1.34601,-1.451582 0.0528,-0.131962 0.18475,-0.184747 0.13196,-0.05279 0.26392,0.02639 l 0.76538,0.422279 q 0.31671,0.184746 0.15836,0.44867 -0.63342,1.31962 -1.90026,2.111392 -1.26683,0.76538 -3.00873,0.76538 -1.84747,0 -3.1143,-0.870949 -1.26684,-0.870949 -1.82108,-2.428101 -0.50145,-1.31962 -0.50145,-3.642151 0,-1.134874 0.0264,-1.794684 0.0528,-0.686202 0.21114,-1.266835 0.44867,-1.715506 1.79468,-2.74481 1.3724,-1.029303 3.29905,-1.029303 2.29614,0 3.58937,1.187658 1.31962,1.187658 1.68911,3.351835 0.15835,0.844557 0.15835,2.63924 0,0.343101 -0.3431,0.343101 h -8.44556 q -0.13197,0 -0.13197,0.131962 0,1.31962 0.15836,1.926645 0.29031,1.187658 1.21405,1.900253 0.95012,0.686203 2.37531,0.686203 z M 166.99069,7.545318 q -1.31962,0 -2.16418,0.686202 -0.84455,0.65981 -1.10848,1.794683 -0.15835,0.527848 -0.21114,1.794684 0,0.131962 0.13197,0.131962 h 6.78284 q 0.13196,0 0.13196,-0.131962 -0.0528,-1.161266 -0.15835,-1.689114 -0.29032,-1.187658 -1.18766,-1.87386 -0.87095,-0.712595 -2.21696,-0.712595 z"
     id="path22175"
     style="font-size:26.3924px;line-height:1.25;font-family:Barlow;-inkscape-font-specification:Barlow;stroke-width:0.65981;fill:#0b090b;fill-opacity:1" />
  <path
     d="m 175.19868,24.75316 q -0.18475,0 -0.18475,-0.3431 v -0.923732 q 0,-0.343101 0.18475,-0.343101 h 0.18474 q 1.02931,0 1.58355,-0.290317 0.58063,-0.290316 0.97651,-1.029304 0.42228,-0.738987 0.89735,-2.269746 0.0264,-0.05279 0,-0.158354 L 174.4069,6.516014 q -0.0264,-0.05279 -0.0264,-0.131962 0,-0.10557 0.0792,-0.184747 0.10557,-0.07918 0.23753,-0.07918 h 1.24044 q 0.31671,0 0.39589,0.290316 l 3.40462,10.345822 q 0.0264,0.105569 0.0792,0.105569 0.0528,0 0.0792,-0.105569 l 3.32544,-10.345822 q 0.0792,-0.290316 0.3695,-0.290316 h 1.26683 q 0.18475,0 0.26393,0.10557 0.0792,0.105569 0.0264,0.290316 l -4.8562,14.119934 q -0.63342,1.768291 -1.18766,2.612848 -0.55424,0.844557 -1.3988,1.161267 -0.81816,0.3431 -2.32253,0.3431 z"
     id="path22177"
     style="font-size:26.3924px;line-height:1.25;font-family:Barlow;-inkscape-font-specification:Barlow;stroke-width:0.65981;fill:#0b090b;fill-opacity:1" />
  <path
     d="m 191.53553,19.606645 q -1.47798,0 -2.63924,-0.475063 -1.13488,-0.475064 -1.7683,-1.266836 -0.60702,-0.791772 -0.60702,-1.76829 v -0.237532 q 0,-0.343101 0.3431,-0.343101 h 1.13487 q 0.15836,0 0.23753,0.07918 0.10557,0.05279 0.10557,0.158354 v 0.237532 q 0,0.870949 0.89735,1.530759 0.89734,0.633418 2.26974,0.633418 1.37241,0 2.21696,-0.607025 0.84456,-0.633418 0.84456,-1.583544 0,-0.65981 -0.42228,-1.082089 -0.42228,-0.422278 -1.0293,-0.65981 -0.60703,-0.237532 -1.82108,-0.607025 -1.47797,-0.422279 -2.4281,-0.844557 -0.95012,-0.422278 -1.60993,-1.161266 -0.65981,-0.765379 -0.65981,-1.926645 0,-1.689113 1.31962,-2.692025 1.34601,-1.002911 3.51019,-1.002911 1.45158,0 2.56006,0.475063 1.13487,0.475063 1.7419,1.31962 0.60702,0.818165 0.60702,1.847468 0,0.343102 -0.3431,0.343102 h -1.08209 q -0.3431,0 -0.3431,-0.184747 V 9.63032 q 0,-0.897341 -0.87095,-1.504366 -0.84455,-0.607026 -2.29614,-0.607026 -1.34601,0 -2.16417,0.554241 -0.81817,0.527848 -0.81817,1.477974 0,0.897342 0.76538,1.372405 0.79177,0.475063 2.45449,0.950126 1.53076,0.422279 2.48089,0.818165 0.95013,0.395886 1.63633,1.161265 0.6862,0.76538 0.6862,1.979431 0,1.715506 -1.34601,2.744809 -1.31962,1.029304 -3.56297,1.029304 z"
     id="path22179"
     style="font-size:26.3924px;line-height:1.25;font-family:Barlow;-inkscape-font-specification:Barlow;stroke-width:0.65981;fill:#0b090b;fill-opacity:1" />
  <path
     d="m 201.32707,19.395506 q -0.7126,0 -1.18766,-0.448671 -0.44867,-0.448671 -0.44867,-1.108481 0,-0.633418 0.47506,-1.082088 0.50146,-0.475064 1.16127,-0.475064 0.63342,0 1.13487,0.475064 0.50146,0.44867 0.50146,1.082088 0,0.65981 -0.47507,1.108481 -0.47506,0.448671 -1.16126,0.448671 z"
     id="path22181"
     style="font-size:26.3924px;line-height:1.25;font-family:Barlow;-inkscape-font-specification:Barlow;stroke-width:0.65981;fill:#0b090b;fill-opacity:1" />
  <path
     d="m 95.282738,52.43879 q -0.44867,0 -0.44867,-0.44867 V 45.4712 l -0.0528,-0.21114 -5.33126,-10.74171 q -0.0792,-0.13196 -0.0792,-0.23753 0,-0.13196 0.10557,-0.21114 0.10557,-0.0792 0.29032,-0.0792 h 3.06152 q 0.36949,0 0.52784,0.3431 l 3.21988,6.86203 q 0.0528,0.0792 0.10557,0.0792 0.0792,0 0.10557,-0.0792 l 3.219872,-6.86203 q 0.18474,-0.3431 0.52785,-0.3431 h 3.08791 q 0.39588,0 0.39588,0.31671 0,0.13196 -0.0528,0.21114 l -5.384052,10.74171 -0.0528,0.21114 v 6.51892 q 0,0.44867 -0.44867,0.44867 z"
     style="font-weight:bold;font-size:26.3924px;line-height:1.25;font-family:Barlow;-inkscape-font-specification:Barlow;stroke-width:0.65981;fill:#0b090b;fill-opacity:1"
     id="path22183" />
  <path
     d="m 110.14161,52.67632 q -2.24335,0 -3.8269,-1.16126 -1.58354,-1.16127 -2.16417,-3.16709 -0.3695,-1.24044 -0.3695,-2.69203 0,-1.60993 0.39589,-2.79759 0.60703,-1.95304 2.16418,-3.06152 1.58354,-1.10848 3.8269,-1.10848 2.16417,0 3.69493,1.10848 1.55715,1.10848 2.16418,3.03513 0.39588,1.21405 0.39588,2.7712 0,1.3724 -0.3431,2.66563 -0.60702,2.05861 -2.19057,3.24627 -1.55715,1.16126 -3.74772,1.16126 z m 0,-3.19348 q 0.84456,0 1.45158,-0.52785 0.60703,-0.52784 0.87095,-1.45158 0.21114,-0.71259 0.21114,-1.84747 0,-1.10848 -0.21114,-1.87386 -0.26392,-0.89734 -0.87095,-1.39879 -0.60702,-0.50146 -1.50436,-0.50146 -0.87095,0 -1.47798,0.50146 -0.60702,0.50145 -0.87095,1.39879 -0.21114,0.76538 -0.21114,1.87386 0,1.08209 0.21114,1.84747 0.26393,0.92374 0.87095,1.45158 0.63342,0.52785 1.53076,0.52785 z"
     style="font-weight:bold;font-size:26.3924px;line-height:1.25;font-family:Barlow;-inkscape-font-specification:Barlow;stroke-width:0.65981;fill:#0b090b;fill-opacity:1"
     id="path22185" />
  <path
     d="m 126.74241,39.34816 q 0,-0.44867 0.44867,-0.44867 h 2.82399 q 0.44867,0 0.44867,0.44867 v 12.66835 q 0,0.44867 -0.44867,0.44867 h -2.82399 q -0.44867,0 -0.44867,-0.44867 v -0.71259 q 0,-0.10557 -0.0792,-0.10557 -0.0528,-0.0264 -0.10557,0.0528 -1.0293,1.3988 -3.24626,1.3988 -2.00582,0 -3.29905,-1.21405 -1.29323,-1.21405 -1.29323,-3.40462 v -8.6831 q 0,-0.44867 0.44867,-0.44867 h 2.7976 q 0.44867,0 0.44867,0.44867 v 7.75937 q 0,1.05569 0.55424,1.7155 0.58063,0.65981 1.58354,0.65981 0.89734,0 1.47798,-0.52785 0.58063,-0.55424 0.71259,-1.42519 z"
     style="font-weight:bold;font-size:26.3924px;line-height:1.25;font-family:Barlow;-inkscape-font-specification:Barlow;stroke-width:0.65981;fill:#0b090b;fill-opacity:1"
     id="path22187" />
  <path
     d="m 139.96496,38.71474 q 0.84455,0 1.39879,0.31671 0.31671,0.15836 0.23754,0.55424 l -0.50146,2.7712 q -0.0264,0.23754 -0.15835,0.29032 -0.10557,0.0528 -0.3695,0 -0.42228,-0.10557 -0.76538,-0.10557 -0.18475,0 -0.60702,0.0528 -0.95013,0.0792 -1.60994,0.71259 -0.65981,0.60703 -0.65981,1.63633 v 7.07316 q 0,0.44867 -0.44867,0.44867 h -2.82399 q -0.44867,0 -0.44867,-0.44867 V 39.34817 q 0,-0.44867 0.44867,-0.44867 h 2.82399 q 0.44867,0 0.44867,0.44867 v 0.81817 q 0,0.10556 0.0528,0.13196 0.0528,0.0264 0.13197,-0.0528 1.05569,-1.53076 2.85038,-1.53076 z"
     style="font-weight:bold;font-size:26.3924px;line-height:1.25;font-family:Barlow;-inkscape-font-specification:Barlow;stroke-width:0.65981;fill:#0b090b;fill-opacity:1"
     id="path22189" />
  <path
     d="m 154.37516,52.67632 q -1.90025,0 -3.27266,-0.97652 -1.34601,-1.00291 -1.84747,-2.69202 -0.3431,-1.16127 -0.3431,-3.27266 0,-1.90025 0.3431,-3.21987 0.47507,-1.63633 1.84747,-2.61285 1.37241,-1.00291 3.27266,-1.00291 1.92665,0 3.32544,0.97652 1.42519,0.97652 1.84747,2.4281 0.10557,0.36949 0.15835,0.71259 v 0.0528 q 0,0.29032 -0.3167,0.3431 l -1.16127,0.13196 h -0.0792 q -0.23753,0 -0.31671,-0.29031 0,-0.10557 -0.0528,-0.31671 -0.23753,-1.00291 -1.16127,-1.68912 -0.92373,-0.71259 -2.24335,-0.71259 -1.31962,0 -2.21696,0.71259 -0.87095,0.68621 -1.13487,1.84747 -0.23754,1.00291 -0.23754,2.66563 0,1.7419 0.23754,2.69203 0.26392,1.18766 1.13487,1.90025 0.89734,0.6862 2.21696,0.6862 1.29323,0 2.21696,-0.65981 0.95013,-0.6862 1.16127,-1.7155 0.0264,-0.0528 0.0264,-0.13196 l 0.0264,-0.0264 q 0.0264,-0.3431 0.39589,-0.29031 l 1.13487,0.18474 q 0.3431,0.0528 0.31671,0.39589 l -0.10557,0.44867 q -0.39589,1.53076 -1.82108,2.48089 -1.42518,0.95012 -3.35183,0.95012 z"
     id="path22191"
     style="font-size:26.3924px;line-height:1.25;font-family:Barlow;-inkscape-font-specification:Barlow;stroke-width:0.65981;fill:#0b090b;fill-opacity:1" />
  <path
     d="m 168.44228,38.97867 q 0.87094,0 1.45158,0.31671 0.26392,0.10557 0.18474,0.42227 l -0.26392,1.16127 q -0.0792,0.31671 -0.42228,0.21114 -0.50145,-0.15836 -1.29323,-0.13196 -1.3724,0.0528 -2.26974,1.0293 -0.89734,0.95013 -0.89734,2.4281 v 7.70658 q 0,0.3431 -0.34311,0.3431 h -1.18765 q -0.3431,0 -0.3431,-0.3431 V 39.45373 q 0,-0.3431 0.3431,-0.3431 h 1.18765 q 0.34311,0 0.34311,0.3431 v 1.47797 q 0,0.10557 0.0264,0.13197 0.0528,0 0.10557,-0.0792 0.55424,-0.95013 1.3988,-1.47798 0.87094,-0.52784 1.97943,-0.52784 z"
     id="path22193"
     style="font-size:26.3924px;line-height:1.25;font-family:Barlow;-inkscape-font-specification:Barlow;stroke-width:0.65981;fill:#0b090b;fill-opacity:1" />
  <path
     d="m 172.79697,57.74366 q -0.18474,0 -0.18474,-0.3431 v -0.92373 q 0,-0.3431 0.18474,-0.3431 h 0.18475 q 1.0293,0 1.58354,-0.29032 0.58064,-0.29032 0.97652,-1.0293 0.42228,-0.73899 0.89734,-2.26975 0.0264,-0.0528 0,-0.15835 l -4.43392,-12.8795 q -0.0264,-0.0528 -0.0264,-0.13196 0,-0.10557 0.0792,-0.18474 0.10556,-0.0792 0.23753,-0.0792 h 1.24044 q 0.31671,0 0.39589,0.29032 l 3.40462,10.34582 q 0.0264,0.10557 0.0792,0.10557 0.0528,0 0.0792,-0.10557 l 3.32544,-10.34582 q 0.0792,-0.29032 0.3695,-0.29032 h 1.26683 q 0.18475,0 0.26392,0.10557 0.0792,0.10557 0.0264,0.29031 l -4.8562,14.11994 q -0.63342,1.76829 -1.18766,2.61285 -0.55424,0.84455 -1.3988,1.16126 -0.81816,0.3431 -2.32253,0.3431 z"
     id="path22195"
     style="font-size:26.3924px;line-height:1.25;font-family:Barlow;-inkscape-font-specification:Barlow;stroke-width:0.65981;fill:#0b090b;fill-opacity:1" />
  <path
     d="m 195.94307,42.43607 q 0.3695,1.18766 0.3695,3.35184 0,2.19057 -0.31671,3.27265 -0.47506,1.68912 -1.7419,2.66564 -1.26684,0.95012 -3.1407,0.95012 -1.0293,0 -1.90025,-0.39588 -0.87095,-0.42228 -1.45158,-1.18766 -0.0528,-0.0792 -0.10557,-0.0528 -0.0528,0.0264 -0.0528,0.10557 v 6.09665 q 0,0.3431 -0.3431,0.3431 h -1.18765 q -0.34311,0 -0.34311,-0.3431 V 39.45372 q 0,-0.3431 0.34311,-0.3431 h 1.18765 q 0.3431,0 0.3431,0.3431 v 1.00291 q 0,0.0792 0.0528,0.10557 0.0528,0 0.10557,-0.0528 0.58063,-0.76538 1.42519,-1.18766 0.87095,-0.42228 1.92664,-0.42228 1.84747,0 3.08791,0.95013 1.26684,0.95012 1.7419,2.58645 z m -2.11139,6.67728 q 0.31671,-0.58063 0.44867,-1.29323 0.15836,-0.73899 0.15836,-2.03221 0,-1.24045 -0.10557,-1.92665 -0.10557,-0.71259 -0.3695,-1.26683 -0.31671,-0.95013 -1.13487,-1.50437 -0.79177,-0.55424 -1.90025,-0.55424 -1.0557,0 -1.76829,0.55424 -0.7126,0.55424 -1.0557,1.47797 -0.23753,0.52785 -0.3431,1.24045 -0.10557,0.71259 -0.10557,1.97943 0,1.26683 0.10557,2.00582 0.10557,0.71259 0.36949,1.26683 0.31671,0.89735 1.02931,1.45159 0.73898,0.52784 1.74189,0.52784 1.0557,0 1.82108,-0.52784 0.76538,-0.52785 1.10848,-1.3988 z"
     id="path22197"
     style="font-size:26.3924px;line-height:1.25;font-family:Barlow;-inkscape-font-specification:Barlow;stroke-width:0.65981;fill:#0b090b;fill-opacity:1" />
  <path
     d="m 205.91931,40.32468 q 0,0.3431 -0.3431,0.3431 h -2.87677 q -0.13196,0 -0.13196,0.13196 v 7.70658 q 0,1.26684 0.55424,1.79469 0.58063,0.50145 1.79468,0.50145 h 0.58063 q 0.3431,0 0.3431,0.3431 v 0.92374 q 0,0.3431 -0.3431,0.36949 h -0.89734 q -1.90025,0 -2.87677,-0.71259 -0.97652,-0.7126 -0.97652,-2.63924 v -8.28722 q 0,-0.13196 -0.13196,-0.13196 h -1.50437 q -0.3431,0 -0.3431,-0.3431 v -0.87095 q 0,-0.3431 0.3431,-0.3431 h 1.50437 q 0.13196,0 0.13196,-0.13196 v -2.95595 q 0,-0.3431 0.3431,-0.3431 h 1.13487 q 0.34311,0 0.34311,0.3431 v 2.95595 q 0,0.13196 0.13196,0.13196 h 2.87677 q 0.3431,0 0.3431,0.3431 z"
     id="path22199"
     style="font-size:26.3924px;line-height:1.25;font-family:Barlow;-inkscape-font-specification:Barlow;stroke-width:0.65981;fill:#0b090b;fill-opacity:1" />
  <path
     d="m 214.25924,52.67632 q -1.92665,0 -3.29905,-0.97652 -1.34601,-0.97651 -1.87386,-2.69202 -0.3695,-1.21405 -0.3695,-3.24627 0,-2.00582 0.34311,-3.21987 0.52784,-1.68911 1.87386,-2.66563 1.3724,-0.97652 3.32544,-0.97652 1.90025,0 3.24626,0.97652 1.37241,0.97652 1.87386,2.63924 0.3695,1.26683 0.3695,3.24626 0,2.03222 -0.3695,3.24627 -0.52784,1.71551 -1.90025,2.69202 -1.34601,0.97652 -3.21987,0.97652 z m 0,-1.63633 q 1.26683,0 2.16418,-0.6862 0.89734,-0.71259 1.21405,-1.90025 0.21113,-0.84456 0.21113,-2.66563 0,-1.90026 -0.21113,-2.66564 -0.29032,-1.18765 -1.21405,-1.87386 -0.89735,-0.71259 -2.21697,-0.71259 -1.26683,0 -2.16417,0.71259 -0.89735,0.68621 -1.21405,1.87386 -0.21114,0.76538 -0.21114,2.66564 0,1.90025 0.21114,2.66563 0.29031,1.18766 1.18765,1.90025 0.92374,0.6862 2.24336,0.6862 z"
     id="path22201"
     style="font-size:26.3924px;line-height:1.25;font-family:Barlow;-inkscape-font-specification:Barlow;stroke-width:0.65981;fill:#0b090b;fill-opacity:1" />
  <path
     d="m 224.76339,52.38601 q -0.7126,0 -1.18766,-0.44867 -0.44867,-0.44868 -0.44867,-1.10849 0,-0.63341 0.47506,-1.08208 0.50146,-0.47507 1.16127,-0.47507 0.63341,0 1.13487,0.47507 0.50145,0.44867 0.50145,1.08208 0,0.65981 -0.47506,1.10849 -0.47506,0.44867 -1.16126,0.44867 z"
     id="path22203"
     style="font-size:26.3924px;line-height:1.25;font-family:Barlow;-inkscape-font-specification:Barlow;stroke-width:0.65981;fill:#0b090b;fill-opacity:1" />
  <path
     d="m 95.282738,85.42929 q -0.44867,0 -0.44867,-0.44867 V 78.4617 l -0.0528,-0.21114 -5.33126,-10.74171 q -0.0792,-0.13196 -0.0792,-0.23753 0,-0.13196 0.10557,-0.21114 0.10557,-0.0792 0.29032,-0.0792 h 3.06152 q 0.36949,0 0.52784,0.34311 l 3.21988,6.86202 q 0.0528,0.0792 0.10557,0.0792 0.0792,0 0.10557,-0.0792 l 3.219872,-6.86202 q 0.18474,-0.34311 0.52785,-0.34311 h 3.08791 q 0.39588,0 0.39588,0.31671 0,0.13196 -0.0528,0.21114 l -5.384052,10.74171 -0.0528,0.21114 v 6.51892 q 0,0.44867 -0.44867,0.44867 z"
     style="font-weight:bold;font-size:26.3924px;line-height:1.25;font-family:Barlow;-inkscape-font-specification:Barlow;stroke-width:0.65981;fill:#0b090b;fill-opacity:1"
     id="path22205" />
  <path
     d="m 110.14161,85.66682 q -2.24335,0 -3.8269,-1.16126 -1.58354,-1.16127 -2.16417,-3.16709 -0.3695,-1.24044 -0.3695,-2.69202 0,-1.60994 0.39589,-2.7976 0.60703,-1.95304 2.16418,-3.06152 1.58354,-1.10848 3.8269,-1.10848 2.16417,0 3.69493,1.10848 1.55715,1.10848 2.16418,3.03513 0.39588,1.21405 0.39588,2.7712 0,1.37241 -0.3431,2.66563 -0.60702,2.05861 -2.19057,3.24627 -1.55715,1.16126 -3.74772,1.16126 z m 0,-3.19348 q 0.84456,0 1.45158,-0.52784 0.60703,-0.52785 0.87095,-1.45159 0.21114,-0.71259 0.21114,-1.84746 0,-1.10849 -0.21114,-1.87387 -0.26392,-0.89734 -0.87095,-1.39879 -0.60702,-0.50146 -1.50436,-0.50146 -0.87095,0 -1.47798,0.50146 -0.60702,0.50145 -0.87095,1.39879 -0.21114,0.76538 -0.21114,1.87387 0,1.08208 0.21114,1.84746 0.26393,0.92374 0.87095,1.45159 0.63342,0.52784 1.53076,0.52784 z"
     style="font-weight:bold;font-size:26.3924px;line-height:1.25;font-family:Barlow;-inkscape-font-specification:Barlow;stroke-width:0.65981;fill:#0b090b;fill-opacity:1"
     id="path22207" />
  <path
     d="m 126.74241,72.33866 q 0,-0.44867 0.44867,-0.44867 h 2.82399 q 0.44867,0 0.44867,0.44867 v 12.66835 q 0,0.44867 -0.44867,0.44867 h -2.82399 q -0.44867,0 -0.44867,-0.44867 v -0.71259 q 0,-0.10557 -0.0792,-0.10557 -0.0528,-0.0264 -0.10557,0.0528 -1.0293,1.3988 -3.24626,1.3988 -2.00582,0 -3.29905,-1.21405 -1.29323,-1.21405 -1.29323,-3.40462 v -8.6831 q 0,-0.44867 0.44867,-0.44867 h 2.7976 q 0.44867,0 0.44867,0.44867 v 7.75937 q 0,1.05569 0.55424,1.7155 0.58063,0.65981 1.58354,0.65981 0.89734,0 1.47798,-0.52784 0.58063,-0.55425 0.71259,-1.42519 z"
     style="font-weight:bold;font-size:26.3924px;line-height:1.25;font-family:Barlow;-inkscape-font-specification:Barlow;stroke-width:0.65981;fill:#0b090b;fill-opacity:1"
     id="path22209" />
  <path
     d="m 139.96496,71.70524 q 0.84455,0 1.39879,0.31671 0.31671,0.15836 0.23754,0.55424 l -0.50146,2.77121 q -0.0264,0.23753 -0.15835,0.29031 -0.10557,0.0528 -0.3695,0 -0.42228,-0.10557 -0.76538,-0.10557 -0.18475,0 -0.60702,0.0528 -0.95013,0.0792 -1.60994,0.71259 -0.65981,0.60703 -0.65981,1.63633 v 7.07316 q 0,0.44867 -0.44867,0.44867 h -2.82399 q -0.44867,0 -0.44867,-0.44867 V 72.33867 q 0,-0.44867 0.44867,-0.44867 h 2.82399 q 0.44867,0 0.44867,0.44867 v 0.81817 q 0,0.10557 0.0528,0.13196 0.0528,0.0264 0.13197,-0.0528 1.05569,-1.53076 2.85038,-1.53076 z"
     style="font-weight:bold;font-size:26.3924px;line-height:1.25;font-family:Barlow;-inkscape-font-specification:Barlow;stroke-width:0.65981;fill:#0b090b;fill-opacity:1"
     id="path22211" />
  <path
     d="m 154.71826,71.96917 q 0.87095,0 1.45158,0.31671 0.26393,0.10557 0.18475,0.42228 l -0.26392,1.16126 q -0.0792,0.31671 -0.42228,0.21114 -0.50146,-0.15835 -1.29323,-0.13196 -1.3724,0.0528 -2.26975,1.0293 -0.89734,0.95013 -0.89734,2.4281 v 7.70658 q 0,0.3431 -0.3431,0.3431 h -1.18766 q -0.3431,0 -0.3431,-0.3431 V 72.44423 q 0,-0.3431 0.3431,-0.3431 h 1.18766 q 0.3431,0 0.3431,0.3431 v 1.47798 q 0,0.10557 0.0264,0.13196 0.0528,0 0.10557,-0.0792 0.55424,-0.95013 1.3988,-1.47797 0.87095,-0.52785 1.97943,-0.52785 z"
     id="path22213"
     style="font-size:26.3924px;line-height:1.25;font-family:Barlow;-inkscape-font-specification:Barlow;stroke-width:0.65981;fill:#0b090b;fill-opacity:1" />
  <path
     d="m 164.00831,84.05689 q 1.18766,-0.0264 2.03222,-0.52785 0.87095,-0.52785 1.34601,-1.45158 0.0528,-0.13196 0.18475,-0.18475 0.13196,-0.0528 0.26392,0.0264 l 0.76538,0.42228 q 0.31671,0.18475 0.15836,0.44867 -0.63342,1.31962 -1.90026,2.11139 -1.26683,0.76538 -3.00873,0.76538 -1.84747,0 -3.1143,-0.87095 -1.26684,-0.87094 -1.82108,-2.4281 -0.50145,-1.31962 -0.50145,-3.64215 0,-1.13487 0.0264,-1.79468 0.0528,-0.6862 0.21114,-1.26684 0.44867,-1.7155 1.79468,-2.74481 1.37241,-1.0293 3.29905,-1.0293 2.29614,0 3.58937,1.18766 1.31962,1.18766 1.68911,3.35183 0.15835,0.84456 0.15835,2.63924 0,0.3431 -0.3431,0.3431 h -8.44556 q -0.13197,0 -0.13197,0.13197 0,1.31962 0.15836,1.92664 0.29031,1.18766 1.21405,1.90026 0.95012,0.6862 2.37531,0.6862 z m -0.26392,-10.53057 q -1.31962,0 -2.16418,0.6862 -0.84455,0.65981 -1.10848,1.79469 -0.15835,0.52784 -0.21114,1.79468 0,0.13196 0.13197,0.13196 h 6.78284 q 0.13196,0 0.13196,-0.13196 -0.0528,-1.16127 -0.15835,-1.68912 -0.29032,-1.18765 -1.18766,-1.87386 -0.87095,-0.71259 -2.21696,-0.71259 z"
     id="path22215"
     style="font-size:26.3924px;line-height:1.25;font-family:Barlow;-inkscape-font-specification:Barlow;stroke-width:0.65981;fill:#0b090b;fill-opacity:1" />
  <path
     d="m 178.70879,73.31518 q 0,0.3431 -0.3431,0.3431 h -2.87677 q -0.13196,0 -0.13196,0.13196 v 7.70658 q 0,1.26684 0.55424,1.79469 0.58063,0.50145 1.79468,0.50145 h 0.58063 q 0.34311,0 0.34311,0.3431 v 0.92374 q 0,0.3431 -0.34311,0.36949 h -0.89734 q -1.90025,0 -2.87677,-0.71259 -0.97652,-0.7126 -0.97652,-2.63924 v -8.28722 q 0,-0.13196 -0.13196,-0.13196 h -1.50437 q -0.3431,0 -0.3431,-0.3431 v -0.87095 q 0,-0.3431 0.3431,-0.3431 h 1.50437 q 0.13196,0 0.13196,-0.13196 v -2.95595 q 0,-0.3431 0.3431,-0.3431 h 1.13488 q 0.3431,0 0.3431,0.3431 v 2.95595 q 0,0.13196 0.13196,0.13196 h 2.87677 q 0.3431,0 0.3431,0.3431 z"
     id="path22217"
     style="font-size:26.3924px;line-height:1.25;font-family:Barlow;-inkscape-font-specification:Barlow;stroke-width:0.65981;fill:#0b090b;fill-opacity:1" />
  <path
     d="m 190.40059,72.44423 q 0,-0.3431 0.3431,-0.3431 h 1.18766 q 0.3431,0 0.3431,0.3431 v 12.66835 q 0,0.3431 -0.3431,0.3431 h -1.18766 q -0.3431,0 -0.3431,-0.3431 v -1.00291 q 0,-0.0792 -0.0528,-0.10557 -0.0528,-0.0264 -0.10557,0.0528 -1.13487,1.58354 -3.48379,1.58354 -1.26684,0 -2.34893,-0.50145 -1.05569,-0.52785 -1.68911,-1.50437 -0.60702,-0.97652 -0.60702,-2.34892 v -8.84146 q 0,-0.3431 0.3431,-0.3431 h 1.18765 q 0.34311,0 0.34311,0.3431 v 8.28721 q 0,1.50437 0.84455,2.40171 0.84456,0.87095 2.29614,0.87095 1.50437,0 2.37532,-0.89734 0.89734,-0.89734 0.89734,-2.37532 z"
     id="path22219"
     style="font-size:26.3924px;line-height:1.25;font-family:Barlow;-inkscape-font-specification:Barlow;stroke-width:0.65981;fill:#0b090b;fill-opacity:1" />
  <path
     d="m 201.85487,71.96917 q 0.87095,0 1.45159,0.31671 0.26392,0.10557 0.18474,0.42228 l -0.26392,1.16126 q -0.0792,0.31671 -0.42228,0.21114 -0.50146,-0.15835 -1.29323,-0.13196 -1.3724,0.0528 -2.26974,1.0293 -0.89735,0.95013 -0.89735,2.4281 v 7.70658 q 0,0.3431 -0.3431,0.3431 h -1.18766 q -0.3431,0 -0.3431,-0.3431 V 72.44423 q 0,-0.3431 0.3431,-0.3431 h 1.18766 q 0.3431,0 0.3431,0.3431 v 1.47798 q 0,0.10557 0.0264,0.13196 0.0528,0 0.10557,-0.0792 0.55424,-0.95013 1.39879,-1.47797 0.87095,-0.52785 1.97943,-0.52785 z"
     id="path22221"
     style="font-size:26.3924px;line-height:1.25;font-family:Barlow;-inkscape-font-specification:Barlow;stroke-width:0.65981;fill:#0b090b;fill-opacity:1" />
  <path
     d="m 211.62002,71.91638 q 2.085,0 3.32544,1.24045 1.26683,1.24044 1.26683,3.32544 v 8.63031 q 0,0.3431 -0.3431,0.3431 h -1.18766 q -0.3431,0 -0.3431,-0.3431 v -8.26082 q 0,-1.47797 -0.87095,-2.37531 -0.87095,-0.92374 -2.26974,-0.92374 -1.34601,0 -2.24336,0.76538 -0.87095,0.76538 -1.00291,2.00582 v 8.78867 q 0,0.3431 -0.3431,0.3431 h -1.18766 q -0.3431,0 -0.3431,-0.3431 V 72.44423 q 0,-0.3431 0.3431,-0.3431 h 1.18766 q 0.3431,0 0.3431,0.3431 v 0.97652 q 0,0.0792 0.0528,0.13196 0.0528,0.0264 0.0792,-0.0528 1.16127,-1.58355 3.53659,-1.58355 z"
     id="path22223"
     style="font-size:26.3924px;line-height:1.25;font-family:Barlow;-inkscape-font-specification:Barlow;stroke-width:0.65981;fill:#0b090b;fill-opacity:1" />
  <path
     d="m 224.68424,85.58765 q -1.47797,0 -2.63924,-0.47507 -1.13487,-0.47506 -1.76829,-1.26683 -0.60702,-0.79177 -0.60702,-1.76829 v -0.23753 q 0,-0.34311 0.3431,-0.34311 h 1.13487 q 0.15836,0 0.23753,0.0792 0.10557,0.0528 0.10557,0.15836 v 0.23753 q 0,0.87095 0.89735,1.53076 0.89734,0.63341 2.26974,0.63341 1.37241,0 2.21696,-0.60702 0.84456,-0.63342 0.84456,-1.58354 0,-0.65981 -0.42228,-1.08209 -0.42228,-0.42228 -1.0293,-0.65981 -0.60703,-0.23753 -1.82108,-0.60703 -1.47797,-0.42228 -2.4281,-0.84456 -0.95012,-0.42227 -1.60993,-1.16126 -0.65981,-0.76538 -0.65981,-1.92665 0,-1.68911 1.31962,-2.69202 1.34601,-1.00291 3.51019,-1.00291 1.45158,0 2.56006,0.47506 1.13487,0.47506 1.7419,1.31962 0.60702,0.81817 0.60702,1.84747 0,0.3431 -0.3431,0.3431 h -1.08209 q -0.3431,0 -0.3431,-0.18475 v -0.15835 q 0,-0.89734 -0.87095,-1.50437 -0.84456,-0.60702 -2.29614,-0.60702 -1.34601,0 -2.16417,0.55424 -0.81817,0.52785 -0.81817,1.47797 0,0.89734 0.76538,1.37241 0.79177,0.47506 2.45449,0.95012 1.53076,0.42228 2.48089,0.81817 0.95013,0.39588 1.63633,1.16126 0.6862,0.76538 0.6862,1.97943 0,1.71551 -1.34601,2.74481 -1.31962,1.02931 -3.56298,1.02931 z"
     id="path22225"
     style="font-size:26.3924px;line-height:1.25;font-family:Barlow;-inkscape-font-specification:Barlow;stroke-width:0.65981;fill:#0b090b;fill-opacity:1" />
  <path
     d="m 234.47579,85.37651 q -0.7126,0 -1.18766,-0.44867 -0.44867,-0.44867 -0.44867,-1.10848 0,-0.63342 0.47506,-1.08209 0.50146,-0.47507 1.16127,-0.47507 0.63342,0 1.13487,0.47507 0.50146,0.44867 0.50146,1.08209 0,0.65981 -0.47507,1.10848 -0.47506,0.44867 -1.16126,0.44867 z"
     id="path22227"
     style="font-size:26.3924px;line-height:1.25;font-family:Barlow;-inkscape-font-specification:Barlow;stroke-width:0.65981;fill:#0b090b;fill-opacity:1" />
  <path
     id="path25942-3"
     style="font-size:98.6362px;line-height:1.25;font-family:Ubuntu;-inkscape-font-specification:Ubuntu;letter-spacing:4.93185px;fill:#0b090b;fill-opacity:1;stroke-width:0.298013"
     d="m 10.174978,1.000169 v 46.429508 c 0,3.77429 0.42767,7.281137 1.280576,10.522352 A 41.084016,41.084294 0 0 0 27.595099,52.397374 C 27.187177,50.545037 26.979925,48.42568 26.979925,46.029444 V 1.000169 Z m 44.274397,0 v 45.029275 c 0,2.402547 -0.208489,4.521282 -0.61856,6.365673 a 41.084016,41.084294 0 0 0 16.065608,5.549011 c 0.904717,-3.238987 1.357901,-6.743266 1.357901,-10.514451 V 1.000169 Z" />
  <path
     id="path926"
     style="fill:#37abc8;fill-opacity:1;stroke-width:0.167864"
     d="M 40.715214,39.873155 A 41.084016,41.084294 0 0 1 27.596793,52.404144 c 0.105184,0.476909 0.220492,0.940821 0.352736,1.381611 0.718171,2.082735 1.65194,3.806323 2.801012,5.170875 1.220891,1.292686 2.657239,2.225909 4.309033,2.800465 1.72361,0.574535 3.590578,0.861812 5.60146,0.861812 4.09357,0 7.397467,-1.25703 9.911058,-3.770639 1.55441,-1.511238 2.637732,-3.662534 3.257596,-6.445814 A 41.084016,41.084294 0 0 1 40.715214,39.873155 Z M 27.596793,52.404144 a 41.084011,41.084288 0 0 1 -1.581955,0.895112 41.084016,41.084294 0 0 0 1.581955,-0.895112 z m -1.581955,0.895112 a 41.084016,41.084294 0 0 1 -0.49609,0.26639 41.084011,41.084288 0 0 0 0.49609,-0.26639 z m -0.49609,0.26639 a 41.084011,41.084288 0 0 1 -1.553171,0.774331 41.084016,41.084294 0 0 0 1.553171,-0.774331 z m -1.553171,0.774331 a 41.084016,41.084294 0 0 1 -0.490446,0.223496 41.084011,41.084288 0 0 0 0.490446,-0.223496 z m -0.490446,0.223496 a 41.084011,41.084288 0 0 1 -5.416345,2.021055 41.084016,41.084294 0 0 0 5.416345,-2.021055 z m -5.416345,2.021055 a 41.084016,41.084294 0 0 1 -0.353865,0.108363 41.084011,41.084288 0 0 0 0.353865,-0.108363 z m -0.353865,0.108363 a 41.084011,41.084288 0 0 1 -1.610171,0.416515 41.084016,41.084294 0 0 0 1.610171,-0.416515 z m -1.610171,0.416515 a 41.084016,41.084294 0 0 1 -0.720712,0.169316 41.084011,41.084288 0 0 0 0.720712,-0.169316 z m -0.720712,0.169316 a 41.084011,41.084288 0 0 1 -1.568975,0.318874 41.084016,41.084294 0 0 0 1.568975,-0.318874 z m -1.568975,0.318874 a 41.084016,41.084294 0 0 1 -0.709424,0.117955 41.084011,41.084288 0 0 0 0.709424,-0.117955 z m -0.709424,0.117955 a 41.084011,41.084288 0 0 1 -1.637828,0.244943 c 4.6e-5,1.76e-4 -4.7e-5,3.87e-4 0,5.64e-4 a 41.084016,41.084294 0 0 0 1.637828,-0.245507 z m -1.637828,0.245507 a 41.084016,41.084294 0 0 1 -4.979515,0.31662 41.084016,41.084294 0 0 1 -5.477861,-0.415952 v 27.805443 h 79.429 V 57.861725 a 41.084016,41.084294 0 0 1 -5.477867,0.415952 41.084016,41.084294 0 0 1 -5.056838,-0.324521 c -0.145572,0.520615 -0.301737,1.035005 -0.470691,1.541895 -1.220881,3.662667 -3.088418,6.822699 -5.602022,9.479936 -2.513592,2.585439 -5.709554,4.596338 -9.58767,6.032686 -3.878124,1.436347 -8.47388,2.154249 -13.788343,2.154249 -5.24264,0 -9.767571,-0.717902 -13.573877,-2.154249 -3.806294,-1.508166 -6.966269,-3.555042 -9.479872,-6.140484 -2.441775,-2.657237 -4.272774,-5.781267 -5.493665,-9.372138 -0.158203,-0.504292 -0.304354,-1.016094 -0.440779,-1.533993 z m 58.436919,-0.0079 a 41.084011,41.084288 0 0 1 -1.476977,-0.223496 41.084016,41.084294 0 0 0 1.476977,0.223496 z m -1.476977,-0.223496 a 41.084016,41.084294 0 0 1 -0.88495,-0.147303 41.084011,41.084288 0 0 0 0.88495,0.147303 z m -0.88495,-0.147303 a 41.084011,41.084288 0 0 1 -1.452142,-0.297994 41.084016,41.084294 0 0 0 1.452142,0.297994 z m -1.452142,-0.297994 a 41.084016,41.084294 0 0 1 -0.851651,-0.199792 41.084011,41.084288 0 0 0 0.851651,0.199792 z M 65.22901,57.084573 a 41.084011,41.084288 0 0 1 -1.497291,-0.38999 41.084016,41.084294 0 0 0 1.497291,0.38999 z m -1.497291,-0.38999 a 41.084016,41.084294 0 0 1 -0.586391,-0.178909 41.084011,41.084288 0 0 0 0.586391,0.178909 z m -0.586391,-0.178909 a 41.084011,41.084288 0 0 1 -5.185513,-1.949943 41.084016,41.084294 0 0 0 5.185513,1.949943 z m -5.185513,-1.949943 a 41.084016,41.084294 0 0 1 -0.517543,-0.235909 41.084011,41.084288 0 0 0 0.517543,0.235909 z m -0.517543,-0.235909 a 41.084011,41.084288 0 0 1 -1.541314,-0.769254 41.084016,41.084294 0 0 0 1.541314,0.769254 z m -1.541314,-0.769254 a 41.084016,41.084294 0 0 1 -0.492703,-0.264697 41.084011,41.084288 0 0 0 0.492703,0.264697 z m -0.492703,-0.264697 a 41.084011,41.084288 0 0 1 -1.57123,-0.889466 41.084016,41.084294 0 0 0 1.57123,0.889466 z" />
</svg>
