<?xml version="1.0" encoding="UTF-8" standalone="no"?>
<!-- Created with Inkscape (http://www.inkscape.org/) -->

<svg
   width="600mm"
   height="315mm"
   viewBox="0 0 600.00001 314.99999"
   version="1.1"
   id="svg25743"
   sodipodi:docname="og_image.svg"
   inkscape:version="1.1.2 (0a00cf5339, 2022-02-04)"
   inkscape:export-filename="/home/dgleason/git/unpool_website/assets/og_image.png"
   inkscape:export-xdpi="50.799999"
   inkscape:export-ydpi="50.799999"
   xmlns:inkscape="http://www.inkscape.org/namespaces/inkscape"
   xmlns:sodipodi="http://sodipodi.sourceforge.net/DTD/sodipodi-0.dtd"
   xmlns="http://www.w3.org/2000/svg"
   xmlns:svg="http://www.w3.org/2000/svg">
  <sodipodi:namedview
     id="namedview49"
     pagecolor="#ffffff"
     bordercolor="#666666"
     borderopacity="1.0"
     inkscape:pageshadow="2"
     inkscape:pageopacity="0.0"
     inkscape:pagecheckerboard="true"
     inkscape:document-units="mm"
     showgrid="false"
     inkscape:zoom="0.5"
     inkscape:cx="1350"
     inkscape:cy="725"
     inkscape:window-width="3405"
     inkscape:window-height="1414"
     inkscape:window-x="35"
     inkscape:window-y="0"
     inkscape:window-maximized="1"
     inkscape:current-layer="svg25743"
     inkscape:snap-page="true"
     inkscape:snap-bbox="true"
     inkscape:bbox-nodes="true"
     inkscape:snap-global="false"
     inkscape:object-paths="true"
     inkscape:snap-intersection-paths="true"
     inkscape:object-nodes="true"
     inkscape:snap-smooth-nodes="true"
     inkscape:snap-midpoints="true">
    <inkscape:grid
       type="xygrid"
       id="grid3468"
       units="mm"
       spacingx="10"
       spacingy="10" />
  </sodipodi:namedview>
  <defs
     id="defs25740" />
  <rect
     style="fill:#eef9fe;fill-opacity:1;stroke-width:0.0740605;stroke-linecap:round;stroke-linejoin:round"
     id="rect1439"
     width="28.284306"
     height="28.284306"
     x="634.49933"
     y="145.56671"
     inkscape:export-filename="/home/dgleason/git/unpool.github.io/assets/bg.png"
     inkscape:export-xdpi="17.959999"
     inkscape:export-ydpi="17.959999" />
  <rect
     style="fill:#eef9fe;fill-opacity:1;stroke-width:1.13834;stroke-linecap:round;stroke-linejoin:round"
     id="rect917"
     width="600"
     height="315"
     x="0"
     y="-2.8421709e-14"
     inkscape:export-filename="/home/dgleason/git/unpool.github.io/assets/og_image.png"
     inkscape:export-xdpi="50.799999"
     inkscape:export-ydpi="50.799999" />
  <g
     id="g1167"
     transform="rotate(-45,572.63818,222.49683)"
     inkscape:export-filename="/home/dgleason/git/unpool_website/assets/og_image.png"
     inkscape:export-xdpi="50.799999"
     inkscape:export-ydpi="50.799999"
     style="fill:#f1fbfe;fill-opacity:1">
    <rect
       style="fill:#f1fbfe;fill-opacity:1;stroke-width:0.240805;stroke-linecap:round;stroke-linejoin:round"
       id="rect1103"
       width="845.76038"
       height="10"
       x="-100"
       y="290" />
    <rect
       style="fill:#f1fbfe;fill-opacity:1;stroke-width:0.240805;stroke-linecap:round;stroke-linejoin:round"
       id="rect1105"
       width="845.76038"
       height="10"
       x="-100"
       y="270" />
    <rect
       style="fill:#f1fbfe;fill-opacity:1;stroke-width:0.240805;stroke-linecap:round;stroke-linejoin:round"
       id="rect1107"
       width="845.76038"
       height="10"
       x="-100"
       y="250" />
    <rect
       style="fill:#f1fbfe;fill-opacity:1;stroke-width:0.240805;stroke-linecap:round;stroke-linejoin:round"
       id="rect1109"
       width="845.76038"
       height="10"
       x="-100"
       y="230" />
    <rect
       style="fill:#f1fbfe;fill-opacity:1;stroke-width:0.240805;stroke-linecap:round;stroke-linejoin:round"
       id="rect1111"
       width="845.76038"
       height="10"
       x="-100"
       y="210" />
    <rect
       style="fill:#f1fbfe;fill-opacity:1;stroke-width:0.240805;stroke-linecap:round;stroke-linejoin:round"
       id="rect1113"
       width="845.76038"
       height="10"
       x="-100"
       y="190" />
    <rect
       style="fill:#f1fbfe;fill-opacity:1;stroke-width:0.240805;stroke-linecap:round;stroke-linejoin:round"
       id="rect1115"
       width="845.76038"
       height="10"
       x="-100"
       y="170" />
    <rect
       style="fill:#f1fbfe;fill-opacity:1;stroke-width:0.240805;stroke-linecap:round;stroke-linejoin:round"
       id="rect1117"
       width="845.76038"
       height="10"
       x="-100"
       y="150" />
    <rect
       style="fill:#f1fbfe;fill-opacity:1;stroke-width:0.240805;stroke-linecap:round;stroke-linejoin:round"
       id="rect1119"
       width="845.76038"
       height="10"
       x="-100"
       y="130" />
    <rect
       style="fill:#f1fbfe;fill-opacity:1;stroke-width:0.240805;stroke-linecap:round;stroke-linejoin:round"
       id="rect1121"
       width="845.76038"
       height="10"
       x="-100"
       y="110" />
    <rect
       style="fill:#f1fbfe;fill-opacity:1;stroke-width:0.240805;stroke-linecap:round;stroke-linejoin:round"
       id="rect1123"
       width="845.76038"
       height="10"
       x="-100"
       y="90" />
    <rect
       style="fill:#f1fbfe;fill-opacity:1;stroke-width:0.240805;stroke-linecap:round;stroke-linejoin:round"
       id="rect1125"
       width="845.76038"
       height="10"
       x="-100"
       y="70" />
    <rect
       style="fill:#f1fbfe;fill-opacity:1;stroke-width:0.240805;stroke-linecap:round;stroke-linejoin:round"
       id="rect1127"
       width="845.76038"
       height="10"
       x="-100"
       y="50" />
    <rect
       style="fill:#f1fbfe;fill-opacity:1;stroke-width:0.240805;stroke-linecap:round;stroke-linejoin:round"
       id="rect1129"
       width="845.76038"
       height="10"
       x="-100"
       y="30" />
    <rect
       style="fill:#f1fbfe;fill-opacity:1;stroke-width:0.240805;stroke-linecap:round;stroke-linejoin:round"
       id="rect1131"
       width="845.76038"
       height="10"
       x="-100"
       y="10" />
    <rect
       style="fill:#f1fbfe;fill-opacity:1;stroke-width:0.240805;stroke-linecap:round;stroke-linejoin:round"
       id="rect1133"
       width="845.76038"
       height="10"
       x="-100"
       y="-10" />
    <rect
       style="fill:#f1fbfe;fill-opacity:1;stroke-width:0.240805;stroke-linecap:round;stroke-linejoin:round"
       id="rect1135"
       width="845.76038"
       height="10"
       x="-100"
       y="-30" />
    <rect
       style="fill:#f1fbfe;fill-opacity:1;stroke-width:0.240805;stroke-linecap:round;stroke-linejoin:round"
       id="rect1137"
       width="845.76038"
       height="10"
       x="-100"
       y="-50" />
    <rect
       style="fill:#f1fbfe;fill-opacity:1;stroke-width:0.240805;stroke-linecap:round;stroke-linejoin:round"
       id="rect1139"
       width="845.76038"
       height="10"
       x="-100"
       y="-70" />
    <rect
       style="fill:#f1fbfe;fill-opacity:1;stroke-width:0.240805;stroke-linecap:round;stroke-linejoin:round"
       id="rect1141"
       width="845.76038"
       height="10"
       x="-100"
       y="-90" />
    <rect
       style="fill:#f1fbfe;fill-opacity:1;stroke-width:0.240805;stroke-linecap:round;stroke-linejoin:round"
       id="rect1143"
       width="845.76038"
       height="10"
       x="-100"
       y="-110" />
    <rect
       style="fill:#f1fbfe;fill-opacity:1;stroke-width:0.240805;stroke-linecap:round;stroke-linejoin:round"
       id="rect1145"
       width="845.76038"
       height="10"
       x="-100"
       y="-130" />
    <rect
       style="fill:#f1fbfe;fill-opacity:1;stroke-width:0.240805;stroke-linecap:round;stroke-linejoin:round"
       id="rect1147"
       width="845.76038"
       height="10"
       x="-100"
       y="-150" />
    <rect
       style="fill:#f1fbfe;fill-opacity:1;stroke-width:0.240805;stroke-linecap:round;stroke-linejoin:round"
       id="rect1149"
       width="845.76038"
       height="10"
       x="-100"
       y="-170" />
    <rect
       style="fill:#f1fbfe;fill-opacity:1;stroke-width:0.240805;stroke-linecap:round;stroke-linejoin:round"
       id="rect1151"
       width="845.76038"
       height="10"
       x="-100"
       y="-190" />
    <rect
       style="fill:#f1fbfe;fill-opacity:1;stroke-width:0.240805;stroke-linecap:round;stroke-linejoin:round"
       id="rect1153"
       width="845.76038"
       height="10"
       x="-100"
       y="-210" />
    <rect
       style="fill:#f1fbfe;fill-opacity:1;stroke-width:0.240805;stroke-linecap:round;stroke-linejoin:round"
       id="rect1155"
       width="845.76038"
       height="10"
       x="-100"
       y="-230" />
    <rect
       style="fill:#f1fbfe;fill-opacity:1;stroke-width:0.240805;stroke-linecap:round;stroke-linejoin:round"
       id="rect1157"
       width="845.76038"
       height="10"
       x="-100"
       y="-250" />
    <rect
       style="fill:#f1fbfe;fill-opacity:1;stroke-width:0.240805;stroke-linecap:round;stroke-linejoin:round"
       id="rect1159"
       width="845.76038"
       height="10"
       x="-100"
       y="-270" />
    <rect
       style="fill:#f1fbfe;fill-opacity:1;stroke-width:0.240805;stroke-linecap:round;stroke-linejoin:round"
       id="rect1161"
       width="845.76038"
       height="10"
       x="-100"
       y="-290" />
    <rect
       style="fill:#f1fbfe;fill-opacity:1;stroke-width:0.240805;stroke-linecap:round;stroke-linejoin:round"
       id="rect1163"
       width="845.76038"
       height="10"
       x="-100"
       y="-310" />
    <rect
       style="fill:#f1fbfe;fill-opacity:1;stroke-width:0.240805;stroke-linecap:round;stroke-linejoin:round"
       id="rect1165"
       width="845.76038"
       height="10"
       x="-100"
       y="-330" />
  </g>
  <path
     d="m 90.598374,175.48117 q -10.65675,0 -18.39385,-2.91966 -7.737091,-3.06564 -12.846492,-8.32102 -4.963417,-5.40137 -7.445127,-12.70051 -2.335727,-7.44512 -2.335727,-16.35009 V 72.271267 h 22.773336 v 61.020853 q 0,6.13129 1.31384,10.51076 1.45983,4.23351 3.79556,7.00718 2.48171,2.62769 5.83931,3.79556 3.50359,1.16786 7.59111,1.16786 8.32103,0 13.430436,-5.10941 5.25538,-5.10939 5.25538,-17.37195 V 72.271267 h 22.77332 v 62.918623 q 0,8.90497 -2.4817,16.35009 -2.4817,7.44513 -7.5911,12.8465 -5.1094,5.25538 -12.99248,8.17503 -7.88308,2.91966 -18.685816,2.91966 z"
     style="font-size:98.6362px;line-height:1.25;font-family:Ubuntu;-inkscape-font-specification:Ubuntu;letter-spacing:4.93185px;fill:#0b090b;fill-opacity:1;stroke-width:0.403853"
     id="path25942" />
  <path
     d="m 189.08229,107.14237 q 10.47436,0 16.6057,6.13134 6.25907,6.13133 6.25907,16.73342 v 41.3865 q 0,2.04378 -2.04378,2.04378 h -10.72983 q -2.04378,0 -2.04378,-2.04378 V 133.0728 q 0,-5.87586 -3.44887,-9.45248 -3.32114,-3.70434 -8.8138,-3.70434 -5.49265,0 -8.94152,3.57662 -3.32114,3.5766 -3.32114,9.45246 v 38.44857 q 0,2.04378 -2.04377,2.04378 h -10.72983 q -2.04379,0 -2.04379,-2.04378 v -61.18559 q 0,-2.04378 2.04379,-2.04378 h 10.72983 q 2.04377,0 2.04377,2.04378 v 3.44887 q 0,0.51094 0.25547,0.63868 0.25548,0.12774 0.51094,-0.25546 5.36492,-6.89776 15.71154,-6.89776 z"
     style="font-weight:600;font-size:86.3074px;line-height:1.25;font-family:Barlow;-inkscape-font-specification:'Barlow Semi-Bold';letter-spacing:2.46592px;fill:#0b090b;fill-opacity:1;stroke-width:0.403853"
     id="path25944" />
  <path
     d="m 286.36229,125.02543 q 2.29925,7.02548 2.29925,15.96701 0,9.06927 -2.17151,15.5838 -2.81018,8.43059 -9.06926,13.15683 -6.25907,4.72623 -15.58381,4.72623 -8.94152,0 -14.5619,-6.25907 -0.25549,-0.3832 -0.63869,-0.25547 -0.25548,0 -0.25548,0.51094 v 27.08006 q 0,2.04377 -2.04376,2.04377 h -10.72985 q -2.04377,0 -2.04377,-2.04377 v -85.32772 q 0,-2.04378 2.04377,-2.04378 h 10.72985 q 2.04376,0 2.04376,2.04378 v 3.32113 q 0,0.51096 0.25548,0.63868 0.3832,0.12775 0.63869,-0.3832 5.49264,-6.64228 14.5619,-6.64228 8.94153,0 15.32834,4.85397 6.38681,4.72624 9.19699,13.02909 z m -16.73342,31.29535 q 3.70435,-5.6204 3.70435,-15.5838 0,-9.19702 -3.06567,-14.56193 -3.32114,-6.13133 -10.72983,-6.13133 -6.38681,0 -9.96342,6.00359 -2.93793,4.98171 -2.93793,14.81739 0,9.96342 3.1934,15.20059 3.44887,5.6204 9.58021,5.6204 6.64227,0 10.21889,-5.36491 z"
     style="font-weight:600;font-size:86.3074px;line-height:1.25;font-family:Barlow;-inkscape-font-specification:'Barlow Semi-Bold';letter-spacing:2.46592px;fill:#0b090b;fill-opacity:1;stroke-width:0.403853"
     id="path25946" />
  <path
     d="m 333.31424,174.4593 q -10.09116,0 -17.37211,-5.10945 -7.28096,-5.10944 -10.09117,-14.17871 -2.1715,-6.25906 -2.1715,-14.56191 0,-8.17511 2.04378,-14.56192 2.93793,-8.94152 10.21889,-13.92323 7.28095,-4.98171 17.49983,-4.98171 9.70796,0 16.73344,4.98171 7.15322,4.98171 10.09115,13.7955 2.29925,6.13133 2.29925,14.56191 0,8.04739 -2.17151,14.56193 -2.93792,9.06926 -10.09116,14.30643 -7.15321,5.10945 -16.98889,5.10945 z m 0,-12.77361 q 4.72623,0 8.04737,-2.68247 3.44887,-2.68244 4.85397,-7.53642 1.40511,-4.08756 1.40511,-10.72982 0,-6.25909 -1.27738,-10.72985 -1.40509,-4.85397 -4.9817,-7.40869 -3.44888,-2.68246 -8.30285,-2.68246 -4.85397,0 -8.30285,2.68246 -3.44887,2.55472 -4.85396,7.40869 -1.27738,4.47076 -1.27738,10.72985 0,6.25906 1.27738,10.72982 1.40509,4.85398 4.85396,7.53642 3.57662,2.68247 8.55833,2.68247 z"
     style="font-weight:600;font-size:86.3074px;line-height:1.25;font-family:Barlow;-inkscape-font-specification:'Barlow Semi-Bold';letter-spacing:2.46592px;fill:#0b090b;fill-opacity:1;stroke-width:0.403853"
     id="path25948" />
  <path
     d="m 408.11274,174.4593 q -10.09115,0 -17.3721,-5.10945 -7.28096,-5.10944 -10.09116,-14.17871 -2.1715,-6.25906 -2.1715,-14.56191 0,-8.17511 2.04376,-14.56192 2.93794,-8.94152 10.2189,-13.92323 7.28095,-4.98171 17.49984,-4.98171 9.70794,0 16.73343,4.98171 7.15323,4.98171 10.09116,13.7955 2.29924,6.13133 2.29924,14.56191 0,8.04739 -2.17152,14.56193 -2.93793,9.06926 -10.09114,14.30643 -7.15323,5.10945 -16.98891,5.10945 z m 0,-12.77361 q 4.72624,0 8.04738,-2.68247 3.44887,-2.68244 4.85397,-7.53642 1.4051,-4.08756 1.4051,-10.72982 0,-6.25909 -1.27736,-10.72985 -1.4051,-4.85397 -4.98171,-7.40869 -3.44888,-2.68246 -8.30284,-2.68246 -4.85397,0 -8.30285,2.68246 -3.44887,2.55472 -4.85397,7.40869 -1.27738,4.47076 -1.27738,10.72985 0,6.25906 1.27738,10.72982 1.4051,4.85398 4.85397,7.53642 3.57662,2.68247 8.55831,2.68247 z"
     style="font-weight:600;font-size:86.3074px;line-height:1.25;font-family:Barlow;-inkscape-font-specification:'Barlow Semi-Bold';letter-spacing:2.46592px;fill:#0b090b;fill-opacity:1;stroke-width:0.403853"
     id="path25950" />
  <path
     d="m 457.23629,173.43741 q -2.04376,0 -2.04376,-2.04378 V 86.065911 q 0,-2.043777 2.04376,-2.043777 h 10.72984 q 2.04377,0 2.04377,2.043777 v 85.327719 q 0,2.04378 -2.04377,2.04378 z"
     style="font-weight:600;font-size:86.3074px;line-height:1.25;font-family:Barlow;-inkscape-font-specification:'Barlow Semi-Bold';letter-spacing:2.46592px;fill:#0b090b;fill-opacity:1;stroke-width:0.403853"
     id="path25952" />
  <path
     d="m 493.96927,173.52866 q -3.19339,0 -5.29191,-2.00729 -2.00729,-2.00728 -2.00729,-5.01819 0,-2.82846 2.18977,-4.83573 2.281,-2.09852 5.10943,-2.09852 2.91969,0 5.20069,2.09852 2.281,2.00727 2.281,4.83573 0,2.91968 -2.18976,5.01819 -2.09852,2.00729 -5.29193,2.00729 z"
     style="font-size:61.6481px;line-height:1.25;font-family:Ubuntu;-inkscape-font-specification:Ubuntu;letter-spacing:2.46592px;fill:#37abc8;stroke-width:0.403853"
     id="path25954" />
  <path
     d="m 539.68038,126.72252 q 1.45984,0 1.45984,1.45984 v 6.47805 q 0,1.45984 -1.45984,1.45984 h -8.57656 q -0.54745,0 -0.54745,0.54744 v 35.30988 q 0,1.45984 -1.45983,1.45984 h -7.66416 q -1.45985,0 -1.45985,-1.45984 v -35.30988 q 0,-0.54744 -0.54744,-0.54744 h -5.20067 q -1.45985,0 -1.45985,-1.45984 v -6.47805 q 0,-1.45984 1.45985,-1.45984 h 5.20067 q 0.54744,0 0.54744,-0.54744 v -1.55107 q 0,-5.93061 1.55109,-9.124 1.55106,-3.28464 5.10943,-4.65325 3.55837,-1.3686 10.0364,-1.27736 h 2.82844 q 1.45984,0 1.45984,1.45984 v 5.65689 q 0,1.45983 -1.45984,1.45983 h -2.00728 q -3.92331,0 -5.4744,1.55109 -1.45984,1.55107 -1.45984,5.65687 v 0.82116 q 0,0.54744 0.54745,0.54744 z m 16.4232,-5.74812 q -3.01093,0 -4.92696,-1.82479 -1.91605,-1.91605 -1.91605,-4.83573 0,-2.91968 1.91605,-4.74448 1.91603,-1.8248 4.92696,-1.8248 3.01091,0 4.83572,1.8248 1.91604,1.8248 1.91604,4.74448 0,2.91968 -1.91604,4.83573 -1.82481,1.82479 -4.83572,1.82479 z m -3.83208,52.46301 q -1.45984,0 -1.45984,-1.45984 V 128.2736 q 0,-1.45983 1.45984,-1.45983 h 7.66416 q 1.45985,0 1.45985,1.45983 v 43.70397 q 0,1.45984 -1.45985,1.45984 z"
     style="font-size:61.6481px;line-height:1.25;font-family:Ubuntu;-inkscape-font-specification:Ubuntu;letter-spacing:2.46592px;fill:#37abc8;stroke-width:0.403853"
     id="path25956" />
  <path
     id="path144747-9"
     style="fill:#37abc8;fill-opacity:1;stroke-width:0.227479"
     d="m 90.963844,124.94969 a 55.675006,55.675006 0 0 1 -46.395847,24.94057 55.675006,55.675006 0 0 1 -7.423333,-0.56323 V 187.0069 H 144.78301 v -37.67987 a 55.675006,55.675006 0 0 1 -7.42333,0.56323 55.675006,55.675006 0 0 1 -46.395836,-24.94057 z" />
  <path
     id="path144749-3"
     style="font-weight:bold;font-size:105.833px;line-height:1.25;font-family:Ubuntu;-inkscape-font-specification:'Ubuntu Bold';fill:#ffffff;stroke-width:0.403856"
     d="m 108.73659,141.92836 c -0.84001,3.77174 -2.30873,6.68764 -4.41518,8.73559 -3.4063,3.40629 -7.883486,5.10946 -13.430896,5.10946 -2.72504,0 -5.25503,-0.38901 -7.59078,-1.16758 -2.23842,-0.77861 -4.1849,-2.04397 -5.83939,-3.79575 -1.55716,-1.84916 -2.82252,-4.18462 -3.79575,-7.00702 -0.1792,-0.59733 -0.33504,-1.22557 -0.47758,-1.87184 a 55.675002,55.675002 0 0 1 -21.871347,7.52949 c 0.184931,0.70207 0.382878,1.39568 0.597341,2.07929 1.654489,4.86614 4.136392,9.1 7.445365,12.70093 3.406307,3.50364 7.688275,6.27694 12.846381,8.32073 5.15811,1.94645 11.28965,2.91969 18.39422,2.91969 7.20189,0 13.430336,-0.97324 18.685776,-2.91969 5.25543,-1.94646 9.58621,-4.67097 12.9925,-8.1746 3.4063,-3.60094 5.93701,-7.88362 7.59149,-12.84706 0.22896,-0.6869 0.4407,-1.38375 0.63797,-2.08926 a 55.675002,55.675002 0 0 1 -21.77012,-7.52238 z" />
  <path
     id="path889-6"
     style="fill:#37abc8;fill-opacity:1;stroke-width:0.227479"
     d="m 90.963844,124.94969 a 55.675006,55.675006 0 0 1 -46.395847,24.94057 55.675006,55.675006 0 0 1 -7.423333,-0.56323 V 187.0069 H 144.78301 v -37.67987 a 55.675006,55.675006 0 0 1 -7.42333,0.56323 55.675006,55.675006 0 0 1 -46.395836,-24.94057 z" />
  <path
     id="path891-2"
     style="font-weight:bold;font-size:105.833px;line-height:1.25;font-family:Ubuntu;-inkscape-font-specification:'Ubuntu Bold';fill:#ffffff;stroke-width:0.403856"
     d="m 108.73659,141.92836 c -0.84001,3.77174 -2.30873,6.68764 -4.41518,8.73559 -3.4063,3.40629 -7.883486,5.10946 -13.430896,5.10946 -2.72504,0 -5.25503,-0.38901 -7.59078,-1.16758 -2.23842,-0.77861 -4.1849,-2.04397 -5.83939,-3.79575 -1.55716,-1.84916 -2.82252,-4.18462 -3.79575,-7.00702 -0.1792,-0.59733 -0.33504,-1.22557 -0.47758,-1.87184 a 55.675002,55.675002 0 0 1 -21.871347,7.52949 c 0.184931,0.70207 0.382878,1.39568 0.597341,2.07929 1.654489,4.86614 4.136392,9.1 7.445365,12.70093 3.406307,3.50364 7.688275,6.27694 12.846381,8.32073 5.15811,1.94645 11.28965,2.91969 18.39422,2.91969 7.20189,0 13.430336,-0.97324 18.685776,-2.91969 5.25543,-1.94646 9.58621,-4.67097 12.9925,-8.1746 3.4063,-3.60094 5.93701,-7.88362 7.59149,-12.84706 0.22896,-0.6869 0.4407,-1.38375 0.63797,-2.08926 a 55.675002,55.675002 0 0 1 -21.77012,-7.52238 z" />
  <path
     d="m 44.65897,235.9862 q -0.57026,0 -0.57026,-0.57027 v -8.28553 l -0.06709,-0.26835 -6.776019,-13.65267 q -0.100626,-0.16773 -0.100626,-0.3019 0,-0.16772 0.134178,-0.26836 0.134178,-0.10065 0.368991,-0.10065 h 3.89118 q 0.469624,0 0.670893,0.43609 l 4.092447,8.72161 q 0.06709,0.10064 0.134178,0.10064 0.100641,0 0.134178,-0.10064 l 4.092447,-8.72161 q 0.234813,-0.43609 0.670893,-0.43609 h 3.924725 q 0.503169,0 0.503169,0.40255 0,0.16772 -0.06709,0.26836 l -6.843109,13.65266 -0.06709,0.26836 v 8.28553 q 0,0.57026 -0.570258,0.57026 z"
     style="font-weight:bold;font-size:22.6651px;line-height:1.25;font-family:Barlow;-inkscape-font-specification:Barlow;fill:#0b090b;fill-opacity:1;stroke-width:0.838617"
     id="path25877" />
  <path
     d="m 63.544547,236.28811 q -2.851295,0 -4.863974,-1.47598 -2.012678,-1.47595 -2.75066,-4.02535 -0.469627,-1.5766 -0.469627,-3.42155 0,-2.04622 0.503171,-3.55574 0.771526,-2.48231 2.750661,-3.89117 2.012679,-1.40889 4.863974,-1.40889 2.750662,0 4.696251,1.40889 1.979131,1.40886 2.750661,3.85762 0.50317,1.54307 0.50317,3.5222 0,1.74431 -0.43608,3.388 -0.77153,2.61649 -2.784207,4.12599 -1.979133,1.47598 -4.76334,1.47598 z m 0,-4.05891 q 1.073428,0 1.844957,-0.67089 0.771526,-0.6709 1.106972,-1.84496 0.268358,-0.90572 0.268358,-2.34812 0,-1.40889 -0.268358,-2.38167 -0.335446,-1.14053 -1.106972,-1.77787 -0.771529,-0.63735 -1.912046,-0.63735 -1.106973,0 -1.878501,0.63735 -0.771526,0.63734 -1.106973,1.77787 -0.268358,0.97278 -0.268358,2.38167 0,1.37532 0.268358,2.34812 0.335447,1.17406 1.106973,1.84496 0.805073,0.67089 1.94559,0.67089 z"
     style="font-weight:bold;font-size:22.6651px;line-height:1.25;font-family:Barlow;-inkscape-font-specification:Barlow;fill:#0b090b;fill-opacity:1;stroke-width:0.838617"
     id="path25879" />
  <path
     d="m 84.644104,219.34804 q 0,-0.57025 0.57026,-0.57025 h 3.58928 q 0.57026,0 0.57026,0.57025 v 16.10145 q 0,0.57025 -0.57026,0.57025 h -3.58928 q -0.57026,0 -0.57026,-0.57025 v -0.90571 q 0,-0.13424 -0.10064,-0.13424 -0.0671,-0.0336 -0.13418,0.067 -1.30824,1.77785 -4.12599,1.77785 -2.54939,0 -4.19308,-1.54304 -1.64369,-1.54306 -1.64369,-4.32727 v -11.03616 q 0,-0.57027 0.57026,-0.57027 h 3.55573 q 0.57026,0 0.57026,0.57027 v 9.86213 q 0,1.34177 0.70444,2.18039 0.73798,0.83863 2.01268,0.83863 1.14052,0 1.8785,-0.67089 0.73798,-0.70444 0.90571,-1.81142 z"
     style="font-weight:bold;font-size:22.6651px;line-height:1.25;font-family:Barlow;-inkscape-font-specification:Barlow;fill:#0b090b;fill-opacity:1;stroke-width:0.838617"
     id="path25881" />
  <path
     d="m 101.44992,218.54298 q 1.07343,0 1.77786,0.40254 0.40254,0.20127 0.30191,0.70444 l -0.63735,3.52218 q -0.0335,0.30191 -0.20127,0.369 -0.13418,0.067 -0.46963,0 -0.53671,-0.13424 -0.97279,-0.13424 -0.23481,0 -0.77154,0.067 -1.207596,0.10064 -2.046216,0.90569 -0.83862,0.77153 -0.83862,2.07977 v 8.98998 q 0,0.57025 -0.57026,0.57025 h -3.58927 q -0.57026,0 -0.57026,-0.57025 v -16.10142 q 0,-0.57027 0.57026,-0.57027 h 3.58927 q 0.57026,0 0.57026,0.57027 v 1.03989 q 0,0.13424 0.0671,0.1677 0.0671,0.0335 0.16773,-0.067 1.34178,-1.94558 3.622826,-1.94558 z"
     style="font-weight:bold;font-size:22.6651px;line-height:1.25;font-family:Barlow;-inkscape-font-specification:Barlow;fill:#0b090b;fill-opacity:1;stroke-width:0.838617"
     id="path25883" />
  <path
     d="m 113.79429,236.01974 q -0.43608,0 -0.43608,-0.43607 v -22.60911 q 0,-0.43609 0.43608,-0.43609 h 1.50951 q 0.43608,0 0.43608,0.43609 v 13.55205 q 0,0.10064 0.0671,0.16773 0.0671,0.0336 0.13418,-0.067 l 7.01083,-7.34628 q 0.20127,-0.23482 0.53672,-0.23482 h 1.77786 q 0.36899,0 0.36899,0.26835 0,0.10064 -0.10064,0.26838 l -4.15954,4.5956 q -0.10064,0.10064 -0.0336,0.23482 l 5.0317,11.10328 q 0.0671,0.13424 0.0671,0.20126 0,0.3019 -0.40253,0.3019 h -1.57661 q -0.33544,0 -0.50316,-0.33545 l -4.26018,-9.69441 q -0.0336,-0.067 -0.10062,-0.067 -0.0671,-0.0336 -0.13418,0.0336 l -3.65637,3.82411 q -0.0671,0.13423 -0.0671,0.2348 v 5.56842 q 0,0.43605 -0.43608,0.43605 z"
     id="path25885"
     style="font-size:22.6651px;line-height:1.25;font-family:Barlow;-inkscape-font-specification:Barlow;fill:#0b090b;fill-opacity:1;stroke-width:0.838617" />
  <path
     d="m 136.13498,234.24186 q 1.50951,-0.0336 2.58294,-0.67089 1.10697,-0.67089 1.71077,-1.84496 0.067,-0.1677 0.23482,-0.2348 0.16771,-0.067 0.33544,0.0336 l 0.9728,0.53671 q 0.40253,0.23482 0.20127,0.57027 -0.80508,1.67722 -2.41521,2.68357 -1.61016,0.9728 -3.8241,0.9728 -2.34813,0 -3.95826,-1.10698 -1.61015,-1.10697 -2.31459,-3.08611 -0.63735,-1.67724 -0.63735,-4.62917 0,-1.44242 0.0336,-2.28102 0.0671,-0.87217 0.26836,-1.61015 0.57026,-2.18041 2.28103,-3.48865 1.74433,-1.30824 4.19308,-1.30824 2.9184,0 4.56207,1.50951 1.67726,1.50951 2.14686,4.26017 0.20127,1.07342 0.20127,3.35446 0,0.43609 -0.43608,0.43609 h -10.7343 q -0.16773,0 -0.16773,0.16772 0,1.67724 0.20128,2.44876 0.36898,1.5095 1.54305,2.41521 1.2076,0.87216 3.01902,0.87216 z m -0.33545,-13.38431 q -1.67724,0 -2.75066,0.87216 -1.07342,0.83862 -1.40887,2.28105 -0.20128,0.67089 -0.26837,2.28104 0,0.16772 0.16773,0.16772 h 8.62097 q 0.16774,0 0.16774,-0.16772 -0.067,-1.47597 -0.20127,-2.14686 -0.36899,-1.50951 -1.50951,-2.38167 -1.10698,-0.90571 -2.81776,-0.90572 z"
     id="path25887"
     style="font-size:22.6651px;line-height:1.25;font-family:Barlow;-inkscape-font-specification:Barlow;fill:#0b090b;fill-opacity:1;stroke-width:0.838617" />
  <path
     d="m 146.23185,242.72867 q -0.23481,0 -0.23481,-0.43607 v -1.17407 q 0,-0.43609 0.23481,-0.43609 h 0.2348 q 1.30825,0 2.01269,-0.36898 0.73798,-0.36901 1.24115,-1.30824 0.53672,-0.93925 1.14052,-2.88484 0.0336,-0.067 0,-0.20127 l -5.63549,-16.36979 q -0.0336,-0.067 -0.0336,-0.16771 0,-0.13425 0.10064,-0.23482 0.13424,-0.10065 0.30189,-0.10065 h 1.5766 q 0.40253,0 0.50318,0.36901 l 4.32726,13.1495 q 0.0336,0.13423 0.10064,0.13423 0.067,0 0.10064,-0.13423 l 4.22662,-13.1495 q 0.10064,-0.36901 0.46963,-0.36901 h 1.61015 q 0.2348,0 0.33544,0.13424 0.10064,0.13424 0.0336,0.369 l -6.17222,17.94639 q -0.80507,2.24749 -1.50951,3.32091 -0.70442,1.07344 -1.77787,1.47597 -1.03986,0.43608 -2.95192,0.43608 z"
     id="path25889"
     style="font-size:22.6651px;line-height:1.25;font-family:Barlow;-inkscape-font-specification:Barlow;fill:#0b090b;fill-opacity:1;stroke-width:0.838617" />
  <path
     d="m 166.99594,236.18746 q -1.87851,0 -3.35447,-0.60381 -1.44242,-0.6038 -2.24748,-1.61015 -0.77154,-1.00632 -0.77154,-2.24749 v -0.30189 q 0,-0.43609 0.43609,-0.43609 h 1.44242 q 0.20126,0 0.30189,0.10065 0.13424,0.067 0.13424,0.20127 v 0.3019 q 0,1.10698 1.14053,1.9456 1.14051,0.80507 2.88483,0.80507 1.74432,0 2.81775,-0.77153 1.07344,-0.80507 1.07344,-2.01268 0,-0.83862 -0.53673,-1.37533 -0.53671,-0.53672 -1.30824,-0.83863 -0.77152,-0.30192 -2.31458,-0.77152 -1.87849,-0.53672 -3.08611,-1.07342 -1.2076,-0.53671 -2.04622,-1.47598 -0.83861,-0.97278 -0.83861,-2.44875 0,-2.14685 1.67723,-3.42156 1.71078,-1.27469 4.46144,-1.27469 1.84495,0 3.25383,0.60381 1.44241,0.60379 2.21394,1.67723 0.77154,1.03987 0.77154,2.34812 0,0.43608 -0.43609,0.43608 h -1.37534 q -0.43606,0 -0.43606,-0.23481 v -0.20127 q 0,-1.14052 -1.10698,-1.91205 -1.07344,-0.77153 -2.91839,-0.77153 -1.71078,0 -2.75065,0.70444 -1.03989,0.67089 -1.03989,1.87851 0,1.14051 0.9728,1.74432 1.00634,0.60379 3.11964,1.20761 1.9456,0.53672 3.1532,1.03987 1.2076,0.50317 2.07976,1.47597 0.87217,0.97279 0.87217,2.51585 0,2.18041 -1.71077,3.48864 -1.67724,1.30824 -4.52854,1.30824 z"
     id="path25891"
     style="font-size:22.6651px;line-height:1.25;font-family:Barlow;-inkscape-font-specification:Barlow;fill:#0b090b;fill-opacity:1;stroke-width:0.838617" />
  <path
     d="m 179.44096,235.91911 q -0.90571,0 -1.50952,-0.57026 -0.57026,-0.57027 -0.57026,-1.40889 0,-0.80507 0.6038,-1.37533 0.63736,-0.6038 1.47598,-0.6038 0.80507,0 1.44242,0.6038 0.63733,0.57026 0.63733,1.37533 0,0.83862 -0.60379,1.40889 -0.6038,0.57026 -1.47596,0.57026 z"
     id="path25893"
     style="font-size:22.6651px;line-height:1.25;font-family:Barlow;-inkscape-font-specification:Barlow;fill:#0b090b;fill-opacity:1;stroke-width:0.838617" />
  <path
     d="m 199.36637,235.9862 q -0.57027,0 -0.57027,-0.57027 v -8.28553 l -0.067,-0.26835 -6.77602,-13.65267 q -0.10064,-0.16773 -0.10064,-0.3019 0,-0.16772 0.13423,-0.26836 0.13425,-0.10065 0.36899,-0.10065 h 3.89117 q 0.46963,0 0.6709,0.43609 l 4.09246,8.72161 q 0.067,0.10064 0.13423,0.10064 0.10065,0 0.13424,-0.10064 l 4.09244,-8.72161 q 0.23483,-0.43609 0.67089,-0.43609 h 3.92474 q 0.50317,0 0.50317,0.40255 0,0.16772 -0.067,0.26836 l -6.84312,13.65266 -0.067,0.26836 v 8.28553 q 0,0.57026 -0.57024,0.57026 z"
     style="font-weight:bold;font-size:22.6651px;line-height:1.25;font-family:Barlow;-inkscape-font-specification:Barlow;fill:#0b090b;fill-opacity:1;stroke-width:0.838617"
     id="path25895" />
  <path
     d="m 218.25195,236.28811 q -2.85129,0 -4.86398,-1.47598 -2.01267,-1.47595 -2.75066,-4.02535 -0.46963,-1.5766 -0.46963,-3.42155 0,-2.04622 0.50318,-3.55574 0.77153,-2.48231 2.75066,-3.89117 2.01267,-1.40889 4.86398,-1.40889 2.75065,0 4.69625,1.40889 1.97913,1.40886 2.75066,3.85762 0.50318,1.54307 0.50318,3.5222 0,1.74431 -0.4361,3.388 -0.77153,2.61649 -2.78419,4.12599 -1.97915,1.47598 -4.76335,1.47598 z m 0,-4.05891 q 1.07342,0 1.84495,-0.67089 0.77153,-0.6709 1.10698,-1.84496 0.26836,-0.90572 0.26836,-2.34812 0,-1.40889 -0.26836,-2.38167 -0.33545,-1.14053 -1.10698,-1.77787 -0.77153,-0.63735 -1.91204,-0.63735 -1.10698,0 -1.87849,0.63735 -0.77153,0.63734 -1.10698,1.77787 -0.26835,0.97278 -0.26835,2.38167 0,1.37532 0.26835,2.34812 0.33545,1.17406 1.10698,1.84496 0.80507,0.67089 1.94558,0.67089 z"
     style="font-weight:bold;font-size:22.6651px;line-height:1.25;font-family:Barlow;-inkscape-font-specification:Barlow;fill:#0b090b;fill-opacity:1;stroke-width:0.838617"
     id="path25897" />
  <path
     d="m 239.3515,219.34804 q 0,-0.57025 0.57026,-0.57025 h 3.58928 q 0.57025,0 0.57025,0.57025 v 16.10145 q 0,0.57025 -0.57025,0.57025 h -3.58928 q -0.57026,0 -0.57026,-0.57025 v -0.90571 q 0,-0.13424 -0.10065,-0.13424 -0.067,-0.0336 -0.13423,0.067 -1.30825,1.77785 -4.126,1.77785 -2.5494,0 -4.19308,-1.54304 -1.64369,-1.54306 -1.64369,-4.32727 v -11.03616 q 0,-0.57027 0.57026,-0.57027 h 3.55573 q 0.57027,0 0.57027,0.57027 v 9.86213 q 0,1.34177 0.70442,2.18039 0.73799,0.83863 2.01269,0.83863 1.14051,0 1.8785,-0.67089 0.73798,-0.70444 0.90569,-1.81142 z"
     style="font-weight:bold;font-size:22.6651px;line-height:1.25;font-family:Barlow;-inkscape-font-specification:Barlow;fill:#0b090b;fill-opacity:1;stroke-width:0.838617"
     id="path25899" />
  <path
     d="m 256.15733,218.54298 q 1.07342,0 1.77786,0.40254 0.40253,0.20127 0.30189,0.70444 l -0.63733,3.52218 q -0.0336,0.30191 -0.20127,0.369 -0.13424,0.067 -0.46964,0 -0.53671,-0.13424 -0.97278,-0.13424 -0.23482,0 -0.77153,0.067 -1.20761,0.10064 -2.04623,0.90569 -0.83862,0.77153 -0.83862,2.07977 v 8.98998 q 0,0.57025 -0.57026,0.57025 h -3.58927 q -0.57026,0 -0.57026,-0.57025 v -16.10142 q 0,-0.57027 0.57026,-0.57027 h 3.58927 q 0.57026,0 0.57026,0.57027 v 1.03989 q 0,0.13424 0.067,0.1677 0.067,0.0335 0.16773,-0.067 1.34178,-1.94558 3.62282,-1.94558 z"
     style="font-weight:bold;font-size:22.6651px;line-height:1.25;font-family:Barlow;-inkscape-font-specification:Barlow;fill:#0b090b;fill-opacity:1;stroke-width:0.838617"
     id="path25901" />
  <path
     d="m 274.47263,236.28811 q -2.4152,0 -4.15953,-1.24115 -1.71078,-1.27472 -2.34813,-3.42156 -0.43606,-1.47597 -0.43606,-4.15955 0,-2.4152 0.43606,-4.09244 0.60382,-2.07976 2.34813,-3.32091 1.74433,-1.27471 4.15953,-1.27471 2.44878,0 4.22664,1.24115 1.81141,1.24115 2.34812,3.08611 0.13424,0.46963 0.20127,0.90571 v 0.067 q 0,0.36899 -0.40253,0.43608 l -1.47597,0.16772 h -0.10063 q -0.3019,0 -0.40254,-0.36901 0,-0.13424 -0.067,-0.40254 -0.3019,-1.27468 -1.47596,-2.14684 -1.17406,-0.90571 -2.8513,-0.90571 -1.67722,0 -2.81775,0.90571 -1.10697,0.87216 -1.44241,2.34811 -0.30191,1.2747 -0.30191,3.38802 0,2.21395 0.30191,3.42156 0.33544,1.5095 1.44241,2.41521 1.14053,0.87216 2.81775,0.87216 1.64369,0 2.81775,-0.83862 1.20761,-0.87216 1.47597,-2.18041 0.0336,-0.067 0.0336,-0.16772 l 0.0336,-0.0336 q 0.0336,-0.43609 0.50316,-0.369 l 1.44242,0.23482 q 0.43608,0.067 0.40253,0.50317 l -0.13424,0.57026 q -0.50315,1.94559 -2.31457,3.15319 -1.81141,1.20762 -4.26018,1.20762 z"
     id="path25903"
     style="font-size:22.6651px;line-height:1.25;font-family:Barlow;-inkscape-font-specification:Barlow;fill:#0b090b;fill-opacity:1;stroke-width:0.838617" />
  <path
     d="m 292.35188,218.87843 q 1.10698,0 1.84495,0.40254 0.33545,0.13423 0.23483,0.5367 l -0.33545,1.47598 q -0.10064,0.40253 -0.53671,0.26836 -0.63735,-0.20127 -1.64369,-0.16774 -1.74433,0.067 -2.88485,1.30825 -1.14052,1.2076 -1.14052,3.08611 v 9.79504 q 0,0.43607 -0.43607,0.43607 h -1.50951 q -0.43608,0 -0.43608,-0.43607 v -16.10143 q 0,-0.4361 0.43608,-0.4361 h 1.50951 q 0.43607,0 0.43607,0.4361 v 1.8785 q 0,0.13423 0.0336,0.1677 0.067,0 0.13424,-0.10064 0.70444,-1.2076 1.77787,-1.87851 1.10697,-0.67089 2.51584,-0.67089 z"
     id="path25905"
     style="font-size:22.6651px;line-height:1.25;font-family:Barlow;-inkscape-font-specification:Barlow;fill:#0b090b;fill-opacity:1;stroke-width:0.838617" />
  <path
     d="m 297.8867,242.72867 q -0.23481,0 -0.23481,-0.43607 v -1.17407 q 0,-0.43609 0.23481,-0.43609 h 0.23482 q 1.30824,0 2.01267,-0.36898 0.738,-0.36901 1.24115,-1.30824 0.53673,-0.93925 1.14054,-2.88484 0.0335,-0.067 0,-0.20127 l -5.63552,-16.36979 q -0.0335,-0.067 -0.0335,-0.16771 0,-0.13425 0.10063,-0.23482 0.13425,-0.10065 0.30191,-0.10065 h 1.5766 q 0.40254,0 0.50317,0.36901 l 4.32725,13.1495 q 0.0336,0.13423 0.10065,0.13423 0.067,0 0.10064,-0.13423 l 4.22662,-13.1495 q 0.10064,-0.36901 0.46962,-0.36901 h 1.61015 q 0.23482,0 0.33545,0.13424 0.10064,0.13424 0.0336,0.369 l -6.17222,17.94639 q -0.80507,2.24749 -1.50951,3.32091 -0.70444,1.07344 -1.77787,1.47597 -1.03988,0.43608 -2.95192,0.43608 z"
     id="path25907"
     style="font-size:22.6651px;line-height:1.25;font-family:Barlow;-inkscape-font-specification:Barlow;fill:#0b090b;fill-opacity:1;stroke-width:0.838617" />
  <path
     d="m 327.30531,223.27278 q 0.46963,1.50951 0.46963,4.26016 0,2.78422 -0.40254,4.15955 -0.6038,2.14684 -2.21393,3.388 -1.61016,1.20762 -3.99182,1.20762 -1.30825,0 -2.41522,-0.50318 -1.10698,-0.5367 -1.84496,-1.5095 -0.067,-0.10065 -0.13423,-0.067 -0.067,0.0336 -0.067,0.13423 v 7.74882 q 0,0.43608 -0.43608,0.43608 h -1.50951 q -0.43608,0 -0.43608,-0.43608 v -22.6091 q 0,-0.43608 0.43608,-0.43608 h 1.50951 q 0.43608,0 0.43608,0.43608 v 1.27468 q 0,0.10064 0.067,0.13423 0.067,0 0.13423,-0.067 0.73798,-0.97277 1.81142,-1.5095 1.10697,-0.53671 2.44876,-0.53671 2.34813,0 3.92473,1.20761 1.61013,1.20761 2.21393,3.28738 z m -2.68357,8.4868 q 0.40255,-0.73799 0.57026,-1.64369 0.20127,-0.93926 0.20127,-2.58295 0,-1.5766 -0.13424,-2.44875 -0.13424,-0.90571 -0.46962,-1.61014 -0.40254,-1.20762 -1.44242,-1.91204 -1.00634,-0.70445 -2.41522,-0.70445 -1.34179,0 -2.2475,0.70445 -0.9057,0.70442 -1.34177,1.87849 -0.30191,0.67089 -0.43609,1.5766 -0.13424,0.90571 -0.13424,2.51584 0,1.61015 0.13424,2.5494 0.13424,0.90571 0.46963,1.61015 0.40253,1.14051 1.30823,1.84496 0.93925,0.67089 2.21396,0.67089 1.34178,0 2.31458,-0.67089 0.9728,-0.6709 1.40886,-1.77787 z"
     id="path25909"
     style="font-size:22.6651px;line-height:1.25;font-family:Barlow;-inkscape-font-specification:Barlow;fill:#0b090b;fill-opacity:1;stroke-width:0.838617" />
  <path
     d="m 339.98509,220.58919 q 0,0.43607 -0.43608,0.43607 h -3.65637 q -0.16773,0 -0.16773,0.16774 v 9.79503 q 0,1.61014 0.70444,2.28104 0.73799,0.63734 2.28104,0.63734 h 0.73799 q 0.43607,0 0.43607,0.43609 v 1.17406 q 0,0.43607 -0.43607,0.46963 h -1.14053 q -2.41521,0 -3.65635,-0.90571 -1.24116,-0.90571 -1.24116,-3.35447 V 221.193 q 0,-0.16774 -0.16774,-0.16774 h -1.91203 q -0.43608,0 -0.43608,-0.43607 v -1.10697 q 0,-0.43609 0.43608,-0.43609 h 1.91203 q 0.16774,0 0.16774,-0.1677 v -3.757 q 0,-0.4361 0.43608,-0.4361 h 1.44241 q 0.43608,0 0.43608,0.4361 v 3.757 q 0,0.1677 0.16773,0.1677 h 3.65637 q 0.43608,0 0.43608,0.43609 z"
     id="path25911"
     style="font-size:22.6651px;line-height:1.25;font-family:Barlow;-inkscape-font-specification:Barlow;fill:#0b090b;fill-opacity:1;stroke-width:0.838617" />
  <path
     d="m 350.58509,236.28811 q -2.44876,0 -4.19308,-1.24115 -1.71078,-1.24116 -2.38167,-3.42156 -0.46962,-1.54306 -0.46962,-4.12599 0,-2.5494 0.43607,-4.09245 0.67091,-2.14687 2.38168,-3.38802 1.74432,-1.24115 4.22662,-1.24115 2.41523,0 4.126,1.24115 1.74431,1.24115 2.38167,3.35447 0.46962,1.61015 0.46962,4.126 0,2.58293 -0.46962,4.12599 -0.6709,2.1804 -2.41522,3.42156 -1.71078,1.24115 -4.09245,1.24115 z m 0,-2.07977 q 1.61014,0 2.75067,-0.87216 1.14051,-0.90571 1.54304,-2.41522 0.26836,-1.07343 0.26836,-3.38802 0,-2.4152 -0.26836,-3.388 -0.36898,-1.50951 -1.54304,-2.38167 -1.14053,-0.90571 -2.81775,-0.90571 -1.61015,0 -2.75067,0.90571 -1.14052,0.87216 -1.54304,2.38167 -0.26836,0.9728 -0.26836,3.388 0,2.41522 0.26836,3.38802 0.36897,1.50951 1.5095,2.41522 1.17406,0.87216 2.85129,0.87216 z"
     id="path25913"
     style="font-size:22.6651px;line-height:1.25;font-family:Barlow;-inkscape-font-specification:Barlow;fill:#0b090b;fill-opacity:1;stroke-width:0.838617" />
  <path
     d="m 363.93582,235.91911 q -0.90571,0 -1.50951,-0.57026 -0.57027,-0.57027 -0.57027,-1.40889 0,-0.80507 0.60381,-1.37533 0.63735,-0.6038 1.47597,-0.6038 0.80507,0 1.44242,0.6038 0.63734,0.57026 0.63734,1.37533 0,0.83862 -0.6038,1.40889 -0.6038,0.57026 -1.47596,0.57026 z"
     id="path25915"
     style="font-size:22.6651px;line-height:1.25;font-family:Barlow;-inkscape-font-specification:Barlow;fill:#0b090b;fill-opacity:1;stroke-width:0.838617" />
  <path
     d="m 383.86124,235.9862 q -0.57025,0 -0.57025,-0.57027 v -8.28553 l -0.067,-0.26835 -6.77602,-13.65267 q -0.10064,-0.16773 -0.10064,-0.3019 0,-0.16772 0.13424,-0.26836 0.13424,-0.10065 0.369,-0.10065 h 3.89117 q 0.46963,0 0.67089,0.43609 l 4.09245,8.72161 q 0.067,0.10064 0.13424,0.10064 0.10064,0 0.13423,-0.10064 l 4.09245,-8.72161 q 0.2348,-0.43609 0.67088,-0.43609 h 3.92474 q 0.50316,0 0.50316,0.40255 0,0.16772 -0.067,0.26836 l -6.8431,13.65266 -0.067,0.26836 v 8.28553 q 0,0.57026 -0.57024,0.57026 z"
     style="font-weight:bold;font-size:22.6651px;line-height:1.25;font-family:Barlow;-inkscape-font-specification:Barlow;fill:#0b090b;fill-opacity:1;stroke-width:0.838617"
     id="path25917" />
  <path
     d="m 402.74683,236.28811 q -2.85129,0 -4.86397,-1.47598 -2.01269,-1.47595 -2.75067,-4.02535 -0.46962,-1.5766 -0.46962,-3.42155 0,-2.04622 0.50318,-3.55574 0.77151,-2.48231 2.75065,-3.89117 2.01268,-1.40889 4.86397,-1.40889 2.75066,0 4.69626,1.40889 1.97914,1.40886 2.75067,3.85762 0.50315,1.54307 0.50315,3.5222 0,1.74431 -0.43606,3.388 -0.77154,2.61649 -2.78422,4.12599 -1.97914,1.47598 -4.76334,1.47598 z m 0,-4.05891 q 1.07342,0 1.84496,-0.67089 0.77153,-0.6709 1.10697,-1.84496 0.26836,-0.90572 0.26836,-2.34812 0,-1.40889 -0.26836,-2.38167 -0.33544,-1.14053 -1.10697,-1.77787 -0.77154,-0.63735 -1.91204,-0.63735 -1.10698,0 -1.87852,0.63735 -0.77151,0.63734 -1.10697,1.77787 -0.26835,0.97278 -0.26835,2.38167 0,1.37532 0.26835,2.34812 0.33546,1.17406 1.10697,1.84496 0.80509,0.67089 1.9456,0.67089 z"
     style="font-weight:bold;font-size:22.6651px;line-height:1.25;font-family:Barlow;-inkscape-font-specification:Barlow;fill:#0b090b;fill-opacity:1;stroke-width:0.838617"
     id="path25919" />
  <path
     d="m 423.84638,219.34804 q 0,-0.57025 0.57026,-0.57025 h 3.58927 q 0.57026,0 0.57026,0.57025 v 16.10145 q 0,0.57025 -0.57026,0.57025 h -3.58927 q -0.57026,0 -0.57026,-0.57025 v -0.90571 q 0,-0.13424 -0.10064,-0.13424 -0.067,-0.0336 -0.13424,0.067 -1.30825,1.77785 -4.126,1.77785 -2.54939,0 -4.19308,-1.54304 -1.64369,-1.54306 -1.64369,-4.32727 v -11.03616 q 0,-0.57027 0.57026,-0.57027 h 3.55574 q 0.57024,0 0.57024,0.57027 v 9.86213 q 0,1.34177 0.70444,2.18039 0.73798,0.83863 2.01269,0.83863 1.14051,0 1.8785,-0.67089 0.73799,-0.70444 0.9057,-1.81142 z"
     style="font-weight:bold;font-size:22.6651px;line-height:1.25;font-family:Barlow;-inkscape-font-specification:Barlow;fill:#0b090b;fill-opacity:1;stroke-width:0.838617"
     id="path25921" />
  <path
     d="m 440.65218,218.54298 q 1.07342,0 1.77786,0.40254 0.40254,0.20127 0.30192,0.70444 l -0.63736,3.52218 q -0.0336,0.30191 -0.20126,0.369 -0.13425,0.067 -0.46963,0 -0.53673,-0.13424 -0.9728,-0.13424 -0.23481,0 -0.77153,0.067 -1.2076,0.10064 -2.04622,0.90569 -0.83862,0.77153 -0.83862,2.07977 v 8.98998 q 0,0.57025 -0.57025,0.57025 h -3.58928 q -0.57026,0 -0.57026,-0.57025 v -16.10142 q 0,-0.57027 0.57026,-0.57027 h 3.58928 q 0.57025,0 0.57025,0.57027 v 1.03989 q 0,0.13424 0.067,0.1677 0.067,0.0335 0.16773,-0.067 1.34179,-1.94558 3.62283,-1.94558 z"
     style="font-weight:bold;font-size:22.6651px;line-height:1.25;font-family:Barlow;-inkscape-font-specification:Barlow;fill:#0b090b;fill-opacity:1;stroke-width:0.838617"
     id="path25923" />
  <path
     d="m 459.40358,218.87843 q 1.10698,0 1.84495,0.40254 0.33545,0.13423 0.23483,0.5367 l -0.33545,1.47598 q -0.10065,0.40253 -0.53671,0.26836 -0.63736,-0.20127 -1.64369,-0.16774 -1.74433,0.067 -2.88485,1.30825 -1.14052,1.2076 -1.14052,3.08611 v 9.79504 q 0,0.43607 -0.43607,0.43607 h -1.50951 q -0.43609,0 -0.43609,-0.43607 v -16.10143 q 0,-0.4361 0.43609,-0.4361 h 1.50951 q 0.43607,0 0.43607,0.4361 v 1.8785 q 0,0.13423 0.0335,0.1677 0.067,0 0.13425,-0.10064 0.70444,-1.2076 1.77786,-1.87851 1.10698,-0.67089 2.51585,-0.67089 z"
     id="path25925"
     style="font-size:22.6651px;line-height:1.25;font-family:Barlow;-inkscape-font-specification:Barlow;fill:#0b090b;fill-opacity:1;stroke-width:0.838617" />
  <path
     d="m 471.21122,234.24186 q 1.5095,-0.0336 2.58295,-0.67089 1.10697,-0.67089 1.71077,-1.84496 0.067,-0.1677 0.2348,-0.2348 0.16773,-0.067 0.33545,0.0336 l 0.9728,0.53671 q 0.40253,0.23482 0.20127,0.57027 -0.80507,1.67722 -2.41521,2.68357 -1.61016,0.9728 -3.8241,0.9728 -2.34812,0 -3.95827,-1.10698 -1.61013,-1.10697 -2.31457,-3.08611 -0.63736,-1.67724 -0.63736,-4.62917 0,-1.44242 0.0336,-2.28102 0.067,-0.87217 0.26836,-1.61015 0.57026,-2.18041 2.28104,-3.48865 1.74431,-1.30824 4.19307,-1.30824 2.9184,0 4.56208,1.50951 1.67723,1.50951 2.14685,4.26017 0.20127,1.07342 0.20127,3.35446 0,0.43609 -0.43608,0.43609 h -10.73428 q -0.16774,0 -0.16774,0.16772 0,1.67724 0.20127,2.44876 0.369,1.5095 1.54306,2.41521 1.20761,0.87216 3.01901,0.87216 z m -0.33545,-13.38431 q -1.67723,0 -2.75065,0.87216 -1.07344,0.83862 -1.40889,2.28105 -0.20126,0.67089 -0.26835,2.28104 0,0.16772 0.16773,0.16772 h 8.62097 q 0.16772,0 0.16772,-0.16772 -0.067,-1.47597 -0.20127,-2.14686 -0.36898,-1.50951 -1.50951,-2.38167 -1.10698,-0.90571 -2.81775,-0.90572 z"
     id="path25927"
     style="font-size:22.6651px;line-height:1.25;font-family:Barlow;-inkscape-font-specification:Barlow;fill:#0b090b;fill-opacity:1;stroke-width:0.838617" />
  <path
     d="m 489.89547,220.58919 q 0,0.43607 -0.43608,0.43607 h -3.65637 q -0.16771,0 -0.16771,0.16774 v 9.79503 q 0,1.61014 0.70442,2.28104 0.738,0.63734 2.28104,0.63734 h 0.73798 q 0.43609,0 0.43609,0.43609 v 1.17406 q 0,0.43607 -0.43609,0.46963 h -1.14051 q -2.41522,0 -3.65637,-0.90571 -1.24115,-0.90571 -1.24115,-3.35447 V 221.193 q 0,-0.16774 -0.16772,-0.16774 h -1.91205 q -0.43608,0 -0.43608,-0.43607 v -1.10697 q 0,-0.43609 0.43608,-0.43609 h 1.91205 q 0.16772,0 0.16772,-0.1677 v -3.757 q 0,-0.4361 0.43608,-0.4361 h 1.44242 q 0.43609,0 0.43609,0.4361 v 3.757 q 0,0.1677 0.16771,0.1677 h 3.65637 q 0.43608,0 0.43608,0.43609 z"
     id="path25929"
     style="font-size:22.6651px;line-height:1.25;font-family:Barlow;-inkscape-font-specification:Barlow;fill:#0b090b;fill-opacity:1;stroke-width:0.838617" />
  <path
     d="m 504.7557,219.48224 q 0,-0.4361 0.43609,-0.4361 h 1.50949 q 0.43609,0 0.43609,0.4361 v 16.10143 q 0,0.43607 -0.43609,0.43607 h -1.50949 q -0.43609,0 -0.43609,-0.43607 v -1.27471 q 0,-0.10064 -0.067,-0.13423 -0.067,-0.0336 -0.13425,0.067 -1.44241,2.01269 -4.42788,2.01269 -1.61015,0 -2.98549,-0.63736 -1.34177,-0.67089 -2.14686,-1.91204 -0.77151,-1.24116 -0.77151,-2.98547 v -11.23746 q 0,-0.43609 0.43606,-0.43609 h 1.50952 q 0.43608,0 0.43608,0.43609 v 10.53302 q 0,1.91204 1.07343,3.05257 1.07343,1.10696 2.91839,1.10696 1.91205,0 3.01902,-1.14051 1.14051,-1.14051 1.14051,-3.01902 z"
     id="path25931"
     style="font-size:22.6651px;line-height:1.25;font-family:Barlow;-inkscape-font-specification:Barlow;fill:#0b090b;fill-opacity:1;stroke-width:0.838617" />
  <path
     d="m 519.31409,218.87843 q 1.10697,0 1.84495,0.40254 0.33545,0.13423 0.23481,0.5367 l -0.33544,1.47598 q -0.10064,0.40253 -0.53672,0.26836 -0.63735,-0.20127 -1.64369,-0.16774 -1.74431,0.067 -2.88483,1.30825 -1.14052,1.2076 -1.14052,3.08611 v 9.79504 q 0,0.43607 -0.43608,0.43607 h -1.50952 q -0.43607,0 -0.43607,-0.43607 v -16.10143 q 0,-0.4361 0.43607,-0.4361 h 1.50952 q 0.43608,0 0.43608,0.4361 v 1.8785 q 0,0.13423 0.0336,0.1677 0.067,0 0.13424,-0.10064 0.70444,-1.2076 1.77786,-1.87851 1.10697,-0.67089 2.51587,-0.67089 z"
     id="path25933"
     style="font-size:22.6651px;line-height:1.25;font-family:Barlow;-inkscape-font-specification:Barlow;fill:#0b090b;fill-opacity:1;stroke-width:0.838617" />
  <path
     d="m 531.72552,218.81133 q 2.65001,0 4.22662,1.5766 1.61015,1.5766 1.61015,4.22662 v 10.9691 q 0,0.43607 -0.43609,0.43607 h -1.50951 q -0.43608,0 -0.43608,-0.43607 v -10.49948 q 0,-1.87849 -1.10697,-3.01902 -1.10698,-1.17407 -2.88484,-1.17407 -1.71078,0 -2.8513,0.9728 -1.10698,0.9728 -1.2747,2.5494 v 11.17037 q 0,0.43607 -0.43608,0.43607 h -1.50951 q -0.43607,0 -0.43607,-0.43607 v -16.10143 q 0,-0.43609 0.43607,-0.43609 h 1.50951 q 0.43608,0 0.43608,0.43609 v 1.24115 q 0,0.10064 0.067,0.16771 0.067,0.0336 0.10064,-0.067 1.47598,-2.01267 4.49499,-2.01267 z"
     id="path25935"
     style="font-size:22.6651px;line-height:1.25;font-family:Barlow;-inkscape-font-specification:Barlow;fill:#0b090b;fill-opacity:1;stroke-width:0.838617" />
  <path
     d="m 548.33013,236.18746 q -1.87851,0 -3.35447,-0.60381 -1.44243,-0.6038 -2.24751,-1.61015 -0.77152,-1.00632 -0.77152,-2.24749 v -0.30189 q 0,-0.43609 0.43608,-0.43609 h 1.44242 q 0.20127,0 0.30191,0.10065 0.13424,0.067 0.13424,0.20127 v 0.3019 q 0,1.10698 1.14051,1.9456 1.14052,0.80507 2.88484,0.80507 1.74433,0 2.81776,-0.77153 1.07341,-0.80507 1.07341,-2.01268 0,-0.83862 -0.53671,-1.37533 -0.5367,-0.53672 -1.30823,-0.83863 -0.77154,-0.30192 -2.31459,-0.77152 -1.8785,-0.53672 -3.08611,-1.07342 -1.2076,-0.53671 -2.04621,-1.47598 -0.83862,-0.97278 -0.83862,-2.44875 0,-2.14685 1.67723,-3.42156 1.71077,-1.27469 4.46144,-1.27469 1.84496,0 3.25382,0.60381 1.44243,0.60379 2.21396,1.67723 0.77152,1.03987 0.77152,2.34812 0,0.43608 -0.43608,0.43608 h -1.37533 q -0.43609,0 -0.43609,-0.23481 v -0.20127 q 0,-1.14052 -1.10697,-1.91205 -1.07342,-0.77153 -2.91838,-0.77153 -1.71078,0 -2.75066,0.70444 -1.03989,0.67089 -1.03989,1.87851 0,1.14051 0.9728,1.74432 1.00633,0.60379 3.11966,1.20761 1.94558,0.53672 3.1532,1.03987 1.2076,0.50317 2.07976,1.47597 0.87216,0.97279 0.87216,2.51585 0,2.18041 -1.71078,3.48864 -1.67722,1.30824 -4.52852,1.30824 z"
     id="path25937"
     style="font-size:22.6651px;line-height:1.25;font-family:Barlow;-inkscape-font-specification:Barlow;fill:#0b090b;fill-opacity:1;stroke-width:0.838617" />
  <path
     d="m 560.77516,235.91911 q -0.90571,0 -1.50951,-0.57026 -0.57027,-0.57027 -0.57027,-1.40889 0,-0.80507 0.60382,-1.37533 0.63734,-0.6038 1.47596,-0.6038 0.80506,0 1.44241,0.6038 0.63736,0.57026 0.63736,1.37533 0,0.83862 -0.60382,1.40889 -0.6038,0.57026 -1.47595,0.57026 z"
     id="path25939"
     style="font-size:22.6651px;line-height:1.25;font-family:Barlow;-inkscape-font-specification:Barlow;fill:#0b090b;fill-opacity:1;stroke-width:0.838617" />
</svg>
