<?xml version="1.0" encoding="UTF-8" standalone="no"?>
<!-- Generator: Adobe Illustrator 21.1.0, SVG Export Plug-In . SVG Version: 6.00 Build 0)  -->

<svg
   version="1.1"
   x="0px"
   y="0px"
   viewBox="0 0 113.6 101.59999"
   xml:space="preserve"
   id="svg906"
   width="113.6"
   height="101.6"
   xmlns="http://www.w3.org/2000/svg"
   xmlns:svg="http://www.w3.org/2000/svg">
<path
   d="m 112.6,51.6 c 0,-6.8 -5.5,-12.2 -12.2,-12.2 -3.3,0 -6.3,1.3 -8.5,3.4 C 83.5,36.8 72,32.9 59.2,32.4 L 64.8,6.2 83,10.1 c 0.2,4.6 4,8.3 8.7,8.3 4.8,0 8.7,-3.9 8.7,-8.7 C 100.4,4.9 96.5,1 91.7,1 88.3,1 85.3,3 83.9,5.9 L 63.6,1.6 C 63,1.5 62.4,1.6 62,1.9 61.5,2.2 61.2,2.7 61.1,3.3 L 54.9,32.5 C 41.9,32.9 30.2,36.8 21.7,42.9 19.5,40.8 16.5,39.5 13.2,39.5 6.4,39.5 1,45 1,51.7 c 0,5 3,9.2 7.2,11.1 -0.2,1.2 -0.3,2.4 -0.3,3.7 0,18.8 21.9,34.1 48.9,34.1 27,0 48.9,-15.2 48.9,-34.1 0,-1.2 -0.1,-2.5 -0.3,-3.7 4.2,-1.9 7.2,-6.2 7.2,-11.2 z m -83.8,8.7 c 0,-4.8 3.9,-8.7 8.7,-8.7 4.8,0 8.7,3.9 8.7,8.7 0,4.8 -3.9,8.7 -8.7,8.7 -4.8,0.1 -8.7,-3.9 -8.7,-8.7 z m 48.7,23.1 c -6,6 -17.4,6.4 -20.7,6.4 -3.4,0 -14.8,-0.5 -20.7,-6.4 -0.9,-0.9 -0.9,-2.3 0,-3.2 0.9,-0.9 2.3,-0.9 3.2,0 3.8,3.8 11.8,5.1 17.5,5.1 5.7,0 13.8,-1.3 17.5,-5.1 0.9,-0.9 2.3,-0.9 3.2,0 0.8,0.9 0.8,2.3 0,3.2 z M 75.9,69.1 c -4.8,0 -8.7,-3.9 -8.7,-8.7 0,-4.8 3.9,-8.7 8.7,-8.7 4.8,0 8.7,3.9 8.7,8.7 0,4.7 -3.9,8.7 -8.7,8.7 z"
   id="path888"
   style="fill:#f1fbfe" />
</svg>
